<?xml version="1.0" encoding="utf-8"?>
<!-- Generator: Adobe Illustrator 21.0.0, SVG Export Plug-In . SVG Version: 6.00 Build 0)  -->
<svg version="1.1" xmlns="http://www.w3.org/2000/svg" xmlns:xlink="http://www.w3.org/1999/xlink" x="0px" y="0px"
	 viewBox="0 0 850 850" style="enable-background:new 0 0 850 850;" xml:space="preserve">
<style type="text/css">
	.st0{fill:#9E9E9E;}
	.st1{fill:#FFFFFF;}
	.st2{fill:#DFE7F2;}
	.st3{fill:#7C7C7C;}
	.st4{fill:#F9A528;}
	.st5{opacity:0.5;}
	.st6{fill:#F47E1E;}
	.st7{fill:#000072;}
	.st8{fill:#E2D6BF;}
	.st9{fill:#BCAD95;}
	.st10{fill:#777782;}
	.st11{fill:#F9E8C2;}
	.st12{opacity:0.7;}
	.st13{fill:#C4A28C;stroke:#000072;stroke-width:5.6893;stroke-linecap:round;stroke-linejoin:round;stroke-miterlimit:10;}
	.st14{fill:#C4A28C;}
	.st15{fill:#959B9E;}
	.st16{fill:#3A3A3A;}
	.st17{fill:none;stroke:#512717;stroke-width:10.1363;stroke-linecap:round;stroke-miterlimit:10;}
	.st18{fill:#B5CFDD;}
	.st19{fill:#FAA625;}
	.st20{fill:#FF8080;}
	.st21{fill:#FFA9A9;}
	.st22{fill:#F28686;}
	.st23{opacity:0.3;}
</style>
<g id="圖層_3">
	<g>
		<g>
			<path class="st0" d="M371.4,648.8c0,0-38.2,45.2-79.9,21.7c-47-26.5-34.5-94.4-55.6-117.7c-15.6-17.2-34.8-12.3-47.5,3.1
				c-11.4,13.9-18.7,22.1-31.5,15.9c-19.9-9.6-11.7-50.6,20.4-68.6c45.6-25.5,91.5,8.4,101,75.1c10.1,71.7,41.3,76.1,74.6,47.5"/>
		</g>
		<g>
			<path class="st0" d="M371.4,648.8c0,0-38.2,45.2-79.9,21.7c-11-6.2-18.7-14.7-24.4-24.3c0,0,0,0,0,0
				c-18.5-31.5-15-75.6-31.2-93.4c-15.6-17.2-34.8-12.3-47.5,3.1c-11.4,13.9-18.7,22.1-31.5,15.9c-19.9-9.6-11.7-50.6,20.4-68.6
				c45.6-25.5,91.5,8.4,101,75.1c8.8,62.5,33.6,73.8,61.9,56.8c4.2-2.5,8.4-5.6,12.7-9.3L371.4,648.8z"/>
		</g>
		<g>
			<path class="st1" d="M371.4,648.8c0,0-38.2,45.2-79.9,21.7c-11-6.2-18.7-14.7-24.4-24.3c0,0,0,0,0,0
				c-12.7-21.7-15-49.2-20.5-70.2c0,0,0,0,0,0c-2.5-9.5-5.6-17.6-10.7-23.2c-15.6-17.2-34.8-12.3-47.5,3.1
				c-11.4,13.9-18.7,22.1-31.5,15.9c-3.7-1.8-6.4-4.7-8.2-8.3c-7.8-15.8,2.5-45.7,28.6-60.3c45.6-25.5,91.5,8.4,101,75.1
				c8.8,62.5,33.6,73.8,61.9,56.8c4.2-2.5,8.4-5.6,12.7-9.3L371.4,648.8z"/>
		</g>
		<g>
			<path class="st2" d="M246.5,576c-2.5-9.5-5.6-17.6-10.7-23.2c-15.6-17.2-34.8-12.3-47.5,3.1c-11.4,13.9-18.7,22.1-31.5,15.9
				c-3.7-1.8-6.4-4.7-8.2-8.3c0,0,12.7,12.3,29.7-10.6C205.3,516.3,242,522.6,246.5,576z"/>
		</g>
		<g>
			<path class="st3" d="M235.1,540.8c-0.9,4.3-1.2,9.7-1.2,10c-0.3-0.3-0.7-0.6-1-0.9c-0.3-0.3-0.7-0.6-1-0.9
				c-0.2-0.2-0.5-0.4-0.8-0.6c-0.1-0.1-0.3-0.2-0.4-0.3c-0.2-0.1-0.3-0.3-0.5-0.4c-0.2-0.1-0.3-0.2-0.5-0.3
				c-0.2-0.2-0.4-0.3-0.7-0.5c-0.1-0.1-0.2-0.2-0.4-0.3c-0.2-0.2-0.4-0.3-0.7-0.4c-0.1-0.1-0.2-0.1-0.3-0.2
				c-0.3-0.2-0.6-0.3-0.8-0.5c-0.1,0-0.2-0.1-0.2-0.1c-0.2-0.1-0.4-0.2-0.6-0.3c-0.2-0.1-0.5-0.3-0.8-0.4c-0.1-0.1-0.2-0.1-0.3-0.2
				c-0.2-0.1-0.4-0.2-0.7-0.3c-0.1-0.1-0.3-0.1-0.4-0.2c-0.3-0.1-0.6-0.3-0.9-0.4c0,0,0,0,0,0c-0.3-0.1-0.5-0.2-0.8-0.3
				c-0.6-0.2-1.3-0.4-1.9-0.6c-0.2-0.1-0.5-0.1-0.7-0.2c-1.4-0.3-2.8-0.5-4.2-0.6c-0.1,0-0.3,0-0.4,0c-0.3,0-0.5,0-0.8,0
				c-0.4,0-0.7,0-1.1,0c-0.1,0-0.1,0-0.2,0c-0.3,0-0.5,0-0.8,0.1c-0.2,0-0.3,0-0.5,0c-0.2,0-0.4,0-0.6,0.1c-0.2,0-0.3,0-0.5,0.1
				c-0.2,0-0.3,0-0.4,0.1c-0.2,0-0.4,0.1-0.6,0.1c-0.2,0-0.4,0.1-0.6,0.1c-0.1,0-0.3,0.1-0.4,0.1c-0.3,0.1-0.5,0.1-0.8,0.2
				c-0.1,0-0.1,0-0.2,0c-0.3,0.1-0.6,0.2-0.9,0.3c-0.1,0-0.1,0-0.2,0c-0.3,0.1-0.7,0.2-1,0.3c-0.3,0.1-0.6,0.2-0.9,0.3
				c-0.4,0.2-0.9,0.3-1.3,0.5c-0.3,0.1-0.5,0.2-0.7,0.3c-5.2,2.4-10,6.3-14.1,11.3c-11.4,13.9-18.7,22.1-31.5,15.9
				c-3.7-1.8-6.4-4.7-8.2-8.3c0,0,12.7,12.3,29.7-10.6C197.3,527.2,221.1,522.7,235.1,540.8z"/>
		</g>
		<g>
			<path class="st2" d="M371.4,648.8c0,0-38.2,45.2-79.9,21.7c-11-6.2-18.7-14.7-24.4-24.3c0.6,0.9,20.5,29.5,56.1,16.2
				c18.7-7,19.5-18.6,16.8-27.3c4.2-2.5,8.4-5.6,12.7-9.3L371.4,648.8z"/>
		</g>
		<g>
			<path class="st4" d="M257.2,522.6c-0.8,3.4-3.4,3.3-6.4,2.4c-4.1-1.2-3,5.3-5.1,9.1c-2,3.7-7.2-1.2-9.4,3
				c-1.9,3.6-2.4,13.3-2.4,13.6c-15.2-14.7-33.4-9.6-45.6,5.2c-11.4,13.9-18.7,22.1-31.5,15.9c-19.9-9.6-11.7-50.6,20.4-68.6
				C207.2,486.4,237.4,495.4,257.2,522.6z"/>
		</g>
		<g class="st5">
			<path class="st1" d="M257.2,522.6c-0.3,1.2-0.8,1.9-1.5,2.4c-19.7-23-47.8-29.7-75.8-14.1c-22.9,12.8-33.6,37.3-30.7,53.8
				c-9-15.4,1.1-46.5,27.9-61.5C207.2,486.4,237.4,495.4,257.2,522.6z"/>
		</g>
		<g>
			<path class="st6" d="M235.1,540.8c-0.9,4.3-1.2,9.7-1.2,10c-0.3-0.3-0.7-0.6-1-0.9c-0.3-0.3-0.7-0.6-1-0.9
				c-0.3-0.2-0.5-0.4-0.8-0.6c-0.1-0.1-0.3-0.2-0.4-0.3c-0.2-0.1-0.3-0.3-0.5-0.4c-0.2-0.1-0.3-0.2-0.5-0.3
				c-0.2-0.2-0.4-0.3-0.7-0.5c-0.1-0.1-0.2-0.2-0.4-0.3c-0.2-0.2-0.4-0.3-0.7-0.4c-0.1-0.1-0.2-0.1-0.3-0.2
				c-0.3-0.2-0.6-0.3-0.8-0.5c-0.1,0-0.2-0.1-0.2-0.1c-0.2-0.1-0.4-0.2-0.6-0.3c-0.2-0.1-0.5-0.3-0.8-0.4c-0.1-0.1-0.2-0.1-0.3-0.2
				c-0.2-0.1-0.4-0.2-0.7-0.3c-0.1-0.1-0.3-0.1-0.4-0.2c-0.3-0.1-0.6-0.3-0.9-0.4c0,0,0,0,0,0c-0.3-0.1-0.5-0.2-0.8-0.3
				c-0.6-0.2-1.3-0.4-1.9-0.6c-0.2-0.1-0.5-0.1-0.7-0.2c-1.4-0.3-2.8-0.5-4.2-0.6c-0.2,0-0.3,0-0.4,0c-0.3,0-0.6,0-0.8,0
				c-0.4,0-0.7,0-1.1,0c-0.1,0-0.1,0-0.2,0c-0.3,0-0.5,0-0.8,0.1c-0.2,0-0.3,0-0.5,0c-0.2,0-0.4,0-0.6,0.1c-0.2,0-0.3,0-0.5,0.1
				c-0.2,0-0.3,0-0.4,0.1c-0.2,0-0.4,0.1-0.6,0.1c-0.2,0-0.4,0.1-0.6,0.1c-0.1,0-0.3,0.1-0.4,0.1c-0.3,0.1-0.5,0.1-0.8,0.2
				c-0.1,0-0.1,0-0.2,0c-0.3,0.1-0.6,0.2-0.9,0.3c-0.1,0-0.1,0-0.2,0c-0.3,0.1-0.7,0.2-1,0.3c-0.3,0.1-0.6,0.2-0.9,0.3
				c-0.4,0.2-0.9,0.3-1.3,0.5c-0.2,0.1-0.5,0.2-0.7,0.3c-5.2,2.4-10,6.3-14.1,11.3c-11.4,13.9-18.7,22.1-31.5,15.9
				c-3.7-1.8-6.4-4.7-8.2-8.3c0,0,12.7,12.3,29.7-10.6C197.3,527.2,221.1,522.7,235.1,540.8z"/>
		</g>
		<g>
			<path class="st7" d="M345.8,672.3c-19.4,10.1-38.6,10.3-55.8,0.6c-29.9-16.9-36.4-49.2-42.2-77.6c-3.3-16.6-6.5-32.2-14.1-40.7
				c-6.1-6.7-13.1-10.1-20.3-9.9c-8.1,0.2-16.3,4.8-23,13c-11,13.4-19.7,24-34.8,16.6c-7.6-3.7-12-11.4-12.3-21.7
				c-0.5-15.9,9.5-38.8,32.5-51.7c19.1-10.7,39.4-11.7,57.3-2.8c24.9,12.4,42.3,41.5,47.7,79.9c4.8,34,14.9,54.8,29.1,60.1
				c13.9,5.2,30-4.9,41-14.4c1.1-1,2.9-0.9,3.9,0.3c1,1.1,0.9,2.9-0.3,3.9c-17.4,14.9-33.4,20.3-46.5,15.4
				c-16.5-6.2-27.4-27.9-32.6-64.5c-5.1-36-21.8-64.3-44.7-75.7c-16.4-8.1-34.5-7.2-52.2,2.7c-21,11.7-30.1,32.5-29.7,46.7
				c0.2,8.2,3.5,14.2,9.2,17c10.3,5,15.9-0.2,28.2-15.2c7.7-9.4,17.4-14.7,27.2-15c8.9-0.2,17.4,3.8,24.5,11.7
				c8.7,9.5,11.8,25.2,15.4,43.3c5.5,27.3,11.7,58.3,39.5,73.9c16.4,9.2,34.1,8.6,52.8-1.9c14.2-8,23.6-19,23.7-19.1
				c1-1.2,2.7-1.3,3.9-0.3c1.2,1,1.3,2.7,0.3,3.9c-0.4,0.5-10,11.8-25.1,20.3C347.5,671.4,346.7,671.8,345.8,672.3z"/>
		</g>
	</g>
</g>
<g id="圖層_4">
	<g>
		<path class="st8" d="M605,640.9c-2.1,3.3-0.3,14.9,0.6,19.8c2.7,14.8,14.3,24.3,23,35.6c9.1,11.8,18.3,24.5,19.5,39.9
			c0.8,10.9-3.8,21.9-15.9,23.4c-22.1,2.6-35.2-18-53.7-25.3"/>
		<path class="st7" d="M605,640.9c-0.4,1-0.4,2-0.5,3c0,1,0.1,2,0.2,3.1c0.2,2,0.6,4.1,1.1,6.1c0.5,2,0.9,4,1.5,6
			c0.5,2,1.1,3.8,1.9,5.6c3.1,7.2,8.4,13.1,14.1,19.1c2.8,3,5.8,6.1,8.6,9.4c2.7,3.2,5.3,6.6,7.9,10.1c5,7,9.6,14.8,11.9,23.8
			c0.3,1.1,0.6,2.2,0.7,3.4c0.2,1.1,0.4,2.3,0.5,3.4c0.3,2.3,0.3,4.8,0.2,7.2c-0.2,2.4-0.7,4.9-1.4,7.2c-0.8,2.4-1.9,4.8-3.5,6.9
			c-1.6,2.1-3.5,4-5.8,5.5c-2.3,1.4-4.8,2.3-7.3,2.8l-1.9,0.3c-0.6,0.1-1.2,0.1-1.8,0.1c-0.6,0-1.2,0.1-1.8,0c-0.6,0-1.2,0-1.8,0
			c-2.4-0.1-4.7-0.5-7-1.1c-4.5-1.2-8.7-3.2-12.4-5.6c-3.7-2.4-7-5.1-10.2-7.8c-6.4-5.5-12.3-11.1-19.7-15.2c2,0.5,4,1.2,6,2
			c2,0.8,3.9,1.8,5.7,2.8c3.8,2,7.3,4.3,10.8,6.5c7,4.4,14.1,8.5,21.4,9.7c1.8,0.3,3.6,0.5,5.4,0.4c0.5,0,0.9-0.1,1.4-0.1
			c0.5,0,0.9-0.1,1.4-0.1c0.4-0.1,0.9-0.1,1.3-0.2l1.2-0.3c1.5-0.4,3-1,4.2-1.9c1.2-0.9,2.2-1.9,3.1-3.2c0.8-1.3,1.5-2.7,2-4.3
			c0.5-1.6,0.8-3.3,0.8-5c0.1-1.8,0.1-3.5-0.2-5.3c-0.2-1.8-0.6-3.7-1-5.5c-0.9-3.6-2.3-7.2-4-10.7c-1.7-3.5-3.8-6.9-6-10.2
			c-2.2-3.4-4.6-6.7-7-10c-2.3-3.2-4.9-6.4-7.5-9.7c-2.6-3.3-5.2-6.7-7.5-10.5c-2.3-3.7-4.2-7.8-5.3-12.2c-0.5-2.1-0.9-4.4-1.1-6.5
			c-0.2-2.1-0.3-4.2-0.4-6.4c0-2.1,0-4.3,0.2-6.4c0.1-1.1,0.2-2.1,0.5-3.2C604.1,642.8,604.4,641.8,605,640.9z"/>
	</g>
	<g>
		<path class="st9" d="M612.3,675.4c-0.1-0.2-0.3-0.4-0.6-0.5c0.2,1.6,2.2,3.7,3.2,5.2c3,4.6,6,9.4,8.6,14.3
			c5,9.2,11.4,22.3,10,33.2c-2.1,16.6-21.3,1.9-27.3-4.3c-11-11.2-18.7-26.9-21.6-42.4"/>
		<g>
			<path class="st7" d="M613.8,673.9c-0.2-0.2-0.4-0.3-0.6-0.5c-1.5-1.2-4.1-0.1-3.5,2c1.6,5.1,6.1,9.8,8.8,14.4
				c3.4,5.8,6.7,11.7,9.2,18c2.4,6,9.3,29.1-4.5,24.7c-7.9-2.5-14.8-9.2-19.9-15.5c-8.5-10.6-14.1-23.3-16.7-36.6
				c-0.5-2.6-4.5-1.5-4,1.1c2.9,15,9.7,29.4,19.9,40.9c5.6,6.3,14,13.8,22.7,14.8c11.6,1.3,11.3-13.3,9.5-21
				c-1.6-7.1-4.7-13.8-8.1-20.2c-1.9-3.6-3.9-7.1-6.1-10.6c-2.1-3.4-5.8-7.2-7-11c-1.2,0.7-2.3,1.3-3.5,2c0.2,0.2,0.4,0.3,0.6,0.5
				C612.9,678.5,615.9,675.6,613.8,673.9L613.8,673.9z"/>
		</g>
	</g>
	<g>
		<path class="st8" d="M243.5,635.8c2.1,3.3,0.3,14.9-0.6,19.8c-2.7,14.8-14.3,24.3-23,35.6c-9.1,11.8-18.3,24.5-19.5,39.9
			c-0.8,10.9,3.8,21.9,15.9,23.4c22.1,2.6,35.2-18,53.7-25.3"/>
		<path class="st7" d="M243.5,635.8c0.7,0.8,1,1.9,1.2,2.9c0.3,1,0.4,2.1,0.5,3.2c0.2,2.1,0.2,4.3,0.2,6.4c0,2.1-0.2,4.2-0.4,6.4
			c-0.2,2.1-0.5,4.4-1.1,6.5c-1.1,4.3-3.1,8.4-5.3,12.2c-2.3,3.8-4.9,7.2-7.5,10.5c-2.6,3.3-5.2,6.5-7.5,9.7c-2.4,3.3-4.8,6.7-7,10
			c-2.2,3.4-4.3,6.8-6,10.2c-1.7,3.5-3.2,7-4,10.7c-0.5,1.8-0.8,3.6-1,5.5c-0.3,1.9-0.3,3.6-0.2,5.3c0.1,1.7,0.4,3.4,0.8,5
			c0.5,1.6,1.1,3.1,2,4.3c0.8,1.3,1.9,2.4,3.1,3.2c1.2,0.8,2.6,1.4,4.2,1.9l1.2,0.3c0.4,0.1,0.9,0.1,1.3,0.2
			c0.5,0.1,0.9,0.1,1.4,0.1c0.5,0,0.9,0.1,1.4,0.1c1.8,0.1,3.6-0.1,5.4-0.4c7.3-1.1,14.4-5.3,21.4-9.7c3.5-2.2,7.1-4.5,10.8-6.5
			c1.9-1,3.8-1.9,5.7-2.8c2-0.8,4-1.5,6-2c-7.4,4.1-13.3,9.8-19.7,15.2c-3.2,2.7-6.5,5.4-10.2,7.8c-3.7,2.4-7.8,4.4-12.4,5.6
			c-2.3,0.6-4.6,1-7,1.1c-0.6,0.1-1.2,0-1.8,0c-0.6,0-1.2,0-1.8,0c-0.6,0-1.2,0-1.8-0.1l-1.9-0.3c-2.5-0.5-5.1-1.4-7.3-2.8
			c-2.3-1.4-4.3-3.3-5.8-5.5c-1.6-2.1-2.7-4.5-3.5-6.9c-0.8-2.4-1.3-4.8-1.4-7.2c-0.2-2.4-0.1-4.9,0.2-7.2c0.1-1.2,0.3-2.3,0.5-3.4
			c0.2-1.1,0.5-2.3,0.7-3.4c2.3-9,6.9-16.8,11.9-23.8c2.5-3.5,5.1-6.8,7.9-10.1c2.8-3.4,5.7-6.4,8.6-9.4c5.7-6,11.1-11.9,14.1-19.1
			c0.8-1.8,1.4-3.6,1.9-5.6c0.5-2,1-4,1.5-6c0.4-2,0.8-4,1.1-6.1c0.1-1,0.2-2,0.2-3.1C244,637.8,244,636.8,243.5,635.8z"/>
	</g>
	<g>
		<path class="st9" d="M236.3,670.2c0.1-0.2,0.3-0.4,0.6-0.5c-0.2,1.6-2.2,3.7-3.2,5.2c-3,4.6-6,9.4-8.6,14.3
			c-5,9.2-11.4,22.3-10,33.2c2.1,16.6,21.3,1.9,27.3-4.3c11-11.2,18.7-26.9,21.6-42.4"/>
		<g>
			<path class="st7" d="M237.7,671.7c0.2-0.2,0.4-0.3,0.6-0.5c-1.2-0.7-2.3-1.3-3.5-2c-1.2,3.8-4.9,7.6-7,11
				c-2.1,3.5-4.2,7-6.1,10.6c-3.3,6.4-6.5,13.1-8.1,20.2c-1.7,7.7-2.1,22.3,9.5,21c8.7-1,17.1-8.5,22.7-14.8
				c10.2-11.5,17-25.9,19.9-40.9c0.5-2.6-3.5-3.7-4-1.1c-2.6,13.3-8.1,26.1-16.7,36.6c-5.1,6.3-12,13-19.9,15.5
				c-13.7,4.4-6.9-18.7-4.5-24.7c2.4-5.9,5.5-11.7,8.7-17.2c1.9-3.2,3.8-6.4,5.9-9.4c1.3-1.9,2.7-3.5,3.4-5.7c0.7-2.2-2-3.2-3.5-2
				c-0.2,0.2-0.4,0.3-0.6,0.5C232.7,670.4,235.7,673.4,237.7,671.7L237.7,671.7z"/>
		</g>
	</g>
</g>
<g id="圖層_5">
	<g>
		<path class="st10" d="M491.3,662.1c42.4,37.2,118.6,21.7,118.6,21.7v-82.5c0,0-43.9,3.9-60-1.3c-17.2-5.6-21-68.6-80.8-68.6"/>
	</g>
	<g>
		<path class="st8" d="M522.3,559.1c-2.7-3.7-5.6-7.3-9.1-10.6v0c-1.1-1.1-2.2-2.1-3.4-3.1c-9.6-8-22.3-13.7-39.9-13.9
			c-0.3,0-0.5,0-0.8,0l5.4,31.6C490,560.6,506.3,558.9,522.3,559.1z"/>
		<path class="st11" d="M522.3,559.1c-16.1-0.2-32.3,1.5-47.8,4l16.8,99c16.6,14.6,38.5,21.1,58.9,23.6
			c-13.1-20.9-11.3-46.4,3.9-66.4c4.4-6.2,11-12.7,18.5-16.6c-8.9-0.2-17.4-0.9-22.7-2.6C540.5,597,535.1,576.8,522.3,559.1z"/>
		<path class="st2" d="M571.7,603.2c-7.1,4-13.4,10.1-17.6,16.1c-15.2,20-17,45.5-3.9,66.4c1,0.1,2,0.2,3,0.3
			c2-22.8,6.5-45.3,13.9-67.6C568.9,613.5,570,608.2,571.7,603.2z"/>
		<path class="st1" d="M572.6,602.7c-0.3,0.2-0.6,0.3-0.9,0.5c-1.7,5-2.8,10.3-4.6,15.3c-7.4,22.2-11.9,44.8-13.9,67.6
			c30.3,3.2,56.7-2.2,56.7-2.2v-82.5C609.9,601.3,590.4,603.1,572.6,602.7z"/>
	</g>
	<g class="st12">
		<path class="st1" d="M513.3,548.5c14.1,22.4,19,52.8,35.8,58c11.5,3.6,45.4,1.8,60.8,0.8v-5.9c0,0-43.9,3.9-60-1.3
			C538.5,596.3,533,567.5,513.3,548.5z"/>
	</g>
	<g>
		<path class="st2" d="M486.5,632.7l4.8,29.4c42.4,37.2,118.6,21.7,118.6,21.7v-31.5c-7.4-5.7-17.8-10.2-26.4-1.3
			c-24.2,25.1-44-1.5-63-33.6C510.1,600,496.6,615.2,486.5,632.7z"/>
	</g>
	<g>
		<path class="st7" d="M572.8,691.2c-26,0-60.1-4.8-84.2-26c-1.7-1.5-1.9-4.1-0.4-5.8c1.5-1.7,4.1-1.9,5.8-0.4
			c35.5,31.1,96.9,23.7,111.7,21.3v-74.5c-11.8,0.8-43.4,2.6-57.1-1.8c-7.3-2.4-11.8-11-17.5-21.8c-10.3-19.6-24.4-46.6-62-46.6
			c-2.3,0-4.1-1.8-4.1-4.1s1.8-4.1,4.1-4.1c42.6,0,58.7,30.7,69.3,51c4.4,8.5,8.6,16.5,12.7,17.8c15,4.9,57.9,1.1,58.3,1.1
			c1.2-0.1,2.3,0.3,3.1,1.1c0.9,0.8,1.3,1.9,1.3,3v82.5c0,2-1.4,3.6-3.3,4C609.3,688.1,593.6,691.2,572.8,691.2z"/>
	</g>
	<g>
		<g>
			<path class="st1" d="M583.7,656.2c1.2,9.3,8.4,16.6,21,22.9c9.8,4.9,16.5,13.6,24.7,19.6c2.4,1.8,5,3.4,7.8,4.5
				c7.5,3.1,20.9,5.4,24.3-4.2c3.3-8.9-4.2-13.6-9.8-17.7c-3.3-2.4-5.9-4.5-5.3-7.2c2.7,1.4,5.3,2.6,7.8,3.5c3,1,5.8,1.7,8.4,2
				c0,0,0,0,0,0h0c12.4,1.5,20.4-4.4,20.6-12.5c0.3-12.2-11.7-13.7-21.3-14.6c-2.9-0.3-5.5-0.5-7.5-0.9h0c-1.3-0.3-2.3-0.6-3-1.1
				c2.2-0.4,4.2-0.8,6.1-1.3h0c15.4-4.5,19.7-15.2,17.3-26.5c-2.3-10.9-11.5-16.2-19.3-16c-3.6,0.1-7,1.5-9,4.2c0,0,0,0,0,0
				c-0.1,0.1-0.1,0.2-0.2,0.2c0,0.1-0.1,0.1-0.1,0.1c0,0,0,0,0,0c-0.3,0.4-0.6,0.8-0.8,1.3c-3.6,7.2,2.9,11.4-1,15.6
				c-2.4,2.6-9.5,1.7-13.4-0.8c-5.8-3.8-8.2-11.1-4.7-14.1c4.2-3.6,11.4,2.9,17.7-1.5c0.1,0,0.1-0.1,0.2-0.1
				c0.3-0.2,0.5-0.4,0.8-0.6c0.1-0.1,0.2-0.1,0.2-0.2c2.6-2.4,4.1-7.5,2.6-12.6c-1.6-5.6-6.7-11.2-17.8-13.3
				c-12.8-2.5-20.2,5.2-25.3,13.3h0c-3.8,6-6.3,12.4-8.9,15.1c0,0-5.9,5.2-7.5,17.3c-5.2,9.9-4.5,18.4-4.5,18.4
				C583.4,651.4,583.4,653.9,583.7,656.2z"/>
		</g>
		<g class="st12">
			<path class="st1" d="M675.3,662.7c4,5.8-1.8,15.4-12.7,16.8c12.4,1.5,20.4-4.4,20.6-12.5c0.3-12.2-11.7-13.7-21.3-14.6
				c-2.9-0.3-5.5-0.5-7.5-0.9h0C655.8,658.5,670.2,655.4,675.3,662.7z"/>
		</g>
		<g class="st12">
			<path class="st1" d="M646.2,611c-0.4,0.3,13.5-3.1,19.8,6c11.6,16.7-8.6,32-8.6,32c15.4-4.5,19.7-15.2,17.3-26.5
				c-2.3-10.9-11.5-16.2-19.3-16c-3.6,0.1-7,1.5-9,4.2c0,0,0,0,0,0C646.3,610.9,646.2,611,646.2,611z"/>
		</g>
		<g class="st12">
			<path class="st1" d="M604.7,598c22.6-17.6,45.8,0,39.3,13.5c0,0,0,0,0,0c0.1,0,0.1-0.1,0.2-0.1c0.3-0.2,0.5-0.4,0.8-0.6
				c0.1-0.1,0.2-0.1,0.2-0.2c2.6-2.4,4.1-7.5,2.6-12.6c-1.6-5.6-6.7-11.2-17.8-13.3C617.2,582.2,609.8,589.8,604.7,598z"/>
		</g>
		<g>
			<path class="st2" d="M583.7,656.2c1.2,9.3,8.4,16.6,21,22.9c9.8,4.9,16.5,13.6,24.7,19.6c0.1-4.4,0.8-10.2,4-13.4
				c5.1-5.1,13.1-4.7,18.3-4c-3.3-2.4-5.9-4.5-5.3-7.2c2.7,1.4,5.3,2.6,7.8,3.5c-1.4-3.6-2.1-8.9-0.4-14.1c1.4-4.2,5.5-8.6,8.1-11.1
				c-4.6-0.4-8.7-0.7-10.5-2.1c2.2-0.4,4.2-0.8,6.1-1.3c-4-1.4-7.9-5.9-7.7-11c0.2-5.1,3.8-10.1,2.1-14.8c-2.1-5.7-2.6-9.2,3.7-16.7
				c-4.4,0.1-8.2,2.1-10.1,5.8c-3.6,7.2,2.9,11.4-1,15.6c-2.4,2.6-9.5,1.7-13.4-0.8c-5.8-3.8-8.2-11.1-4.7-14.1
				c4.5-3.8,12.3,3.7,18.9-2.4c2.6-2.4,4.1-7.5,2.6-12.6c-0.2,0.4-0.5,0.9-0.7,1.5c-4.3,12.7-15.3,1.1-23.7,6.4
				c-8.7,5.5-0.4,28.4-15.1,27.7c5.7,7.2,20-4,29.6,3.6c11,8.7,7.3,25.8,0.3,33.8c-10.9,12.3-19.3,3.4-35.3-0.6
				C592.6,667.8,586.6,660.9,583.7,656.2z"/>
		</g>
		<g>
			<path class="st7" d="M595.8,613.1c4.4-9.3,6-19.2,14-26.8c6.1-6.1,16-7.7,24.1-5.4c5.6,1.4,11,4.1,14.7,8.8
				c5,6.3,5.8,15.8,0.9,22.4c-3.1,4.2-9,5.8-13.9,4.7c-2.2-0.3-4.7-1.2-6.5-0.9c0,0-0.1,0.1-0.1,0.1c0,0-0.1,0.2-0.2,0.7
				c0,1.1,0.7,2.8,1.7,4.2c2.3,3.3,7.7,5,10.9,4c0.2-0.3,0.1-0.1,0.1-0.6c-0.7-3.1-2-6.9-1.1-10.3c2.6-12.5,17.8-14.5,27.2-8.5
				c12.8,7.5,15.9,27,6.3,38.2c-5.5,6.4-14.1,9.4-21.9,10.6l1.8-7.4c2.3,0.9,5.6,1,8.3,1.3c3.5,0.3,7.2,0.7,11.1,1.7
				c6.5,1.5,13,6.3,14,13.4c2.3,12.8-8.9,20.8-20.6,20.5c-8.1,0-15.5-2.7-22.1-6.2c0,0,6-2.8,6-2.8c0.1-0.1,0-0.4,0.1-0.3
				c0.7,0.9,1.9,1.8,3.3,2.7c3.6,2.5,8.4,5.5,11.1,9.9c3.5,5.4,2.8,12.7-1.1,17.8c-9.4,11.3-29.3,4.7-38.7-3.4
				c-7.1-5.8-12.2-12-19.4-16.9c-5.1-3.1-10.5-5.7-14.9-10c-7.2-6.4-11.2-17-6.8-26c0.7,12.1,8.3,19,18.5,24.4
				c2.6,1.4,5.4,2.5,7.9,4.1c7.7,4.4,14.2,11.7,20.7,16.7c4.2,3.2,8.4,5.5,13.6,6.5c4,0.7,8.6,1.3,11.4-1.6c1.4-1.8,2-4.7,0.7-6.8
				c-2.8-4.6-8.3-6.7-12.1-11.1c-1.7-1.8-3-4.9-2.3-7.7c0.4-2.2,2.5-3.7,4.7-3.2c0.4,0.1,0.9,0.2,1.2,0.4c5.8,3,12.1,5.2,18.2,5.2
				c5.2,0.1,11.3-2,12.4-7.2c0.4-2.2,0.1-5-1.2-6.7c-3.4-4.2-10.8-4.6-16.5-5.2c-4.3-0.6-8.2-0.3-12.3-2.8c-3-2-1.9-6.9,1.7-7.4
				c10.4-1.4,21.1-6.9,20.6-18.6c-0.1-5.9-2.7-12-7.9-15c-7.4-4.6-18-1.7-14.1,8.3c1.1,3.1,0.7,7.2-1.8,9.6
				c-1.8,2.1-5.1,2.9-7.3,2.9c-6.3,0.2-12.5-2.5-16.2-7.5c-6.9-8.7-2.9-20.8,9.4-18c2.8,0.4,5.4,1.4,7.9,0.2c2.7-1.6,3-5.3,2.4-8.2
				c-1-5.4-6.8-9-12.1-10.5c-6-1.8-11.9-1.6-17.2,2.2c-3.4,2.5-6.5,6-9.3,9.8C602.2,605.4,599.7,610,595.8,613.1L595.8,613.1z"/>
		</g>
		<g>
			<path class="st7" d="M645.9,640.2c11.5,12.2,7.7,32.9-8.3,39.1c-7.6,2.5-3.2,0.4-0.3-3.1C647.5,665.9,648.3,654,645.9,640.2
				L645.9,640.2z"/>
		</g>
	</g>
	<g>
		<path class="st10" d="M357.3,662.1c-42.4,37.2-118.6,21.7-118.6,21.7v-82.5c0,0,43.9,3.9,60-1.3c17.2-5.6,21-68.6,80.8-68.6"/>
	</g>
	<g>
		<path class="st10" d="M379.4,531.5l-22.2,130.6c-42.4,37.2-118.6,21.7-118.6,21.7v-82.5c0,0,43.9,3.9,60-1.3
			c11.4-3.7,16.9-32.5,36.6-51.6v0c1.1-1.1,2.2-2.1,3.4-3.1c9.6-8,22.3-13.7,39.9-13.9C378.9,531.5,379.2,531.5,379.4,531.5z"/>
	</g>
	<g>
		<path class="st1" d="M273.3,602.7c-17,0.2-34.6-1.4-34.6-1.4v82.5c0,0,18.3,3.7,42,3.1C290.8,659.2,290.5,628.6,273.3,602.7z"/>
		<path class="st2" d="M303,626.6c-3.9-11.1-12.7-19.5-23-24c-2.2,0.1-4.4,0.1-6.6,0.2c17.2,25.8,17.4,56.5,7.4,84.2
			c4.2-0.1,8.6-0.3,13.1-0.8C304.5,668,309.8,647.9,303,626.6z"/>
		<path class="st11" d="M329.8,554.5c-15.4,18.6-20.9,42.2-31.1,45.6c-4.5,1.5-11.3,2.2-18.7,2.5c10.3,4.5,19.1,12.9,23,24
			c6.8,21.3,1.5,41.4-9.2,59.6c21.7-2.1,45.6-8.4,63.5-24.1l16.5-97.1c-8.6-1.1-17.6-1.5-26.1-4.3
			C341.7,558.6,335.7,556.5,329.8,554.5z"/>
		<path class="st8" d="M379.4,531.5c-0.3,0-0.5,0-0.8,0c-17.6,0.2-30.3,5.9-39.9,13.9c0,0-0.1,0.1-0.1,0.1c-1.2,1-2.2,2-3.3,3v0
			c-2,1.9-3.8,3.9-5.5,6c6,2.1,11.9,4.2,17.9,6.3c8.4,2.8,17.5,3.2,26.1,4.3l1.4-8.1L379.4,531.5z"/>
	</g>
	<g class="st12">
		<path class="st1" d="M335.3,548.5c-14.1,22.4-19,52.8-35.8,58c-11.5,3.6-45.4,1.8-60.8,0.8v-5.9c0,0,43.9,3.9,60-1.3
			C310.1,596.3,315.6,567.5,335.3,548.5z"/>
	</g>
	<g>
		<path class="st2" d="M362.1,632.7l-4.8,29.4c-42.4,37.2-118.6,21.7-118.6,21.7v-31.5c7.4-5.7,17.8-10.2,26.4-1.3
			c24.2,25.1,44-1.5,63-33.6C338.5,600,351.9,615.2,362.1,632.7z"/>
	</g>
	<g>
		<path class="st7" d="M275.8,691.2c-20.8,0-36.5-3.1-37.9-3.4c-1.9-0.4-3.3-2.1-3.3-4v-82.5c0-1.2,0.5-2.3,1.3-3
			c0.9-0.8,2-1.2,3.1-1.1c0.4,0,43.3,3.7,58.3-1.1c4-1.3,8.2-9.3,12.7-17.8c10.6-20.3,26.7-51,69.3-51c2.3,0,4.1,1.8,4.1,4.1
			s-1.8,4.1-4.1,4.1c-37.6,0-51.7,26.9-62,46.6c-5.7,10.9-10.2,19.5-17.4,21.8c-13.7,4.4-45.3,2.7-57.1,1.8v74.5
			c14.9,2.4,76.3,9.8,111.7-21.3c1.7-1.5,4.3-1.3,5.8,0.4c1.5,1.7,1.3,4.3-0.4,5.8C335.9,686.4,301.8,691.2,275.8,691.2z"/>
	</g>
	<g>
		<path class="st1" d="M528.5,718.4c-27,38.6-104.2,35.4-104.2,35.4s-1.5,0.1-4.1,0.1c-16.3,0-76.8-2.3-100.1-35.5
			c-23.4-33.4-12.5-73.6,3.3-102.7c1.4-2.5,2.8-5,4.2-7.3c5.8-9.6,10.8-28.7,23.5-52.2l73.2-69.5l73.2,69.5
			c12.7,23.5,17.7,42.5,23.5,52.2c1.4,2.4,2.8,4.8,4.2,7.3C541,644.8,551.9,685,528.5,718.4z"/>
	</g>
	<g>
		<path class="st8" d="M350.6,555.8c-1,1.9-2,3.8-2.9,5.6c11.4,1.9,22.7,3.3,34,4.3c-4.9-8.7-9.2-17.8-12.9-27.1L350.6,555.8z"/>
		<path class="st11" d="M327,608.3c-0.2,0.4-0.4,0.7-0.6,1.1c8.9-2.6,17.7-6.1,26.2-10.4c12.8-6,25.5-12.2,38.2-18.6
			c-3.2-4.7-6.2-9.6-9-14.6c-11.3-1-22.6-2.4-34-4.3C337,582.4,332.4,599.4,327,608.3z"/>
		<path class="st13" d="M368.8,538.6c5.9,14.6,13.1,28.7,21.9,41.7c5.2-2.6,10.3-5.3,15.4-8c-9.5-14.6-17.5-30.1-23.9-46.4
			L368.8,538.6z"/>
		<path class="st2" d="M424.3,485.9l-42.1,40c6.4,16.3,14.5,31.8,23.9,46.4c23.1-12.3,45.8-25.3,67.8-39.3L424.3,485.9z"/>
		<path class="st8" d="M537.1,641.7c-53.6,45.3-118.3,75.9-190.3,82.4c-7.4,0.6-14.8,1-22.2,1.2c26.2,27.4,80.2,29.4,95.5,29.4
			c2.7,0,4.1-0.1,4.1-0.1s77.6,3.1,104.8-35.7c11.9-16.9,15-35.6,13.1-53.7C541.4,657.2,539.6,649.3,537.1,641.7z"/>
		<path class="st11" d="M521.6,608.3c-5.4-8.9-10.1-25.9-20.7-46.9c-17.9,2.9-36,4.8-54.2,5.7c-42.4,25.7-87.3,47.5-132.7,67.8
			c-3.7,9.7-6.5,19.9-7.6,30.4c-0.1,1.1-0.2,2.1-0.3,3.2c4.9,4,10,7.7,15.6,11c30.9,17.1,65.8,16.3,100,10.6
			c22.3-3.3,44.2-7.4,65.8-12.6c17.4-10.5,34.1-22.4,49.7-35.7c-3-9.3-7-18.1-11.3-26C524.4,613.1,523,610.6,521.6,608.3z"/>
		<path class="st8" d="M498,555.8l-13.8-13.1c-12.3,8.5-24.8,16.6-37.5,24.3c18.2-0.9,36.3-2.8,54.2-5.7
			C499.9,559.5,499,557.7,498,555.8z"/>
		<path class="st8" d="M421.6,690c-34.1,5.7-69.1,6.5-100-10.6c-5.5-3.3-10.7-7-15.6-11c-1.2,17.1,2.2,34.6,13.4,50.6
			c1.6,2.2,3.3,4.3,5.2,6.3c7.4-0.2,14.8-0.6,22.2-1.2c50.9-4.6,98.3-21.3,140.6-46.7C465.9,682.5,443.9,686.7,421.6,690z"/>
		<g>
			<path class="st14" d="M473.9,533c-38.9,24.6-79.6,46.4-121.4,66c-8.5,4.3-17.2,7.8-26.2,10.4c-1.2,2-2.4,4.1-3.6,6.3
				c-3.2,6-6.3,12.4-8.9,19.2c59.1-26.4,123.5-59.1,176.5-96L473.9,533z"/>
			<path class="st7" d="M473.9,533c-11.5,7.8-23.1,15.3-35,22.5l-8.9,5.4l-9,5.2c-6,3.4-12.1,6.9-18.2,10.2
				c-12.2,6.6-24.5,13.1-37,19.2c-3.1,1.5-6.2,3-9.4,4.5c-1.6,0.7-3.1,1.5-4.7,2.3c-1.6,0.8-3.2,1.5-4.8,2.3c-6.4,3-13,5.5-19.8,7.5
				l1.6-1.2l-3.5,6.1c-1.1,2-2.2,4.1-3.2,6.2c-2,4.2-3.9,8.5-5.5,12.8l-3.8-3.6c15.3-6.9,30.5-13.8,45.6-21.1
				c15.1-7.2,30.1-14.7,44.9-22.4c14.9-7.7,29.5-15.8,44-24.1l10.8-6.4l10.8-6.5l10.7-6.6l10.6-6.8l0.1,1L473.9,533z M473.9,533
				l16.7,5.3c0.3,0.1,0.4,0.4,0.3,0.7c0,0.1-0.1,0.2-0.2,0.3l0,0l-10.2,7.4l-10.4,7.1l-10.5,7l-10.6,6.7
				c-14.2,8.9-28.8,17.3-43.5,25.4c-14.8,8-29.7,15.8-44.8,23.2c-15.1,7.4-30.3,14.5-45.6,21.3l0,0c-1.4,0.6-3.1,0-3.7-1.4
				c-0.3-0.7-0.3-1.5-0.1-2.2c1.7-4.5,3.7-8.9,5.8-13.2c1.1-2.2,2.2-4.3,3.3-6.4l3.6-6.2c0.4-0.6,0.9-1,1.6-1.2l0,0
				c6.5-1.9,12.9-4.2,19.2-7c1.6-0.7,3.1-1.4,4.7-2.1c1.6-0.8,3.1-1.5,4.7-2.2c3.2-1.5,6.3-2.9,9.4-4.4c6.3-2.9,12.5-5.9,18.7-8.9
				c6.2-3,12.4-6.1,18.6-9.2c12.4-6.2,24.6-12.7,36.8-19.3C449.9,546.8,461.9,540,473.9,533z"/>
		</g>
	</g>
	<g>
		<path class="st7" d="M498,555.8c11.8,13.9,18.3,31.6,25.8,47.7c3,5.3,6.3,10.4,8.9,15.8c17.7,33.7,23.1,76.9-3.5,107.7
			c-24.4,27-70.6,32.9-105.1,31.8c0,0,0.2-8.4,0.2-8.4c0,0,0.2,8.4,0.2,8.4c-34.5,1.1-80.8-4.8-105.1-31.8
			c-26.6-31.1-21.1-73.6-3.4-107.6c4-8.1,9.3-15.3,12.8-23.7c6.1-13.8,12.7-27.9,21.9-39.9c-3.1,8.5-9,25.6-11.9,34.2
			c-2.2,6.4-4.4,13.2-7.8,19.4c-1,2-2.3,3.9-3.3,5.9c-17.8,32-26.6,74.9-0.7,104.9c22.1,24.2,65.7,29.7,97.2,30.2
			c0,0,0.2,8.4,0.2,8.4c0,0,0.2-8.4,0.2-8.4c11.7,0,23.7-1,35.3-2.8c27.6-4.4,58.6-14.3,71-41.3c7.5-15.5,8.7-33,5.3-49.9
			c-3.1-16.4-10-32.3-18.6-46.8c-3.4-6.3-5.8-13-8-19.4C505.5,578.8,501.6,567.5,498,555.8L498,555.8z"/>
	</g>
	<g>
		<g>
			<path class="st1" d="M264.9,656.2c-1.2,9.3-8.4,16.6-21,22.9c-9.8,4.9-16.5,13.6-24.7,19.6c-2.4,1.8-5,3.4-7.8,4.5
				c-7.5,3.1-20.9,5.4-24.3-4.2c-3.3-8.9,4.2-13.6,9.8-17.7c3.3-2.4,5.9-4.5,5.3-7.2c-2.7,1.4-5.3,2.6-7.8,3.5c-3,1-5.8,1.7-8.4,2
				c0,0,0,0,0,0h0c-12.4,1.5-20.4-4.4-20.6-12.5c-0.3-12.2,11.7-13.7,21.3-14.6c2.9-0.3,5.5-0.5,7.5-0.9h0c1.3-0.3,2.3-0.6,3-1.1
				c-2.2-0.4-4.2-0.8-6.1-1.3h0c-15.4-4.5-19.7-15.2-17.3-26.5c2.3-10.9,11.5-16.2,19.3-16c3.6,0.1,7,1.5,9,4.2c0,0,0,0,0,0
				c0.1,0.1,0.1,0.2,0.2,0.2c0,0.1,0.1,0.1,0.1,0.1c0,0,0,0,0,0c0.3,0.4,0.6,0.8,0.8,1.3c3.6,7.2-2.9,11.4,1,15.6
				c2.4,2.6,9.5,1.7,13.4-0.8c5.8-3.8,8.2-11.1,4.7-14.1c-4.2-3.6-11.4,2.9-17.7-1.5c-0.1,0-0.1-0.1-0.2-0.1
				c-0.3-0.2-0.5-0.4-0.8-0.6c-0.1-0.1-0.2-0.1-0.2-0.2c-2.6-2.4-4.1-7.5-2.6-12.6c1.6-5.6,6.7-11.2,17.8-13.3
				c12.8-2.5,20.2,5.2,25.3,13.3h0c3.8,6,6.3,12.4,8.9,15.1c0,0,5.9,5.2,7.5,17.3c5.2,9.9,4.5,18.4,4.5,18.4
				C265.2,651.4,265.2,653.9,264.9,656.2z"/>
		</g>
		<g class="st12">
			<path class="st1" d="M173.3,662.7c-4,5.8,1.8,15.4,12.7,16.8c-12.4,1.5-20.4-4.4-20.6-12.5c-0.3-12.2,11.7-13.7,21.3-14.6
				c2.9-0.3,5.5-0.5,7.5-0.9h0C192.8,658.5,178.4,655.4,173.3,662.7z"/>
		</g>
		<g class="st12">
			<path class="st1" d="M202.4,611c0.4,0.3-13.5-3.1-19.8,6c-11.6,16.7,8.6,32,8.6,32c-15.4-4.5-19.7-15.2-17.3-26.5
				c2.3-10.9,11.5-16.2,19.3-16c3.6,0.1,7,1.5,9,4.2c0,0,0,0,0,0C202.3,610.9,202.4,611,202.4,611z"/>
		</g>
		<g class="st12">
			<path class="st1" d="M243.9,598c-22.6-17.6-45.8,0-39.3,13.5c0,0,0,0,0,0c-0.1,0-0.1-0.1-0.2-0.1c-0.3-0.2-0.5-0.4-0.8-0.6
				c-0.1-0.1-0.2-0.1-0.2-0.2c-2.6-2.4-4.1-7.5-2.6-12.6c1.6-5.6,6.7-11.2,17.8-13.3C231.4,582.2,238.8,589.8,243.9,598z"/>
		</g>
		<g>
			<path class="st2" d="M264.9,656.2c-1.2,9.3-8.4,16.6-21,22.9c-9.8,4.9-16.5,13.6-24.7,19.6c-0.1-4.4-0.8-10.2-4-13.4
				c-5.1-5.1-13.1-4.7-18.3-4c3.3-2.4,5.9-4.5,5.3-7.2c-2.7,1.4-5.3,2.6-7.8,3.5c1.4-3.6,2.1-8.9,0.4-14.1
				c-1.4-4.2-5.5-8.6-8.1-11.1c4.6-0.4,8.7-0.7,10.5-2.1c-2.2-0.4-4.2-0.8-6.1-1.3c4-1.4,7.9-5.9,7.7-11s-3.8-10.1-2.1-14.8
				c2.1-5.7,2.6-9.2-3.7-16.7c4.4,0.1,8.2,2.1,10.1,5.8c3.6,7.2-2.9,11.4,1,15.6c2.4,2.6,9.5,1.7,13.4-0.8
				c5.8-3.8,8.2-11.1,4.7-14.1c-4.5-3.8-12.3,3.7-18.9-2.4c-2.6-2.4-4.1-7.5-2.6-12.6c0.2,0.4,0.5,0.9,0.7,1.5
				c4.3,12.7,15.3,1.1,23.7,6.4c8.7,5.5,0.4,28.4,15.1,27.7c-5.7,7.2-20-4-29.6,3.6c-11,8.7-7.3,25.8-0.3,33.8
				c10.9,12.3,19.3,3.4,35.3-0.6C256,667.8,262,660.9,264.9,656.2z"/>
		</g>
		<g>
			<path class="st7" d="M252.8,613.1c-3.9-3.1-6.3-7.7-9.3-11.4c-2.8-3.8-5.9-7.4-9.3-9.8c-5.2-3.8-11.2-4.1-17.2-2.2
				c-5.4,1.4-11.1,5-12.1,10.5c-1,5,1,9.9,6.8,8.7c2.7-0.4,5-1.3,8.3-1c4.5,0.3,8.2,4.7,8,9.1c-0.3,6.7-4.7,12.2-10.7,15
				c-5,2-11.7,3.1-16.2-1.2c-1.8-1.8-2.7-4.9-2.3-7.3c0.5-3.3,2.3-6.2,0.7-9.2c-2.7-4.9-9.7-4.2-14.3-1.5c-5.2,3-7.8,9.1-7.9,15
				c-0.5,11.6,10.2,17.1,20.6,18.6c3.6,0.5,4.7,5.5,1.7,7.4c-4,2.5-8,2.2-12.3,2.8c-5.6,0.6-13,1-16.5,5.2c-1.3,1.8-1.7,4.5-1.2,6.7
				c1.2,5.2,7.2,7.3,12.4,7.2c6.1,0,12.5-2.2,18.3-5.3c2.4-1.3,5.4,0.2,5.9,2.8c0.7,2.7-0.6,5.9-2.3,7.7c-3.8,4.4-9.3,6.6-12.1,11.1
				c-1.3,2.1-0.7,5,0.7,6.8c2.9,2.9,7.4,2.2,11.4,1.6c5.1-1.1,9.4-3.3,13.6-6.5c6.5-5,13.1-12.3,20.7-16.7c2.5-1.5,5.3-2.6,7.9-4.1
				c10.2-5.4,17.8-12.3,18.5-24.4c4.4,9,0.4,19.6-6.8,26c-4.4,4.3-9.8,6.8-14.9,10c-7.2,4.8-12.2,11.1-19.4,16.9
				c-9.4,8.1-29.2,14.6-38.7,3.4c-4-5.1-4.6-12.4-1.1-17.8c2.6-4.3,7.4-7.4,11.1-9.9c1.3-0.9,2.5-1.8,3.3-2.7c0,0,0,0.2,0.1,0.3
				c0,0,6,2.8,6,2.8c-6.6,3.4-14,6.1-22.1,6.2c-11.6,0.3-22.8-7.7-20.6-20.5c1.8-11.9,15.2-14.4,25.1-15.1c2.7-0.3,6-0.4,8.3-1.3
				l1.8,7.4c-7.8-1.2-16.4-4.2-21.9-10.6c-9.6-11.2-6.5-30.7,6.3-38.2c9.4-6,24.5-4,27.2,8.5c0.9,3.5-0.4,7.3-1.1,10.3
				c0,0.5-0.1,0.3,0.1,0.6c3.1,1.1,8.6-0.6,10.9-4c1.2-1.6,2.1-3.6,1.6-4.9c-0.1-0.1-0.1-0.1-0.5-0.1c-3.3,0.1-7.1,1.7-10.8,1.2
				c-5.3-0.3-10.2-4.5-11.6-9.5c-3.2-9.1,1.9-19.4,10.1-23.7c7.5-4,16.6-5.6,24.7-2.3c7.7,3.1,12.8,10.8,15.7,17.8
				C249.4,604,250.4,608.7,252.8,613.1L252.8,613.1z"/>
		</g>
		<g>
			<path class="st7" d="M202.6,640.2c-2.4,13.8-1.5,25.6,8.7,35.9c1.3,1.6,2.8,2.8,4.2,4.4c-1-0.2-2-0.5-3-0.8
				C195.4,674.6,190.7,652.9,202.6,640.2L202.6,640.2z"/>
		</g>
	</g>
	<g>
		<path class="st15" d="M387.3,772c0,1.4,0.1,2.7,0.2,4c3.5,32.5,48.9,35.2,65.1,35.2c23.3,0,110.5-8,135.6-67.9
			c6.9-16.6,6-33.4-0.2-46.8v0c-4.3-9.4-11.3-17.1-19.9-21.7c-13.5-7.3-31.2-7-49.3,5.9l4.8,3.3c-0.4,0.2-0.8,0.3-1.1,0.5
			c-39.9,16.9-46.8,34-80.3,46.7c-34.1-3.1-50.2,5-54,28.3c0,0,0,0,0,0C387.6,763.3,387.3,767.5,387.3,772z"/>
	</g>
	<g>
		<path class="st11" d="M578.3,682.5c-3-3-6.4-5.6-10.1-7.6c-13.5-7.3-31.2-7-49.3,5.9l4.8,3.3c-0.4,0.2-0.8,0.3-1.1,0.5
			c-32,13.6-42.8,27.2-63.1,38.7c21.2,1.1,42.4,3.3,63.2,7c9.3-5.2,18.5-11,27.3-17.6C561.3,703.6,573.2,695.6,578.3,682.5z"/>
		<path class="st8" d="M588,696.6L588,696.6c-2.5-5.4-5.8-10.1-9.7-14.1c-5.1,13.1-17,21.1-28.3,30.2c-8.9,6.6-18,12.4-27.3,17.6
			c21.8,3.9,43.2,9.3,64,16.5c0.5-1.1,1.1-2.3,1.6-3.5C595.2,726.8,594.2,709.9,588,696.6z"/>
		<path class="st2" d="M586.7,746.8c-40.6-14.2-83.7-21.4-127.2-23.6c-3.4,1.9-7.1,3.8-11.1,5.6c-0.5,0.2-0.9,0.4-1.4,0.6
			c43.1,11.2,87.8,18.8,130.1,32.9C580.7,757.6,584,752.5,586.7,746.8z"/>
		<path class="st1" d="M447,729.4c-1.5,0.6-3,1.3-4.7,1.9c-34.1-3.1-50.2,5-54,28.3c0,0,0,0,0,0c-0.6,3.7-0.9,7.8-0.9,12.4
			c0,1.4,0.1,2.7,0.2,4c3.5,32.5,48.9,35.2,65.1,35.2c3.2,0,7.6-0.2,13-0.6c28.7-2.3,83.2-12.3,111.4-48.3
			C534.8,748.3,490.1,740.6,447,729.4z"/>
	</g>
	<g>
		<path class="st1" d="M387.3,772c0,1.4,0.1,2.7,0.2,4c3.5,32.5,48.9,35.2,65.1,35.2c3.2,0,7.6-0.2,13-0.6
			c-24.5-24.9-30.9-46.8-17.3-81.8c-1.9,0.8-3.9,1.7-6.1,2.5c-34.1-3.1-50.2,5-54,28.3c0,0,0,0,0,0
			C387.6,763.3,387.3,767.5,387.3,772z"/>
	</g>
	<g>
		<path class="st2" d="M575.4,745.3c-9.4,15.7-24.9,29.2-49.1,38.9c-55.7,22.3-84.4-5.4-85.6-32.5c-7,7.7,1.8,33.5-10,41
			c-8,5.1-34.2,2.1-43.2-16.8c3.5,32.5,48.9,35.2,65.1,35.2c22.6,0,105.1-7.5,133-62.4C582.2,747.7,578.8,746.5,575.4,745.3z"/>
	</g>
	<g>
		<path class="st2" d="M387.6,776c3.5,32.5,48.9,35.2,65.1,35.2c0.6,0,1.3,0,1.9,0c0.2,0,0.5,0,0.7,0c0.6,0,1.1,0,1.7-0.1
			c0.4,0,0.9,0,1.3-0.1c2.2-0.1,4.6-0.2,7.3-0.4c-17-17.3-25.3-33.1-24.2-52.9c-0.4-2-0.6-4-0.7-6c-7,7.7,1.8,33.5-10,41
			C422.7,797.9,396.6,794.9,387.6,776z"/>
	</g>
	<g>
		<path class="st2" d="M387.6,776c3.5,32.5,48.9,35.2,65.1,35.2c0.6,0,1.3,0,1.9,0c0.2,0,0.5,0,0.7,0c0.6,0,1.1,0,1.7-0.1
			c0.4,0,0.9,0,1.3-0.1c2.2-0.1,4.6-0.2,7.3-0.4c-17-17.3-25.3-33.1-24.2-52.9c-0.4-2-0.6-4-0.7-6c-7,7.7,1.8,33.5-10,41
			C422.7,797.9,396.6,794.9,387.6,776z"/>
	</g>
	<g>
		<g>
			<path class="st7" d="M523.7,684.1c-11.9,7.1-23.2,14.4-34,22.9c-7.8,6-15.6,12.4-24,17.7c-6.9,4.4-14.3,8-21.9,10.8
				c-0.7,0.3-1.4,0.3-2,0.3c-13.2-1-27.5-2.2-38.8,5.1c-10.9,7.5-12.1,22.6-11.4,34.9c1.9,18.7,21.4,26.6,38,29.4
				c18.3,3.3,37.1,1.9,55.4-1.2c35.5-6.2,73.7-20.3,93.5-52.2c4.6-7.6,8.1-16,9.3-24.8c2.6-17.1-3.8-36.2-18.1-46.3
				c-15.2-11.2-34.6-8.4-50.9,0.1c6.8-6.7,15.8-11.9,25.9-13.5c33.9-5.2,57.1,30.1,52.3,61c-2,15.1-9.5,29.1-19.4,40.5
				c-23.1,26-57.8,37.8-91.2,43.5c-27.6,4.3-61.9,6.1-86.5-9.3c-8.9-5.6-15.6-15.6-16.6-26.3c-0.8-10.2,0.1-20.8,4.4-30.2
				c7.1-15.6,24.4-20,40-20.2c5-0.1,9.9,0.1,14.7,0.5l-2,0.3c7.1-2.7,13.9-6,20.5-9.9c7.7-4.6,16.8-11.2,24.4-16.1
				C497.3,693.5,510.2,687.5,523.7,684.1L523.7,684.1z"/>
		</g>
	</g>
	<g>
		<path class="st16" d="M421.3,750.4c-9.2-0.7-18.7-0.5-27.6,2.2c-0.4,0.1-1.1,0.3-1.4,0.5l-2-8
			C400.8,744.2,411.4,746.9,421.3,750.4L421.3,750.4z"/>
	</g>
	<g>
		<path class="st16" d="M417.4,777.1c-5.2,0.4-10.7,0.6-15.9,0.1c-5.6-0.6-11.5-1.4-16.6-4.1c0,0,4.9-6.6,4.9-6.6
			c0.6,0.7,1.7,1.4,2.5,1.9C399.8,773.1,408.7,775.5,417.4,777.1L417.4,777.1z"/>
	</g>
	<g>
		<path class="st16" d="M445.8,782.6c-11.5-8.5-13.1-28-2.3-37.6c-0.4,3.5-0.9,6.7-1.1,9.8C441.7,764.3,443.6,773.1,445.8,782.6
			L445.8,782.6z"/>
	</g>
	<g>
		<path class="st15" d="M460.8,772c0,1.4-0.1,2.7-0.2,4c-3.5,32.5-48.9,35.2-65.1,35.2c-23.3,0-110.5-8-135.6-67.9
			c-6.9-16.6-6-33.4,0.2-46.8v0c4.3-9.4,11.3-17.1,19.9-21.7c13.5-7.3,31.2-7,49.3,5.9l-4.8,3.3c0.4,0.2,0.8,0.3,1.1,0.5
			c39.9,16.9,46.8,34,80.3,46.7c34.1-3.1,50.2,5,54,28.3c0,0,0,0,0,0C460.5,763.3,460.8,767.5,460.8,772z"/>
	</g>
	<g>
		<path class="st8" d="M268,684.4c-3.2,3.6-5.9,7.7-8,12.2v0c-6.2,13.3-7.1,30.2-0.2,46.8c1.9,4.4,4,8.5,6.5,12.4
			c15.5-7.8,31.5-14.8,48.1-20.7C293.5,724.2,273,706.9,268,684.4z"/>
		<path class="st11" d="M380.6,718.4c-15.7-10.3-27.6-22.1-55.1-33.8c-0.4-0.2-0.8-0.3-1.1-0.5l4.8-3.3
			c-18.1-12.9-35.7-13.2-49.3-5.9c-4.5,2.4-8.5,5.6-11.9,9.5c5,22.5,25.4,39.8,46.5,50.7c17.7-6.3,36-11.4,55.1-15.1
			C373.3,719.3,377,718.7,380.6,718.4z"/>
		<path class="st2" d="M399.8,728.8c-7.5-3.3-13.5-6.8-19.1-10.5c-3.7,0.4-7.3,0.9-11,1.7c-37.1,7.1-71.2,19.6-103.2,35.7
			c2.9,4.5,6.1,8.6,9.7,12.4c41.1-14.9,83.4-27.1,125.6-38.5C401.1,729.4,400.4,729.1,399.8,728.8z"/>
		<path class="st1" d="M459.9,759.6C459.9,759.6,459.9,759.6,459.9,759.6c-3.8-23.3-19.9-31.4-54.1-28.3c-1.4-0.5-2.8-1.1-4.1-1.6
			c-42.3,11.4-84.6,23.6-125.6,38.5c29.3,31.3,79.4,40.4,106.4,42.5c5.3,0.4,9.8,0.6,13,0.6c16.2,0,61.6-2.7,65.1-35.2
			c0.1-1.3,0.2-2.6,0.2-4C460.8,767.5,460.5,763.3,459.9,759.6z"/>
	</g>
	<g>
		<path class="st1" d="M460.8,772c0,1.4-0.1,2.7-0.2,4c-3.5,32.5-48.9,35.2-65.1,35.2c-3.2,0-7.6-0.2-13-0.6
			c24.5-24.9,30.9-46.8,17.3-81.8c1.9,0.8,3.9,1.7,6.1,2.5c34.1-3.1,50.2,5,54,28.3c0,0,0,0,0,0C460.5,763.3,460.8,767.5,460.8,772z
			"/>
	</g>
	<g>
		<path class="st2" d="M417.4,792.8c-11.8-7.5-3-33.3-10-41c-1.2,27.1-29.8,54.7-85.6,32.5c-23.3-9.3-38.4-22.1-47.9-37
			c-3.4,1.4-6.6,3.1-9.7,4.9c29.5,51.9,109.2,59.1,131.3,59.1c16.2,0,61.6-2.7,65.1-35.2C451.5,794.9,425.4,797.9,417.4,792.8z"/>
	</g>
	<g>
		<path class="st2" d="M460.6,776c-3.5,32.5-48.9,35.2-65.1,35.2c-0.6,0-1.3,0-1.9,0c-0.2,0-0.5,0-0.7,0c-0.6,0-1.1,0-1.7-0.1
			c-0.4,0-0.9,0-1.3-0.1c-2.2-0.1-4.6-0.2-7.3-0.4c17-17.3,25.3-33.1,24.2-52.9c0.4-2,0.6-4,0.7-6c7,7.7-1.8,33.5,10,41
			C425.4,797.9,451.5,794.9,460.6,776z"/>
	</g>
	<g>
		<path class="st2" d="M460.6,776c-3.5,32.5-48.9,35.2-65.1,35.2c-0.6,0-1.3,0-1.9,0c-0.2,0-0.5,0-0.7,0c-0.6,0-1.1,0-1.7-0.1
			c-0.4,0-0.9,0-1.3-0.1c-2.2-0.1-4.6-0.2-7.3-0.4c17-17.3,25.3-33.1,24.2-52.9c0.4-2,0.6-4,0.7-6c7,7.7-1.8,33.5,10,41
			C425.4,797.9,451.5,794.9,460.6,776z"/>
	</g>
	<g>
		<g>
			<path class="st7" d="M324.4,684.1c13.5,3.4,26.4,9.4,38.2,16.9c7.6,4.9,16.7,11.5,24.4,16.1c6.5,3.9,13.4,7.2,20.5,9.9l-2-0.3
				c4.9-0.4,9.8-0.6,14.7-0.5c15.6,0.2,33,4.6,40,20.2c4.3,9.4,5.2,20,4.4,30.2c-0.9,10.6-7.7,20.6-16.6,26.3
				c-24.6,15.4-58.9,13.7-86.5,9.3c-33.4-5.7-68.1-17.5-91.2-43.5c-9.9-11.4-17.4-25.4-19.4-40.5c-4.8-30.9,18.4-66.2,52.3-61
				c10.1,1.6,19.1,6.8,25.9,13.5c-16.2-8.5-35.7-11.3-50.9-0.1c-14.3,10.2-20.7,29.2-18.1,46.3c1.2,8.8,4.7,17.2,9.3,24.8
				c19.8,31.9,58,46,93.5,52.2c18.3,3.1,37.1,4.5,55.4,1.2c17.9-3,38.3-11.9,38.2-32.6c0-11.4-1.5-24.9-11.6-31.7
				c-11.3-7.2-25.5-6.1-38.8-5.1c-0.7,0.1-1.4,0-2-0.3c-7.6-2.9-15-6.5-21.9-10.8c-8.4-5.3-16.2-11.7-24-17.7
				C347.6,698.5,336.3,691.2,324.4,684.1L324.4,684.1z"/>
		</g>
	</g>
	<g>
		<path class="st7" d="M426.8,750.4c9.9-3.5,20.5-6.2,31-5.3l-2,8c-0.3-0.2-1-0.4-1.4-0.5C445.6,749.9,436,749.7,426.8,750.4
			L426.8,750.4z"/>
	</g>
	<g>
		<path class="st7" d="M430.7,777.1c8.7-1.6,17.6-4,25.1-8.7c0.8-0.5,1.9-1.2,2.5-1.9l4.9,6.6c-5.1,2.7-11,3.6-16.6,4.1
			C441.5,777.7,435.9,777.5,430.7,777.1L430.7,777.1z"/>
	</g>
	<g>
		<path class="st7" d="M402.3,782.6c2.2-9.4,4.1-18.2,3.4-27.9c-0.2-3.1-0.7-6.2-1.1-9.8C415.5,754.5,413.8,774.1,402.3,782.6
			L402.3,782.6z"/>
	</g>
</g>
<g id="圖層_1">
	<g>
		<path class="st7" d="M569.5,603.4c-1.3,0.8-2,1.9-2.7,2.9c-0.7,1.1-1.3,2.1-1.9,3.3c-1.2,2.2-2.3,4.5-3.4,6.7
			c-1.1,2.2-2.3,4.5-3.5,6.7l-3.6,6.4c-2.4,4.3-4.8,8.5-7.4,12.9c-2.7,4.3-5.3,8.7-8.8,13.6c-1.2-2.8-1.7-5.7-2-8.6
			c-0.2-2.9,0-5.8,0.4-8.6c0.9-5.7,2.8-11.1,5.6-16.1c1.4-2.6,3-4.8,4.8-7c1.8-2.2,3.7-4.3,5.9-6.1c2.2-1.9,4.6-3.6,7.4-4.9
			c1.4-0.6,2.9-1.2,4.5-1.5c0.8-0.2,1.6-0.2,2.4-0.2C568.1,602.9,568.9,603,569.5,603.4z"/>
	</g>
	<g>
		<path class="st7" d="M301.9,660.5c0.3-1.5,0.1-2.7-0.1-4c-0.3-1.2-0.6-2.4-1-3.6c-0.7-2.4-1.6-4.8-2.3-7.1
			c-0.8-2.4-1.5-4.8-2.3-7.2l-2-7.1c-1.3-4.7-2.6-9.4-3.9-14.3c-1.2-5-2.4-9.9-3.4-15.9c2.9,1.1,5.3,2.8,7.5,4.7
			c2.2,1.9,4.1,4.1,5.8,6.4c3.4,4.6,5.8,9.8,7.4,15.3c0.8,2.8,1.3,5.6,1.6,8.4c0.3,2.8,0.4,5.6,0.2,8.5c-0.2,2.9-0.7,5.8-1.8,8.7
			c-0.5,1.4-1.2,2.9-2.1,4.2c-0.4,0.7-1,1.3-1.6,1.8C303.4,659.9,302.7,660.3,301.9,660.5z"/>
	</g>
	<g>
		<path class="st7" d="M459.6,725.7c-0.7,0.1-1.3,0.1-2,0.2l0.2-1c2.8-0.2,5.4-0.8,8.2-1.4c1.4-0.3,2.8-0.6,4.2-0.7
			c0.7-0.1,1.5-0.2,2.2-0.3c0.7-0.1,1.4-0.1,2.1-0.2c5.6-0.5,11.3-0.7,17-0.7c11.3,0.1,22.6,1.2,33.7,3.3c11.1,2.1,22.1,5,32.7,9.1
			c2.7,1,5.3,2.1,7.8,3.3c2.6,1.2,5.2,2.4,7.7,3.6l1.9,0.9c0.3,0.2,0.6,0.3,0.9,0.5l0.9,0.5c1.2,0.6,2.6,1.2,3.9,2
			c1.3,0.7,2.6,1.6,3.7,2.7c1.1,1.1,2,2.6,2,4c-0.8-1.2-1.9-1.9-3.2-2.3c-1.2-0.4-2.5-0.7-3.8-0.8l-4.1-0.4c-0.4,0-0.7-0.1-1.1-0.1
			c-0.4-0.1-0.8-0.1-1.1-0.2l-2.1-0.3c-2.8-0.4-5.5-0.9-8.2-1.4c-1.4-0.2-2.7-0.5-4.1-0.8l-4.1-0.7l-32.3-5.8
			c-10.7-1.9-21.5-3.8-32.3-5.9c-5.4-1-10.8-2-16.3-3.2c-0.7-0.1-1.4-0.3-2-0.4c-0.7-0.1-1.3-0.3-2-0.4l-4.1-0.7
			c-2.8-0.5-5.7-1.1-8.4-2.2l0.2-1C458.3,725.2,458.9,725.4,459.6,725.7z"/>
	</g>
	<g>
		<path class="st7" d="M387.6,721.8c0.6-0.3,1.2-0.6,1.8-1l0.2,1c-2.6,1.3-5.5,2.1-8.3,2.7l-4.1,1c-0.7,0.2-1.3,0.3-1.9,0.5
			c-0.7,0.2-1.3,0.4-2,0.6c-5.4,1.5-10.7,2.8-16.1,4.2c-10.7,2.7-21.3,5.3-31.9,7.9l-31.9,7.8l-4,1c-1.3,0.4-2.7,0.7-4,1
			c-2.7,0.7-5.4,1.3-8.1,1.9l-2.1,0.4c-0.3,0.1-0.7,0.1-1.1,0.2c-0.4,0.1-0.7,0.1-1.1,0.2l-4.1,0.7c-1.3,0.3-2.6,0.6-3.7,1.1
			c-1.2,0.5-2.3,1.2-3,2.5c-0.1-1.5,0.7-3,1.7-4.2c1-1.2,2.3-2.1,3.5-3c1.3-0.8,2.5-1.5,3.7-2.2l0.9-0.5c0.3-0.2,0.5-0.3,0.9-0.5
			l1.8-1.1c2.5-1.4,4.9-2.8,7.5-4.1c2.5-1.4,5-2.6,7.6-3.8c10.3-4.7,21.1-8.3,32.1-11.1c11-2.7,22.2-4.6,33.5-5.4
			c5.6-0.4,11.3-0.6,17-0.4c0.7,0,1.4,0,2.1,0.1c0.7,0,1.5,0.1,2.2,0.1c1.5,0.1,2.9,0.3,4.3,0.5c2.8,0.4,5.5,0.8,8.3,0.8l0.2,1
			C388.9,721.9,388.3,721.9,387.6,721.8z"/>
	</g>
</g>
<g id="圖層_2">
	<g>
		<path class="st17" d="M424.6,503.9"/>
	</g>
	<g>
		<path class="st18" d="M684.6,438.4"/>
	</g>
	<g>
		<g>
			<g>
				<path class="st19" d="M221.2,266.1c-25.3-53.3-27-202.9,14.2-221.4c42.6-19.2,142.1,58.5,165.7,90L221.2,266.1z"/>
			</g>
			<g>
				<path class="st4" d="M401.1,134.7l-34.5,25.2L221.2,266.1c-19.9-42-25.2-143.6-6.5-194c5.1-13.6,11.9-23.5,20.6-27.4
					C278,25.6,377.5,103.3,401.1,134.7z"/>
			</g>
			<g class="st5">
				<path class="st1" d="M401.1,134.7l-6.2,4.6c-29.6-34-121-102.8-161.3-84.6c-8.8,3.9-15.6,13.8-20.6,27.4
					c-2.2,6-4.1,12.8-5.7,20.1c1.9-11.1,4.4-21.3,7.6-30c5.1-13.6,11.9-23.5,20.6-27.4C278,25.6,377.5,103.3,401.1,134.7z"/>
			</g>
			<g>
				<path class="st6" d="M366.6,159.9L221.2,266.1c-19.9-42-25.2-143.6-6.5-194c6.8-7.9,14.5-11.7,23.7-10.4
					C282.8,68.1,353.9,142.3,366.6,159.9z"/>
			</g>
		</g>
		<g>
			<g>
				<path class="st7" d="M221.2,271.2c-1.9,0-3.7-1.1-4.6-2.9c-19.5-41.1-26.3-144.3-6.8-197.5c5.9-16,13.8-26.4,23.5-30.7
					c25.6-11.5,65.7,8,94.7,26.3c35.1,22.2,65.4,49.6,77.1,65.2c1.7,2.2,1.2,5.4-1,7.1c-2.2,1.7-5.4,1.2-7.1-1
					C372.4,105,275.5,32.3,237.5,49.4c-7,3.2-13.3,11.8-18.1,25c-18.8,51.1-12.3,150.2,6.4,189.6c1.2,2.5,0.1,5.6-2.4,6.8
					C222.7,271.1,222,271.2,221.2,271.2z"/>
			</g>
		</g>
		<g>
			<path class="st20" d="M242.3,71.9c13.8-8.8,84.6,28.2,87.4,53.7c2.6,24.1-31.7,54.1-37.3,57.2c-5.6,3.1-43.6,31.6-54.3,18.4
				C220.3,179.2,223.8,83.6,242.3,71.9z"/>
		</g>
		<g>
			<path class="st21" d="M292.4,182.8c-5.6,3.1-43.6,31.6-54.3,18.4c-7.1-8.7-10.8-29.1-11.5-51.2c-0.8-22.9,1.6-47.7,6.8-63.3
				c2.4-7.3,5.4-12.6,8.9-14.8c13.8-8.8,84.6,28.2,87.4,53.7C332.3,149.7,298,179.7,292.4,182.8z"/>
		</g>
		<g>
			<path class="st22" d="M292.4,182.8c-5.6,3.1-43.6,31.6-54.3,18.4c-7.1-8.7-10.8-29.1-11.5-51.2c5.1,10.6,12.8,19.9,22.1,12
				c15.2-13,37.4-27.8,34.6-49.4c-1.9-14.5-34.6-34.5-49.9-25.9c2.4-7.3,5.4-12.6,8.9-14.8c13.8-8.8,84.6,28.2,87.4,53.7
				C332.3,149.7,298,179.7,292.4,182.8z"/>
		</g>
		<g>
			<path class="st7" d="M246.5,209.7c-4.9,0-9.2-1.5-12.3-5.4c-14.3-17.7-15-69.9-9.9-100.8c3.2-19.4,8.3-31.5,15.3-36
				c9.4-6,30.1,2.3,41.5,7.8c18.9,9.1,51.4,29.7,53.6,49.6c3,27.2-33.3,58.5-39.8,62.2c-0.6,0.4-2.1,1.3-3.8,2.5
				C280.2,196.8,260.7,209.7,246.5,209.7z M248,75.6c-1.5,0-2.5,0.2-3,0.5l0,0c-3.2,2.1-7.8,10.8-10.7,29c-5.8,35.6-2,80.7,7.8,92.8
				c2.4,2.9,11.1,4.6,43.4-16.8c2.1-1.4,3.5-2.3,4.5-2.9c6.2-3.5,36.9-32.1,34.7-52.2c-1.2-11.2-21.8-29.1-47.9-41.6
				C262.2,77.6,252.7,75.6,248,75.6z M242.3,71.9L242.3,71.9L242.3,71.9z"/>
		</g>
	</g>
	<g>
		<g>
			<g>
				<path class="st4" d="M627.4,266.1c25.3-53.3,27-202.9-14.2-221.4c-42.6-19.2-142.1,58.5-165.7,90L627.4,266.1z"/>
			</g>
			<g>
				<path class="st4" d="M447.5,134.7l34.5,25.2l145.4,106.2c19.9-42,25.2-143.6,6.5-194c-5.1-13.6-11.9-23.5-20.6-27.4
					C570.6,25.6,471.1,103.3,447.5,134.7z"/>
			</g>
			<g>
				<path class="st1" d="M447.5,134.7l6.2,4.6c29.6-34,121-102.8,161.3-84.6c8.8,3.9,15.6,13.8,20.6,27.4c2.2,6,4.1,12.8,5.7,20.1
					c-1.9-11.1-4.4-21.3-7.6-30c-5.1-13.6-11.9-23.5-20.6-27.4C570.6,25.6,471.1,103.3,447.5,134.7z"/>
			</g>
			<g>
				<path class="st4" d="M482,159.9l145.4,106.2c19.9-42,25.2-143.6,6.5-194c-6.8-7.9-14.5-11.7-23.7-10.4
					C565.8,68.1,494.7,142.3,482,159.9z"/>
			</g>
		</g>
		<g>
			<g>
				<path class="st7" d="M627.4,271.2c-0.7,0-1.5-0.2-2.2-0.5c-2.5-1.2-3.6-4.2-2.4-6.8c18.7-39.4,25.2-138.5,6.4-189.6
					c-4.8-13.2-11.1-21.8-18.1-25c-38-17.1-134.9,55.6-159.5,88.4c-1.7,2.2-4.9,2.7-7.1,1c-2.2-1.7-2.7-4.9-1-7.1
					c11.7-15.6,41.9-43,77.1-65.2c29.1-18.4,69.1-37.9,94.7-26.3c9.7,4.4,17.6,14.7,23.5,30.7c19.6,53.2,12.8,156.3-6.8,197.5
					C631.1,270.1,629.3,271.2,627.4,271.2z"/>
			</g>
		</g>
		<g>
			<path class="st20" d="M606.3,71.9c-13.8-8.8-84.6,28.2-87.4,53.7c-2.6,24.1,31.7,54.1,37.3,57.2c5.6,3.1,43.6,31.6,54.3,18.4
				C628.3,179.2,624.8,83.6,606.3,71.9z"/>
		</g>
		<g>
			<path class="st21" d="M556.2,182.8c5.6,3.1,43.6,31.6,54.3,18.4c7.1-8.7,10.8-29.1,11.5-51.2c0.8-22.9-1.6-47.7-6.8-63.3
				c-2.4-7.3-5.4-12.6-8.9-14.8c-13.8-8.8-84.6,28.2-87.4,53.7C516.3,149.7,550.7,179.7,556.2,182.8z"/>
		</g>
		<g>
			<path class="st22" d="M556.2,182.8c5.6,3.1,43.6,31.6,54.3,18.4c7.1-8.7,10.8-29.1,11.5-51.2c-5.1,10.6-12.8,19.9-22.1,12
				c-15.2-13-37.4-27.8-34.6-49.4c1.9-14.5,34.6-34.5,49.9-25.9c-2.4-7.3-5.4-12.6-8.9-14.8c-13.8-8.8-84.6,28.2-87.4,53.7
				C516.3,149.7,550.7,179.7,556.2,182.8z"/>
		</g>
		<g>
			<path class="st7" d="M602.2,209.7c-14.3,0-33.8-12.9-44.6-20c-1.7-1.1-3.2-2.1-3.8-2.5c-6.5-3.7-42.8-35-39.8-62.2
				c2.2-19.9,34.7-40.6,53.6-49.6c11.5-5.5,32.1-13.8,41.5-7.8l0,0c7,4.4,12.1,16.5,15.3,36c5,30.9,4.4,83.1-9.9,100.8
				C611.4,208.2,607.1,209.7,602.2,209.7z M600.6,75.6c-4.7,0-14.1,1.9-28.7,8.9c-26.1,12.5-46.7,30.4-47.9,41.6
				c-2.2,20.1,28.5,48.7,34.7,52.2c0.9,0.5,2.3,1.5,4.5,2.9c32.3,21.3,41.1,19.7,43.4,16.8c9.8-12.1,13.6-57.2,7.8-92.8
				c-3-18.3-7.5-27-10.7-29C603.1,75.8,602.1,75.6,600.6,75.6z"/>
		</g>
	</g>
	<g>
		<path class="st1" d="M655.8,412.7c11.1,11.1,16.6,25.8,13.6,34.6c-4.7,14.2-29.8,9-36.4,14.8c-32,34.3-90.4,64-174,69.1
			c0,0-15.5,0.7-35.1,0.7c-19.6,0-35.1-0.7-35.1-0.7c-83.5-5.1-142-34.7-174-69.1c-6.6-5.8-31.6-0.5-36.4-14.8
			c-2.9-8.8,2.5-23.6,13.6-34.6c-21.9-10.1-28.4-28.6-24.9-39c3-8.9,23.5-6.8,23.5-16.8c0.4-73.8,25.3-145.2,61.7-187.7
			c0,0,11.4-13.1,23.8-24.3c10.8-9.7,28.7-20,28.7-20c34-20.4,74.3-31.5,118.9-31.5s84.9,11.1,118.9,31.5c0,0,17.9,10.3,28.7,20
			c12.4,11.2,23.8,24.3,23.8,24.3c36.4,42.5,61.3,113.9,61.7,187.7c0.1,10,20.6,7.9,23.5,16.8C684.2,384.1,677.8,402.6,655.8,412.7z
			"/>
	</g>
	<g>
		<path class="st4" d="M470,243c48.9,51.5,114.8,58.9,182,56.2c-9.2-52-29.7-98.8-56.5-130.1c0,0-11.4-13.1-23.8-24.3
			c-10.8-9.7-28.7-20-28.7-20c-34-20.4-74.3-31.5-118.9-31.5c-3.8,0-7.5,0.1-11.3,0.2c-1.4,0.1-2.9,0.2-4.3,0.2
			C405.1,148.2,433.1,204.4,470,243z"/>
		<path class="st1" d="M657.2,356.9c-0.1-19.5-2-38.9-5.3-57.6c-67.2,2.7-133-4.8-182-56.2c-36.9-38.6-64.9-94.8-61.4-149.2
			c-38.4,2.3-73.3,13-103.4,31c0,0-17.9,10.3-28.7,20c-12.4,11.2-23.8,24.3-23.8,24.3c-25.8,30.1-45.8,74.7-55.4,124.3
			c-4,20.5-6.2,41.8-6.3,63.4c-0.1,10-20.6,7.9-23.5,16.8c-3.4,10.4,3,28.9,24.9,39c-11.1,11.1-16.6,25.8-13.6,34.6
			c4.7,14.2,29.8,9,36.4,14.8c32,34.3,90.4,64,174,69.1c0,0,15.5,0.7,35.1,0.7c19.6,0,35.1-0.7,35.1-0.7c83.5-5.1,142-34.7,174-69.1
			c6.6-5.8,31.6-0.5,36.4-14.8c2.9-8.8-2.5-23.6-13.6-34.6c21.9-10.1,28.4-28.6,24.9-39C677.8,364.8,657.3,366.9,657.2,356.9z"/>
	</g>
	<g>
		<path class="st4" d="M197.3,293.5L197.3,293.5c9.6-49.7,29.6-94.2,55.4-124.3c0,0,11.4-13.1,23.8-24.3c10.8-9.7,28.7-20,28.7-20
			c31.1-18.7,67.5-29.5,107.6-31.2C447.5,266.1,337.7,336.8,197.3,293.5z"/>
	</g>
	<g>
		<g>
			<g>
				<path class="st7" d="M448.1,345.1c0,7-10.5,16-23.9,19.4c-13.4-3.3-24-12.4-24-19.4c0-6,18-7.4,23.9-7.4
					S448.1,339.1,448.1,345.1z"/>
			</g>
			<g class="st23">
				<path class="st1" d="M435.5,343.4c0,2.1-5,4.8-11.3,5.9c-6.3-1-11.3-3.7-11.3-5.9c0-1.8,8.5-2.2,11.3-2.3
					C427,341.1,435.5,341.5,435.5,343.4z"/>
			</g>
		</g>
	</g>
	<g>
		<path class="st2" d="M579.9,500.9L579.9,500.9c-31.5,15.9-71.8,27.3-120.7,30.3c0,0-15.5,0.7-35.1,0.7c-19.6,0-35.1-0.7-35.1-0.7
			c-48.4-2.9-88.4-14.1-119.7-29.7c-0.1-0.1-0.3-0.3-0.4-0.4c31.4,4.3,67.5,14.9,155.2,14.9C512.3,515.9,548.3,505.1,579.9,500.9z"
			/>
	</g>
	<g>
		<path class="st7" d="M543.8,125.3c-31-12.7-62.9-22.6-96.4-25c-6.8-0.5-16.1-0.9-22.9-0.9c-41.2-0.7-81.4,9.6-119.4,25.4
			c8.1-6.8,17.1-12.4,26.6-17.2C394.1,76.6,489,80,543.8,125.3L543.8,125.3z"/>
	</g>
	<g>
		<path class="st7" d="M389,531.2c-64.2,0.4-132.4-17.8-178.2-65.1c0,0,0.4,0.4,0.4,0.4c-1.9-1-4.1-1.2-6.4-1.6
			c-8.9-1.2-19.4-1.5-26.8-8.2c-13.7-13.7-0.7-37,10.7-47.6c0,0,1.5,8.2,1.5,8.2c-17.2-7-33.8-25.6-28.4-45.4
			c1.8-5.7,7.6-8.8,12.6-10.5c3.9-1.5,8.1-2.3,10.5-4.4c0.6-55.1,13.9-114.4,44.2-161c6.8-9.8,14.5-19.1,23.7-26.8
			c-12.2,20.4-22.5,40.9-31.3,62.3c-15.5,38.9-23.4,80.7-24.2,122.5l0,2.2l0,0.5c0,2.4-0.7,5-2,7c-5.1,7.6-15.4,7.1-21.8,11.7
			c-0.3,0.2-0.3,0.4-0.3,0.6c-1,3.4-0.5,7,0.6,10.5c3.2,9.7,11.7,17.1,20.9,21.7l6.6,3.2c0,0-5.1,5-5.1,5
			c-6.6,7.2-14.7,20-11.5,29.8c2,4.1,7.5,5.1,12.3,5.9c4.8,0.8,10.2,1.1,15.4,2.3c2,0.6,4.9,1.4,7.3,3.7
			C263,504.2,327.6,522.7,389,531.2L389,531.2z"/>
	</g>
	<g>
		<path class="st7" d="M459.2,531.2c61.4-8.4,126-26.9,169.7-73c2.4-2.3,5.3-3.2,7.3-3.7c5.1-1.3,10.5-1.5,15.4-2.3
			c4.7-0.8,10.3-1.8,12.3-5.9c3.2-9.8-4.9-22.6-11.5-29.8l-5.1-5l6.6-3.2c9.2-4.6,17.7-12,20.9-21.7c1.2-3.6,1.7-7.4,0.5-10.9
			c-1.1-1.3-3.4-2.1-5.3-2.8c-5.4-1.9-12.9-3.5-16.7-9.1c-1.4-2-2-4.6-2-7c0-0.8,0-2-0.1-2.7c-0.8-41.8-8.6-83.7-24.2-122.5
			c-8.8-21.4-19.1-41.9-31.3-62.3c9.2,7.6,16.9,16.9,23.7,26.8c30.3,46.6,43.6,105.9,44.2,161c2.4,2.1,6.6,2.9,10.5,4.4
			c5,1.7,10.8,4.8,12.6,10.5c5.4,19.9-11.3,38.4-28.4,45.4c0,0,1.5-8.2,1.5-8.2c11.5,10.6,24.4,33.9,10.7,47.6
			c-7.4,6.8-17.9,7-26.8,8.2c-2.3,0.4-4.5,0.6-6.4,1.6l0.4-0.4C591.6,513.4,523.4,531.5,459.2,531.2L459.2,531.2z"/>
	</g>
	<g>
		<path class="st7" d="M274.9,310.1c10.6,21.2,33.8,36.2,57.3,32.5c16.7-1.7,29.3-15.6,35.3-31.3c2.4-5.8,4.1-11.9,5.5-18.6
			c1.3,3.2,2.2,6.5,2.7,9.9c1.6,10.7,0.1,21.5-4.7,31.5c-14.2,30.2-54.9,34.4-78.9,13.5C281.4,338.2,273.9,324.3,274.9,310.1
			L274.9,310.1z"/>
	</g>
	<g>
		<path class="st7" d="M573.3,310.1c0.9,14.2-6.6,28.1-17.3,37.5c-24,20.9-64.7,16.7-78.9-13.5c-4.8-10-6.3-20.8-4.7-31.5
			c0.5-3.4,1.4-6.8,2.7-9.9c1.4,6.7,3.1,12.9,5.5,18.6c6,15.6,18.6,29.6,35.3,31.3C539.5,346.3,562.7,331.3,573.3,310.1L573.3,310.1
			z"/>
	</g>
	<g>
		<path class="st7" d="M297.5,216.9c10.2-4.4,51.8-9,52.1,16.8c0.1,9.1-12.9,17.3-21.1,10.9C316.4,235.2,316,231.6,297.5,216.9z"/>
	</g>
	<g>
		<path class="st7" d="M552.2,219.8c-9.7-5.3-50.7-13.9-53.5,11.8c-1,9,11.2,18.4,20,12.8C531.7,236.2,532.4,232.6,552.2,219.8z"/>
	</g>
	<g>
		<g>
			<path class="st7" d="M358.8,362.8c12.4,2.2,21.8,4.4,32.9,4.5c11.1-0.2,20.4-2.4,32.9-4.8c-2.6,15.5-17.3,25.9-32.8,26
				C376.3,388.5,361.5,378.3,358.8,362.8L358.8,362.8z"/>
		</g>
		<g>
			<path class="st7" d="M424.6,362.8c12.4,2.2,21.8,4.4,32.9,4.5c11.1-0.2,20.4-2.4,32.9-4.8c-2.6,15.5-17.3,25.9-32.8,26
				C442.1,388.5,427.3,378.3,424.6,362.8L424.6,362.8z"/>
		</g>
	</g>
	<g>
		<path class="st7" d="M410.9,488.1c15.4-10.5,59.7-65,23.6-88.8c-12.7-8.4-36.1,2.5-34.6,20C402.2,444.8,407,448.7,410.9,488.1z"/>
	</g>
</g>
</svg>
