<?xml version="1.0" encoding="utf-8"?>
<!-- Generator: Adobe Illustrator 21.0.0, SVG Export Plug-In . SVG Version: 6.00 Build 0)  -->
<svg version="1.1" id="圖層_1" xmlns="http://www.w3.org/2000/svg" xmlns:xlink="http://www.w3.org/1999/xlink" x="0px" y="0px"
	 viewBox="0 0 1024 1024" style="enable-background:new 0 0 1024 1024;" xml:space="preserve">
<style type="text/css">
	.st0{display:none;}
	.st1{display:inline;}
	.st2{fill:#E2D5BA;}
	.st3{fill:#C3A28C;}
	.st4{fill:#997967;}
	.st5{fill:#FFFFFF;}
	.st6{fill:#FFFFFF;stroke:#28353C;stroke-width:2;stroke-miterlimit:10;}
	.st7{fill:#F9E8C3;}
	.st8{fill:#EAEAEA;}
	.st9{fill:none;stroke:#231815;stroke-width:0.1086;stroke-miterlimit:10;}
	.st10{fill:none;stroke:#231815;stroke-width:0.6935;stroke-miterlimit:10;}
	.st11{fill:#E08D28;}
	.st12{fill:#F49C1C;}
	.st13{fill:#DA8D88;}
	.st14{fill:#EBAEAB;}
	.st15{fill:#3A4F5E;}
	.st16{fill:#28353C;}
	.st17{fill:#BCBCBC;}
	.st18{fill:#FFFFFF;stroke:#231815;stroke-width:1.1553;stroke-miterlimit:10;}
	.st19{fill:#FFFFFF;stroke:#231815;stroke-width:0.2666;stroke-miterlimit:10;}
	.st20{fill:#FFFFFF;stroke:#231815;stroke-width:0.1086;stroke-miterlimit:10;}
	.st21{fill:#4B79BC;stroke:#4B79BC;stroke-width:2;stroke-miterlimit:10;}
</style>
<g id="圖層_1_1_">
	<g id="org" class="st0">
		<g class="st1">
			
				<image style="overflow:visible;enable-background:new    ;" width="900" height="900" xlink:href="DAD4D5D4.png"  transform="matrix(1 0 0 1 62 62)">
			</image>
		</g>
		<g class="st1">
			
				<image style="overflow:visible;enable-background:new    ;" width="900" height="900" xlink:href="DAD4D5DC.png"  transform="matrix(1 0 0 1 1180.9441 62)">
			</image>
		</g>
	</g>
	<g id="body">
		<path class="st2" d="M464.7,710.5c-5.7,6.3-11,12.8-16.2,19.2c-5.5,7-10.8,14.2-15.6,21.3c-0.8,1.2-1.6,2.3-2.3,3.5
			c-4.7,7-9,14-12.9,21c-5.8,0.6-11.6,1.3-17.2,2c-5,0.6-10,1.3-14.9,2c-4.6,0.7-9.2,1.4-13.7,2.1c-4,0.7-8,1.4-11.9,2.1
			c-3.1-1.2-5.7-3-8-5.3c-1.2-1.2-2.3-2.6-3.2-4c-0.4-0.6-0.7-1.2-1.1-1.8c-3.7-7-3.9-15.7,0.8-23.5l7-11.6l2.3-3.7l1.4-2.3
			C389.6,721,425.6,713.6,464.7,710.5z"/>
		<path class="st2" d="M675.3,774.2c-0.4,0.6-0.7,1.1-1.2,1.7c-2.5,3.4-5.9,6.1-9.9,7.8c-25.2-4.7-53-8.2-82.6-10.3
			c-4.5-0.3-9-0.6-13.6-0.9c-18-1.1-36.7-1.6-55.8-1.6c-23.3,0-45.9,0.8-67.6,2.4c4.4-7.3,9.1-14.6,14.2-21.9
			c10-14.3,21.4-28.5,34.1-42.2c4-0.1,7.9-0.1,12-0.1c63.3,0,120.9,11.3,164.1,29.7l6.4,10.5C680.5,757.5,679.8,767,675.3,774.2z"/>
		<path class="st3" d="M593,619.2c-5.6,2.9-11.2,5.9-16.7,9.1c-65.9,37.9-114.9,90.8-140.6,145.6c-6.1,0.5-12.1,1-18,1.7
			c4-7,8.3-14,12.9-21c17.4-26.2,39.5-52,65.7-75.9c2-1.8,4-3.6,6-5.4c0.2-0.2,0.5-0.4,0.7-0.6c1.3-1.2,2.6-2.3,4-3.4
			c5.3-4.5,10.7-8.9,16.1-13.1c0.6-0.5,1.3-1,1.9-1.5c1-0.7,1.9-1.5,2.9-2.2c1.3-1,2.6-1.9,3.9-2.9c1.2-0.9,2.4-1.7,3.6-2.6
			c0.2-0.2,0.5-0.4,0.7-0.5c1.2-0.9,2.5-1.8,3.7-2.6c1.3-0.9,2.7-1.9,4-2.8c0.9-0.6,1.8-1.3,2.8-1.9c0.7-0.4,1.3-0.9,2-1.3
			c0.8-0.5,1.6-1,2.3-1.5c1.3-0.8,2.5-1.6,3.8-2.4c1.1-0.7,2.2-1.4,3.3-2.1c0.7-0.4,1.4-0.9,2.1-1.3c4.4-2.7,8.8-5.3,13.2-7.8l0,0
			c0.4-0.1,0.9-0.1,1.3-0.2c0.6-0.1,1.2-0.2,1.7-0.3c1.8-0.3,3.5-0.6,5.2-0.9c0.8-0.1,1.6-0.3,2.4-0.4c1.6-0.3,3.1-0.6,4.7-0.9
			c0.8-0.1,1.5-0.3,2.3-0.5C591.6,619.5,592.3,619.3,593,619.2z"/>
		<path class="st3" d="M618.7,607.2c-8.6,3.7-17.2,7.7-25.7,12c-0.7,0.1-1.4,0.3-2.1,0.4c-0.8,0.2-1.5,0.3-2.3,0.5
			c-1.6,0.3-3.1,0.6-4.7,0.9c-0.8,0.2-1.6,0.3-2.4,0.4c-1.7,0.3-3.5,0.6-5.2,0.9c-0.6,0.1-1.1,0.2-1.7,0.3c-0.5,0.1-0.9,0.1-1.3,0.2
			l0.1-0.1c0.1,0,0.1-0.1,0.2-0.1c1-0.5,2-1.1,3-1.7c0.8-0.5,1.6-0.9,2.5-1.3c0.9-0.5,1.8-1,2.7-1.4c1-0.5,2.1-1.1,3.1-1.6
			c0.8-0.4,1.5-0.8,2.3-1.2c1.8-0.9,3.6-1.8,5.5-2.7l1.2,2c-0.3-0.7-0.6-1.4-0.9-2.1c4.8-2.4,9.6-4.6,14.4-6.7l0,0
			C611.1,606.2,614.9,606.6,618.7,607.2z"/>
		<path class="st4" d="M632.2,609.2c-10.7,4.6-21.4,9.8-32.1,15.7c-0.4,0.2-0.8,0.4-1.2,0.7c-6.8,3.8-13.6,7.8-20.4,12.1
			c-5.9,3.8-11.8,7.7-17.6,11.9c-2.9,2-5.7,4.1-8.5,6.2c-5,3.7-9.9,7.5-14.8,11.5c-3.7,3-7.5,6.2-11.1,9.4c-0.7,0.6-1.4,1.3-2.1,1.9
			c-3.7,3.2-7.3,6.5-10.8,9.8c-21.1,20-39.5,41.2-54.6,62.9c-5.1,7.3-9.8,14.6-14.2,21.9c-3,0.2-6,0.4-9,0.7
			c25.7-54.8,74.7-107.7,140.6-145.6c14-8,28.2-15.1,42.4-21.1C623.2,607.8,627.7,608.4,632.2,609.2z"/>
		<path class="st5" d="M386.4,868.4c-19.8-7.4-37-16.1-51.1-25.8c-3.2,7.2-6.1,14.6-8.9,22.2c15.3,11.9,30.7,26.4,47.6,36.6
			C378.5,890.9,382.7,879.9,386.4,868.4z"/>
		<path class="st5" d="M326.4,864.8c-1.5,4.1-2.9,8.2-4.3,12.4c18.5,10,34.9,20.3,49,30.8c1-2.2,2-4.4,2.9-6.6
			C357.1,891.2,341.6,876.7,326.4,864.8z"/>
		<path class="st4" d="M308,933.4c5,2.8,10.2,5.5,15.5,8.2c13.1,6.5,29.2,1.7,36.3-11.1c2-3.6,3.9-7.2,5.8-10.9
			c-18.8-1.1-36.2-6.5-51.3-15.3c-1.1,4.3-2.1,8.7-3.1,13.1l0,0C295.3,925.6,308,933.4,308,933.4z"/>
		<path class="st3" d="M314.3,904.2c15,8.8,32.5,14.2,51.3,15.3c1.9-3.8,3.7-7.6,5.5-11.5c-14.1-10.5-30.5-20.8-49-30.8
			C319.2,886,316.6,895,314.3,904.2z"/>
		
			<ellipse transform="matrix(0.2353 -0.9719 0.9719 0.2353 -101.0364 1171.0984)" class="st6" cx="693.7" cy="649.8" rx="16.6" ry="19.8"/>
		<path class="st7" d="M496.3,678.7c-11.3,10.3-21.9,20.9-31.6,31.8c-39.1,3-75.1,10.4-105.5,21.1l37.9-62.4l4.5-7.5l23.3-38.4
			c8.6,8.4,17.7,16.6,27.5,24.5c2.2,1.8,4.5,3.6,6.8,5.4c0.9,0.7,1.8,1.4,2.7,2.1c3.8,2.9,7.7,5.8,11.6,8.5
			C481,669.1,488.6,674.1,496.3,678.7z"/>
		<path class="st8" d="M592.6,612.6c-1.8,0.9-3.6,1.8-5.5,2.7c-0.8,0.4-1.5,0.8-2.3,1.2c-1,0.5-2.1,1.1-3.1,1.6
			c-0.9,0.5-1.8,1-2.7,1.4c-0.8,0.5-1.6,0.9-2.5,1.3c-1,0.5-2,1.1-3,1.7c-0.1,0-0.1,0.1-0.2,0.1c-0.1,0-0.1,0-0.2,0.1
			c-4.4,2.5-8.8,5.1-13.2,7.8c-0.7,0.4-1.4,0.8-2.1,1.3c-1.1,0.7-2.2,1.4-3.3,2.1c-1.3,0.8-2.5,1.6-3.8,2.4c-0.8,0.5-1.6,1-2.3,1.5
			c-0.7,0.4-1.3,0.9-2,1.3c-0.9,0.6-1.8,1.3-2.8,1.9c-1.3,0.9-2.7,1.8-4,2.8c-1.2,0.9-2.5,1.8-3.7,2.6c-0.2,0.2-0.5,0.3-0.7,0.5
			c-1.2,0.8-2.4,1.7-3.6,2.6c-1.3,1-2.6,1.9-3.9,2.9c-1,0.7-1.9,1.5-2.9,2.2c-0.6,0.5-1.3,1-1.9,1.5c-5.4,4.2-10.8,8.6-16.1,13.1
			c-14.6-8.4-29.2-18.2-43.4-29.2c-7.9-6.1-15.4-12.5-22.6-19c-3.2-2.9-6.4-5.9-9.5-8.9l11.3-18.5l48.7-80.3
			c9.3-15.4,31.6-15.4,40.9,0l46.7,77L592.6,612.6z"/>
		<path class="st7" d="M669.1,738.7C625.9,720.3,568.3,709,505,709c-4,0-8,0-12,0.1c6.5-7,13.3-13.9,20.5-20.7
			c3.5-3.3,7.1-6.6,10.8-9.8c0.7-0.6,1.4-1.3,2.1-1.9c3.7-3.2,7.4-6.3,11.1-9.4c4.9-4,9.8-7.8,14.8-11.5c2.8-2.1,5.7-4.2,8.5-6.2
			c5.8-4.2,11.7-8.1,17.6-11.9c6.8-4.3,13.6-8.4,20.4-12.1c0.4-0.2,0.8-0.5,1.2-0.7l22.7,37.5l0,0l17.9,29.5l10.6,17.5l7.2,11.9
			l7.9,12.9L669.1,738.7z"/>
		<path class="st2" d="M686.8,690.4c-2.6,12.1-5.5,24.5-9,37c0,0.1,0,0.1,0,0.2c-2.1,7.5-11.9,9.3-16.5,3
			c-11.1-15.2-22.1-31.6-32.5-49c-4.8-8-9.3-15.9-13.6-23.8C639,672.4,663.3,683.3,686.8,690.4z"/>
		<path class="st9" d="M607.3,605.8c-4.8,2.1-9.6,4.3-14.4,6.7c-1.2-2.7-2.4-5.5-3.5-8.2C595.3,604.6,601.2,605.1,607.3,605.8z"/>
		<path class="st7" d="M696,633.1c-1.9,18.2-5,37.5-9.2,57.3c-21-6.3-42.6-15.7-64-28l0,0c-2.5-1.5-5.1-3-7.6-4.5
			c-5.9-10.9-11.4-21.7-16.3-32.3c0.4-0.2,0.8-0.5,1.2-0.7c10.7-5.9,21.4-11.1,32.1-15.7c8.2,1.4,16.5,3,24.9,4.9
			c11,2.5,21.6,5.3,31.9,8.4C693.5,623.8,696.5,628.3,696,633.1z"/>
		
			<ellipse transform="matrix(0.9719 -0.2353 0.2353 0.9719 -143.6435 95.7999)" class="st6" cx="329.6" cy="649.8" rx="19.8" ry="16.6"/>
		<path class="st2" d="M336.5,690.4c2.6,12.1,5.5,24.5,9,37c0,0.1,0,0.1,0,0.2c2.1,7.5,11.9,9.3,16.5,3c11.1-15.2,22.1-31.6,32.5-49
			c4.8-8,9.3-15.9,13.6-23.8C384.3,672.4,360,683.3,336.5,690.4z"/>
		<path class="st7" d="M327.3,633.1c1.9,18.2,5,37.5,9.2,57.3c21-6.3,42.6-15.7,64-28l0,0c2.5-1.5,5.1-3,7.6-4.5
			c5.9-10.9,18.6-33.7,23.5-44.3c-0.4-0.2-10.9-3.4-11.3-3.6c-10.7-5.9-18.3-3.1-29.2-0.7c-8.2,1.4-16.5,3-24.9,4.9
			c-11,2.5-21.6,5.3-31.9,8.4C329.8,623.8,326.8,628.3,327.3,633.1z"/>
		<path class="st10" d="M593.8,614.5l-1.2-2c0.1,0,0.2-0.1,0.3-0.1C593.2,613.1,593.5,613.8,593.8,614.5z"/>
		<path class="st4" d="M502.3,673.3c-2,1.8-4,3.6-6,5.4c-12.6-7.6-25-16.1-37.2-25.5c-12.3-9.5-38.6-33.7-49.1-44l17.8,9.4
			c8.4,8.2,17.5,16.2,27.1,23.7C470.2,654.3,486.2,664.6,502.3,673.3z"/>
		<path class="st3" d="M507,669.3c-1.3,1.1-2.7,2.3-4,3.4c-0.2,0.2-0.5,0.4-0.7,0.6c-16.2-8.7-32.1-19-47.4-31.1
			c-9.6-7.6-18.7-15.5-27.1-23.7c1.8,0.4,3.5,0.7,5.3,1.1c0.8,0.2,1.5,0.3,2.3,0.5c1.6,0.3,3.1,0.6,4.7,0.9c0.3,0.1,0.7,0.1,1,0.2
			c7.2,6.5,14.7,12.8,22.6,19C477.8,651.1,492.4,660.8,507,669.3z"/>
		<path class="st3" d="M441,621.1c-0.3-0.1-0.7-0.1-1-0.2c-1.6-0.3-3.1-0.6-4.7-0.9c-0.8-0.1-1.5-0.3-2.3-0.5
			c-1.8-0.4-3.5-0.7-5.3-1.1l0,0l3.8-6.2C434.6,615.3,437.8,618.2,441,621.1z"/>
		<path class="st3" d="M679,781.4c-47.7-11.9-105-18.9-166.6-18.9s-118.9,6.9-166.6,18.8c-0.8-2.5,0-5.5,3.1-6.9
			c0.1-0.1,0.3-0.1,0.4-0.2c2.9-1.1,5.9-2.2,9-3.2c2.7-0.9,5.4-1.8,8.2-2.7c7.7-2.4,15.9-4.6,24.5-6.5c5-1.2,10.2-2.3,15.5-3.3
			c7.8-1.5,15.9-2.9,24.2-4c9.2-1.3,18.6-2.4,28.3-3.2c9.2-0.8,18.7-1.4,28.3-1.8c8.3-0.3,16.6-0.5,25.1-0.5
			c18.4,0,36.3,0.8,53.5,2.3c1,0.1,2,0.2,3,0.3c4.5,0.4,9,0.9,13.5,1.4c34.5,4.1,65.4,11.1,90.7,20.3c0.8,0.3,1.6,0.6,2.4,0.9
			c0.1,0,0.1,0,0.2,0.1C678.9,775.6,679.9,778.8,679,781.4z"/>
		<path class="st2" d="M688.7,841.2c-0.7,0.5-1.3,0.9-2,1.4c-14.1,9.7-31.3,18.4-51.1,25.8c-22.3,8.4-47.9,15-75.6,19.5
			c-5,0.8-10.1,1.6-15.2,2.2c-22.3,2.9-45.9,4.5-70.3,4.5c-5,0-9.9-0.1-14.8-0.2c-7-0.2-13.9-0.5-20.8-0.9
			c-13.9-0.9-27.4-2.3-40.5-4.2c-5.4-0.8-10.6-1.6-15.8-2.5c0.1-1.5,0.2-3,0.3-4.5c0-0.5,0.1-1,0.1-1.5c0.3-4.4,0.6-9.1,1-13.8
			c1.2-14.5,3.1-30,5.5-43.4c44.2,10.8,91.8,16.7,141.5,16.7c57,0,111.2-7.7,160.7-21.8c0.8,2.2,1.5,4.4,2.3,6.6
			C695.9,831.1,693.8,837.6,688.7,841.2z"/>
		<path class="st7" d="M691.7,818.6c-49.5,14-103.7,21.8-160.7,21.8c-49.7,0-97.3-5.9-141.5-16.7c-2.4,13.4-4.2,28.8-5.5,43.4
			c-0.4,4.7-0.8,9.4-1,13.8c0,0.5-0.1,1-0.1,1.5c-0.1,1.5-0.2,3-0.3,4.5c-0.1,0-0.2,0-0.4-0.1c0.8-20,3.1-41.3,7.2-63.1
			c0.1-0.4,0.1-0.8,0.2-1.1l0.2-1.1c0.1-0.7,0.2-1.3,0.4-2c0.8-4.3,1.8-8.7,2.7-13.1c2.2-9.8,4.7-19.5,7.4-28.8
			c5.6-0.7,11.4-1.4,17.2-2c8.8-0.9,17.9-1.7,27.1-2.3c12.2-0.9,24.6-1.5,37.4-1.9c2.8-0.1,5.6-0.2,8.5-0.2
			c7.2-0.2,14.5-0.3,21.8-0.3c19.1,0,37.7,0.5,55.8,1.6c4.6,0.3,9.1,0.6,13.6,0.9c12.1,0.9,24,2,35.4,3.3
			c11.6,1.3,22.8,2.9,33.6,4.6c4.6,0.8,9.2,1.5,13.6,2.4c2.7,0.5,5.3,1,7.9,1.5c2.4,0.5,4.3-0.3,5.5-1.7
			C683,795.3,687.7,807,691.7,818.6z"/>
		<path class="st4" d="M382.3,886.8c0.1,0,0.2,0,0.4,0.1c0,0.3,0,0.5,0,0.8c-0.1,2.6-1.7,4.8-3.9,5.8c-1.2,0.5-2.6,0.8-4.1,0.5h-0.1
			c-3.3-0.6-5.6-3.6-5.4-6.9c0.2-3.2,0.4-6.5,0.6-9.9c0.3-5,0.8-10.1,1.3-15.4c0.2-1.7,0.3-3.4,0.5-5.1c0.1-1.4,0.3-2.8,0.5-4.2
			c0.3-2.4,0.5-4.7,0.8-7.1c0.2-1.4,0.4-2.8,0.5-4.3c0.2-1.7,0.5-3.5,0.7-5.2c0.2-1.4,0.4-2.8,0.6-4.1c0.2-1.1,0.3-2.2,0.5-3.3
			c0-0.1,0-0.2,0-0.3c0.2-1.1,0.3-2.2,0.5-3.3c0.2-1.5,0.5-3,0.8-4.5c4.4,1.2,8.8,2.3,13.2,3.4C385.4,845.5,383.1,866.7,382.3,886.8
			z"/>
		<path class="st3" d="M400.4,777.5c-2.7,9.3-5.2,19-7.4,28.8c-1,4.4-1.9,8.8-2.7,13.1c-0.1,0.6-0.3,1.3-0.4,2l-0.2,1.1
			c-0.1,0.4-0.1,0.8-0.2,1.1c-2.4,13.4-4.2,28.8-5.5,43.4c-0.4,4.7-0.8,9.4-1,13.8c0,0.5-0.1,1-0.1,1.5c-0.1,1.5-0.2,3-0.3,4.5
			c-0.1,0-0.2,0-0.4-0.1c0.8-20,3.1-41.3,7.2-63.1c-4.4-1.1-8.8-2.2-13.2-3.4c0.2-1,0.3-2,0.5-3c0.2-1.2,0.4-2.3,0.6-3.5
			c0,0,0,0,0-0.1c0.2-1.2,0.5-2.3,0.7-3.5c0.5-2.3,0.9-4.6,1.4-6.8c0.2-1.1,0.5-2.2,0.8-3.3c1.6-7,3.4-13.8,5.2-20.5
			C390.5,778.8,395.4,778.2,400.4,777.5z"/>
		<path class="st2" d="M376.3,820.2c-0.3,1.5-0.5,3-0.8,4.5c-0.2,1.1-0.4,2.2-0.5,3.3c0,0.1,0,0.2,0,0.3c-0.2,1.1-0.3,2.2-0.5,3.3
			c-0.2,1.4-0.4,2.8-0.6,4.1c-0.2,1.7-0.5,3.5-0.7,5.2c-0.2,1.4-0.4,2.8-0.5,4.3c-0.3,2.4-0.6,4.8-0.8,7.1c-0.2,1.4-0.3,2.8-0.5,4.2
			c-0.2,1.7-0.3,3.4-0.5,5.1c-0.5,5.3-0.9,10.5-1.3,15.4c-15.6-4.9-29.2-10.7-40.1-17.2c-4.1-2.4-7.8-4.9-11-7.5
			c2.7-15,7.8-30.4,15.4-45.5C347.6,811.8,361.8,816.3,376.3,820.2z"/>
		<path class="st7" d="M385.6,779.5c-1.9,6.7-3.6,13.5-5.2,20.5c-0.3,1.1-0.5,2.2-0.8,3.3c-0.5,2.2-1,4.5-1.4,6.8
			c-0.2,1.2-0.5,2.3-0.7,3.5v0.1c-0.2,1.2-0.4,2.3-0.6,3.5c-0.2,1-0.4,2-0.5,3c-14.5-3.9-28.7-8.4-42.3-13.4
			c0.4-0.8,0.8-1.6,1.2-2.3c3.8-7.2,8-14,12.6-20.3c1.2,0.9,2.9,1.4,4.8,1c2.4-0.5,4.9-1,7.4-1.4c3.9-0.7,7.9-1.4,11.9-2.1
			C376.4,780.9,380.9,780.2,385.6,779.5z"/>
		<path class="st5" d="M640,881.2c3.4,9.3,7,18.2,10.9,26.8c14.1-10.5,30.5-20.8,49-30.8c-2.8-8.5-5.8-16.8-9.1-24.8
			C674.9,863.4,657.6,872.6,640,881.2z"/>
		<path class="st8" d="M686.7,842.6c-14.1,9.7-31.3,18.4-51.1,25.8c1.4,4.3,2.9,8.6,4.4,12.8c17.6-8.5,34.9-17.8,50.8-28.7
			C689.5,849.1,688.1,845.8,686.7,842.6z"/>
		<path class="st4" d="M714,933.4c-5,2.8-10.2,5.5-15.5,8.2c-13.1,6.5-29.2,1.7-36.3-11.1c-2-3.6-3.9-7.2-5.8-10.9
			c18.8-1.1,36.2-6.5,51.3-15.3c1.1,4.3,2.1,8.7,3.1,13.1l0,0C726.8,925.6,714,933.4,714,933.4z"/>
		<path class="st3" d="M707.7,904.2c-15,8.8-32.5,14.2-51.3,15.3c-1.9-3.8-3.7-7.6-5.5-11.5c14.1-10.5,30.5-20.8,49-30.8
			C702.8,886,705.4,895,707.7,904.2z"/>
		<path class="st4" d="M679,781.4c-0.3,0.8-0.7,1.5-1.3,2.2c-1.1,1.2-2.7,1.9-4.7,1.8c-0.3,0-0.6,0-0.9-0.1c-2.6-0.5-5.2-1-7.9-1.5
			c-25.2-4.7-53-8.2-82.6-10.3c-4.5-0.3-9-0.6-13.6-0.9c-18-1.1-36.7-1.6-55.8-1.6c-3.7,0-7.4,0-11.1,0.1c-19.4,0.2-38.3,1-56.5,2.3
			c-9.2,0.7-18.2,1.4-27.1,2.3c-5.8,0.6-11.6,1.3-17.2,2c-5,0.6-10,1.3-14.9,2c-4.6,0.7-9.2,1.4-13.7,2.1c-4,0.7-8,1.4-11.9,2.1
			c-2.5,0.5-5,0.9-7.4,1.4c-2,0.4-3.6-0.1-4.8-1c-1-0.7-1.6-1.7-2-2.8c47.7-11.9,105-18.8,166.6-18.8
			C574,762.5,631.3,769.4,679,781.4z"/>
	</g>
	<g id="head">
		<path class="st5" d="M825.8,424c4.6,5.1,7.3,10.6,7.6,16.1c-7.1-7-15.6-9.9-22-6.5c-8.6,4.5-10.1,18.7-3.8,32.4
			c-0.2,0.2-0.3,0.5-0.4,0.7c-0.2,0.5-0.4,0.9-0.6,1.3c-0.4,0.9-0.8,1.7-1.2,2.6s-0.8,1.7-1.3,2.6c-0.6,1.3-1.3,2.5-1.9,3.8
			c-0.5,1-1.1,2-1.6,3c-0.5,0.8-0.9,1.6-1.4,2.5c-0.4,0.8-0.9,1.6-1.3,2.4c-0.5,0.8-1,1.7-1.5,2.5s-1,1.6-1.4,2.4
			c-0.5,0.8-1,1.6-1.5,2.4c-0.6,0.9-1.1,1.8-1.7,2.6c-0.8,1.3-1.6,2.5-2.5,3.7c-0.6,0.9-1.1,1.7-1.8,2.6c-0.5,0.8-1.1,1.5-1.6,2.3
			s-1.1,1.5-1.7,2.3c-0.6,0.8-1.1,1.6-1.7,2.3c-0.6,0.8-1.2,1.5-1.8,2.3s-1.1,1.5-1.7,2.2c-0.9,1.1-1.7,2.2-2.6,3.2
			c-0.8,0.9-1.6,1.9-2.4,2.8c-0.7,0.8-1.3,1.6-2,2.4c-0.6,0.7-1.3,1.4-1.9,2.2c-0.7,0.7-1.3,1.5-2,2.2c-0.6,0.7-1.3,1.4-1.9,2.1
			c-0.7,0.8-1.4,1.5-2.2,2.3c-0.6,0.6-1.2,1.3-1.8,1.9c-1.3,1.3-2.5,2.6-3.8,3.8c-0.6,0.6-1.3,1.2-1.9,1.9c-0.8,0.8-1.5,1.5-2.3,2.2
			c-0.7,0.6-1.4,1.3-2.1,1.9c-0.8,0.7-1.5,1.4-2.3,2.1c-0.7,0.6-1.4,1.3-2.1,1.9c-0.9,0.8-1.8,1.6-2.7,2.3c-0.7,0.6-1.5,1.3-2.2,1.9
			c-1.3,1.1-2.6,2.2-3.9,3.2c-0.7,0.6-1.4,1.1-2.1,1.7c-0.9,0.7-1.8,1.4-2.7,2.1c-0.7,0.6-1.5,1.1-2.2,1.7c-0.9,0.7-1.8,1.4-2.7,2.1
			c-0.7,0.5-1.4,1.1-2.2,1.6c-1.2,0.9-2.4,1.7-3.6,2.6c-0.8,0.6-1.6,1.2-2.5,1.7c-1.2,0.8-2.4,1.7-3.7,2.5c-0.7,0.5-1.5,1-2.2,1.5
			c-1,0.7-2,1.3-3,2c-0.8,0.5-1.5,1-2.3,1.5c-1.1,0.7-2.1,1.3-3.2,2c-0.7,0.4-1.4,0.9-2.1,1.3c-1.7,1-3.4,2-5.1,3
			c-0.6,0.3-1.1,0.6-1.7,1c-1.3,0.7-2.5,1.4-3.8,2.1c-0.8,0.4-1.5,0.8-2.3,1.2c-1.1,0.6-2.3,1.2-3.4,1.8c-0.8,0.4-1.5,0.8-2.3,1.2
			c-1.3,0.7-2.5,1.3-3.8,1.9c-0.6,0.3-1.3,0.6-1.9,1c-1.8,0.9-3.7,1.8-5.6,2.7c-0.6,0.3-1.3,0.6-1.9,0.9c-1.3,0.6-2.7,1.2-4,1.8
			c-0.8,0.3-1.5,0.7-2.3,1c-0.1,0-0.1,0-0.2,0.1c-36.8-3.9-76.2-6-117.2-6c-62.3,0-121,4.9-172.3,13.6c-0.2-0.1-0.4-0.1-0.6-0.2
			c-2-0.8-4-1.5-6-2.3c-0.5-0.2-1-0.4-1.5-0.6c-1.5-0.6-3.1-1.2-4.6-1.9c-0.8-0.3-1.5-0.6-2.3-1c-1.3-0.5-2.5-1.1-3.8-1.6
			c-0.8-0.3-1.6-0.7-2.3-1c-1.3-0.6-2.7-1.2-4-1.8c-0.6-0.3-1.3-0.6-1.9-0.9c-1.9-0.9-3.7-1.8-5.6-2.7c-0.7-0.3-1.3-0.6-1.9-1
			c-1.3-0.6-2.5-1.3-3.8-1.9c-0.8-0.4-1.5-0.8-2.3-1.2c-1.1-0.6-2.3-1.2-3.4-1.8c-0.8-0.4-1.5-0.8-2.3-1.2c-1.3-0.7-2.5-1.4-3.8-2.1
			c-0.6-0.3-1.2-0.6-1.7-1c-1.7-1-3.4-2-5.1-3c-0.7-0.4-1.4-0.9-2.1-1.3c-1.1-0.7-2.2-1.3-3.2-2c-0.8-0.5-1.5-1-2.3-1.5
			c-1-0.7-2-1.3-3-2c-0.7-0.5-1.5-1-2.2-1.5c-1.2-0.8-2.5-1.7-3.7-2.5c-0.8-0.6-1.7-1.2-2.5-1.7c-1.2-0.9-2.4-1.7-3.6-2.6
			c-0.7-0.5-1.4-1.1-2.2-1.6c-0.9-0.7-1.8-1.4-2.7-2.1c-0.7-0.6-1.5-1.1-2.2-1.7c-0.9-0.7-1.8-1.4-2.7-2.1c-0.7-0.5-1.4-1.1-2.1-1.7
			c-1.3-1.1-2.6-2.1-3.9-3.2c-0.8-0.6-1.5-1.3-2.2-1.9c-0.9-0.8-1.8-1.5-2.7-2.3c-0.7-0.6-1.4-1.3-2.1-1.9c-0.8-0.7-1.6-1.4-2.3-2.1
			c-0.7-0.7-1.4-1.3-2.1-1.9c-0.8-0.7-1.6-1.5-2.3-2.2c-0.6-0.6-1.3-1.2-1.9-1.9c-1.3-1.3-2.5-2.5-3.8-3.8c-0.6-0.6-1.2-1.3-1.8-1.9
			c-0.7-0.8-1.4-1.5-2.2-2.3c-0.6-0.7-1.3-1.4-1.9-2.1c-0.7-0.7-1.3-1.5-2-2.2c-0.6-0.7-1.3-1.4-1.9-2.2c-0.7-0.8-1.3-1.6-2-2.4
			c-0.8-0.9-1.6-1.9-2.3-2.8c-0.9-1.1-1.8-2.1-2.6-3.2c-0.6-0.7-1.2-1.5-1.7-2.2c-0.6-0.8-1.2-1.5-1.8-2.3s-1.1-1.5-1.7-2.3
			c-0.6-0.8-1.1-1.5-1.7-2.3c-0.6-0.8-1.1-1.5-1.6-2.3c-0.6-0.8-1.2-1.7-1.8-2.6c-0.8-1.2-1.7-2.5-2.5-3.7c-0.6-0.9-1.1-1.8-1.7-2.6
			c-0.5-0.8-1-1.6-1.5-2.4s-1-1.6-1.4-2.4c-0.5-0.8-1-1.6-1.5-2.5c-0.5-0.8-0.9-1.6-1.3-2.4c-0.5-0.8-0.9-1.6-1.4-2.5
			c-0.6-1-1.1-2-1.6-3c-0.6-1.3-1.3-2.5-1.9-3.8c-0.4-0.9-0.9-1.7-1.3-2.6c-0.4-0.8-0.8-1.7-1.2-2.6c-0.2-0.4-0.4-0.9-0.6-1.3
			c-0.6-1.3-1.7-2.4-3.1-2.8c-12.6-3.9-21.2-10.8-22.8-19.8c-1.2-6.7,1.6-13.6,7.3-20c-0.2-3.4-0.4-5.3-0.6-8.6
			c-3.6-3.2-6-7.1-6.7-11.4c-1.2-6.6,1.5-13.5,7.2-19.8c0.7-0.8,1.2-1.9,1.2-3c0.3-11.6,1.7-22.9,4.1-34.1c0-0.1,0-0.2,0-0.2
			c0.3-1.2,0.5-2.5,0.8-3.7c0.1-0.2,0.1-0.5,0.2-0.7c0.3-1.1,0.5-2.2,0.8-3.3c0.1-0.3,0.2-0.7,0.3-1c0.3-1,0.5-2,0.8-3
			c0.1-0.5,0.3-0.9,0.4-1.3c0.3-0.9,0.5-1.8,0.8-2.7c0.2-0.6,0.3-1.1,0.5-1.6c0.3-0.8,0.5-1.7,0.8-2.5c0.2-0.7,0.4-1.3,0.7-2
			s0.5-1.4,0.7-2.2c0.3-0.8,0.6-1.6,0.9-2.4c0.2-0.6,0.4-1.1,0.6-1.7c0.4-1,0.7-1.9,1.1-2.9C357,312.6,476.8,244,511.9,152
			c35.1,92,154.9,160.5,298.9,164.1c0.4,1,0.8,1.9,1.1,2.9c0.2,0.6,0.4,1.1,0.6,1.7c0.3,0.8,0.6,1.6,0.9,2.4
			c0.3,0.7,0.5,1.4,0.7,2.2c0.2,0.6,0.4,1.3,0.7,2c0.3,0.8,0.5,1.6,0.8,2.5c0.2,0.5,0.3,1.1,0.5,1.6c0.3,0.9,0.5,1.8,0.8,2.7
			c0.1,0.5,0.3,0.9,0.4,1.3c0.3,1,0.6,2,0.8,3c0.1,0.3,0.2,0.7,0.3,1c0.3,1.1,0.6,2.2,0.8,3.3c0.1,0.2,0.1,0.5,0.2,0.7
			c0.3,1.2,0.6,2.5,0.8,3.7c0,0.1,0,0.2,0,0.2c2.4,11.1,3.7,22.5,4.1,34.1c0.1,1.1,0.5,2.2,1.2,3c5.6,6.4,8.4,13.2,7.2,19.8
			c-0.8,4.3-3.1,8.1-6.7,11.4C826.2,418.8,826,420.7,825.8,424z"/>
		<path class="st11" d="M310.4,154.6c0,0.9,0,1.9,0.1,2.8c-8.4,6-16.3,12.3-23.7,19c-1.4-7.6-2.1-15.5-2.1-23.7
			c0-24.1,6.3-46,16.6-62.8c2,14,7.3,26.8,14.8,37.3C312.5,135.1,310.4,144.5,310.4,154.6z"/>
		<path class="st12" d="M393.5,115.4c-11.6,3.9-22.7,8.4-33.5,13.3c-13.4-9.3-28.4-12.5-39.9-8.7c-1.5,2.2-2.8,4.7-4,7.2
			c-7.6-10.5-12.8-23.3-14.8-37.3c0.6-1,1.2-1.9,1.8-2.9C329.2,78.5,364.9,88.9,393.5,115.4z"/>
		<path class="st13" d="M333.2,142.7c-7.9,4.6-15.5,9.5-22.8,14.7c0-0.9-0.1-1.9-0.1-2.8c0-10.2,2.1-19.7,5.8-27.6
			C320.6,133.3,326.4,138.7,333.2,142.7z"/>
		<path class="st14" d="M360,128.7c-9.3,4.3-18.2,8.9-26.8,14c-6.8-4-12.7-9.4-17-15.7c1.2-2.5,2.5-4.9,3.9-7
			C331.6,116.2,346.6,119.4,360,128.7z"/>
		<path class="st11" d="M714.3,154.6c0,0.9,0,1.9-0.1,2.8c8.4,6,16.3,12.3,23.7,19c1.4-7.6,2.1-15.5,2.1-23.7
			c0-24.1-6.3-46-16.6-62.8c-2,14-7.3,26.8-14.8,37.3C712.2,135.1,714.3,144.5,714.3,154.6z"/>
		<path class="st12" d="M631.2,115.4c11.6,3.9,22.7,8.4,33.5,13.3c13.4-9.3,28.4-12.5,39.9-8.7c1.5,2.2,2.8,4.7,4,7.2
			c7.6-10.5,12.8-23.3,14.8-37.3c-0.6-1-1.2-1.9-1.8-2.9C695.5,78.5,659.8,88.9,631.2,115.4z"/>
		<path class="st13" d="M691.5,142.7c7.9,4.6,15.5,9.5,22.8,14.7c0-0.9,0.1-1.9,0.1-2.8c0-10.2-2.1-19.7-5.8-27.6
			C704.1,133.3,698.3,138.7,691.5,142.7z"/>
		<path class="st14" d="M664.7,128.7c9.3,4.3,18.2,8.9,26.8,14c6.8-4,12.7-9.4,17-15.7c-1.2-2.5-2.5-4.9-3.9-7
			C693.1,116.2,678.1,119.4,664.7,128.7z"/>
		<path class="st8" d="M667.1,596.4c-1.2,0.5-20.6,7.5-21.3,7.8c-1.4,0.5-2.8,1-4.2,1.5c-0.8,0.3-1.6,0.6-2.4,0.8
			c-1.4,0.5-2.8,1-4.2,1.4c-0.7,0.2-1.5,0.5-2.2,0.7c-2,0.6-4,1.3-6,1.9c-0.3,0.1-0.5,0.2-0.8,0.2c-2,0.6-4,1.2-6,1.8
			c-0.7,0.2-1.5,0.4-2.2,0.6c-1.5,0.4-3,0.8-4.5,1.2c-0.8,0.2-1.6,0.4-2.4,0.6c-1.6,0.4-3.1,0.8-4.7,1.2c-0.7,0.2-1.3,0.3-2,0.5
			c-2.2,0.5-4.4,1-6.7,1.5c-0.4,0.1-0.8,0.2-1.3,0.3c-1.1,0.2-2.3,0.5-3.5,0.7c-0.7,0.1-1.4,0.3-2.1,0.4c-0.8,0.2-1.5,0.3-2.3,0.5
			c-1.6,0.3-3.1,0.6-4.7,0.9c-0.8,0.2-1.6,0.3-2.4,0.4c-1.7,0.3-3.5,0.6-5.2,0.9c-0.6,0.1-1.1,0.2-1.7,0.3c-0.5,0.1-0.9,0.1-1.3,0.2
			l0,0c-1.8,0.3-3.7,0.6-5.6,0.8c-0.6,0.1-1.1,0.2-1.7,0.2c-1.8,0.2-3.6,0.5-5.4,0.7c-0.8,0.1-1.6,0.2-2.4,0.3
			c-1.6,0.2-3.3,0.4-4.9,0.5c-0.8,0.1-1.6,0.2-2.4,0.2c-2,0.2-4,0.4-6,0.5c-0.4,0-0.8,0.1-1.2,0.1c-2.4,0.2-4.8,0.3-7.2,0.5
			c-0.7,0-1.4,0.1-2,0.1c-1.8,0.1-3.5,0.2-5.3,0.3c-0.8,0-1.7,0.1-2.5,0.1c-1.7,0.1-3.4,0.1-5.2,0.2c-0.8,0-1.5,0-2.3,0
			c-2.4,0-4.9,0.1-7.3,0.1s-4.9,0-7.3-0.1c-0.8,0-1.5,0-2.3,0c-1.7,0-3.4-0.1-5.2-0.2c-0.8,0-1.7-0.1-2.5-0.1
			c-1.8-0.1-3.5-0.2-5.3-0.3c-0.7,0-1.4-0.1-2-0.1c-2.4-0.1-4.8-0.3-7.2-0.5c-0.4,0-0.8-0.1-1.2-0.1c-2-0.2-4-0.3-6-0.5
			c-0.8-0.1-1.6-0.2-2.4-0.2c-1.6-0.2-3.3-0.4-4.9-0.5c-0.8-0.1-1.6-0.2-2.4-0.3c-1.8-0.2-3.6-0.5-5.4-0.7c-0.6-0.1-1.1-0.2-1.7-0.2
			c-2.3-0.3-4.6-0.7-6.9-1c-0.6-0.1-1.2-0.2-1.7-0.3c-1.8-0.3-3.5-0.6-5.2-0.9c-0.5-0.1-0.9-0.2-1.4-0.3c-0.3-0.1-0.7-0.1-1-0.2
			c-1.6-0.3-3.1-0.6-4.7-0.9c-0.8-0.1-1.5-0.3-2.3-0.5c-1.8-0.4-3.5-0.7-5.3-1.1c-0.1,0-0.2,0-0.3-0.1c-0.4-0.1-0.9-0.2-1.3-0.3
			c-2.2-0.5-4.4-1-6.7-1.5c-0.7-0.2-1.3-0.3-2-0.5c-1.6-0.4-3.1-0.8-4.7-1.2c-0.8-0.2-1.6-0.4-2.4-0.6c-1.5-0.4-3-0.8-4.5-1.2
			c-0.7-0.2-1.5-0.4-2.2-0.6c-2-0.6-4-1.2-6-1.8c-0.3-0.1-0.5-0.2-0.8-0.2c-2-0.6-5.5-1.6-7.4-2.2c-0.7-0.2-15.2-4.5-15.9-4.7
			c-1.4-0.5,45.8-7.9,69.1-9.7c33.6-2.7,69.3-3.8,106.1-3.8c10.2,0,20.3,0.1,30.3,0.4C609.3,591.2,639.5,593.5,667.1,596.4z"/>
		<path class="st12" d="M811.2,315c-144-3.5-263.8-72.1-298.9-164c-35.1,92-154.9,160.5-298.9,164c0.1-0.3,0.3-0.6,0.4-1
			c0-0.1,0.1-0.2,0.1-0.2c0.2-0.5,0.3-1,0.3-1.5c0-0.3,0.1-0.6,0.1-1c0.1-1.4,0.2-2.8,0.4-4.1c0.1-0.7,0.2-1.4,0.2-2.1
			c0.1-1,0.3-2.1,0.4-3.1c0.1-0.7,0.2-1.5,0.3-2.2c0.2-1,0.3-2,0.5-3c0.1-0.7,0.2-1.4,0.4-2.1c0.2-1.1,0.4-2.2,0.6-3.3
			c0.1-0.6,0.2-1.2,0.3-1.8c0.3-1.6,0.7-3.3,1.1-4.9c0.1-0.5,0.2-1,0.3-1.4c0.3-1.2,0.6-2.4,0.9-3.6c0.2-0.6,0.3-1.3,0.5-1.9
			c0.3-1.1,0.6-2.1,0.9-3.2c0.2-0.6,0.4-1.3,0.6-1.9c0.3-1.1,0.7-2.2,1-3.3c0.2-0.6,0.3-1.1,0.5-1.6c0.5-1.5,1-2.9,1.5-4.4
			c0.1-0.2,0.1-0.3,0.2-0.5c0.6-1.7,1.2-3.3,1.9-4.9c0.1-0.4,0.3-0.8,0.5-1.1c0.5-1.3,1-2.5,1.6-3.8c0.2-0.5,0.4-0.9,0.6-1.4
			c0.5-1.2,1-2.4,1.6-3.5c0.2-0.4,0.4-0.9,0.6-1.3c0.6-1.3,1.3-2.7,1.9-4c0.1-0.2,0.2-0.5,0.4-0.7c1.6-3.2,3.4-6.5,5.2-9.6
			c0.2-0.3,0.3-0.5,0.4-0.8c0.8-1.3,1.5-2.6,2.3-3.9c0.2-0.3,0.4-0.6,0.6-0.9c0.8-1.3,1.6-2.6,2.5-3.9c0.1-0.2,0.3-0.4,0.4-0.7
			c3-4.7,6.3-9.2,9.7-13.7c0.1-0.2,0.3-0.4,0.4-0.5c1-1.3,2-2.6,3.1-3.9c0.2-0.2,0.3-0.4,0.5-0.6c1.1-1.4,2.3-2.8,3.4-4.1
			c0,0,0.1-0.1,0.1-0.2c2.5-3,5.1-5.9,7.8-8.7c0.1-0.1,0.1-0.1,0.2-0.2c1.2-1.3,2.5-2.6,3.7-3.9c0.2-0.2,0.4-0.4,0.6-0.6
			c1.1-1.2,2.3-2.3,3.5-3.5c0.2-0.2,0.4-0.4,0.6-0.6c0.3-0.3,0.7-0.6,1-1c1.9-1.8,3.8-3.5,5.7-5.3c0.2-0.2,0.5-0.4,0.7-0.6
			c1.3-1.1,2.5-2.2,3.8-3.3c0.5-0.4,0.9-0.8,1.4-1.2c1.7-1.5,3.5-2.9,5.2-4.3c0,0,0,0,0.1-0.1c1.8-1.4,3.6-2.8,5.4-4.2
			c0.6-0.4,1.2-0.9,1.8-1.3c1.3-0.9,2.5-1.9,3.8-2.8c0.7-0.5,1.4-1,2.2-1.5c1.2-0.8,2.4-1.7,3.6-2.5c0.8-0.5,1.5-1,2.3-1.5
			c1.3-0.9,2.6-1.7,3.9-2.5c0.7-0.4,1.3-0.9,2-1.3c2-1.3,3.9-2.5,5.9-3.7c0.3-0.2,0.6-0.4,1-0.6c1.7-1,3.4-2,5.2-3
			c0.8-0.4,1.5-0.9,2.3-1.3c1.3-0.8,2.7-1.5,4-2.2c0.8-0.5,1.7-0.9,2.5-1.4c1.3-0.7,2.6-1.4,4-2.1c0.8-0.4,1.7-0.9,2.5-1.3
			c1.5-0.7,3-1.5,4.4-2.2c0.7-0.3,1.4-0.7,2.1-1c2.2-1,4.3-2,6.5-3c0.5-0.2,1-0.4,1.5-0.6c1.7-0.8,3.5-1.5,5.3-2.3
			c0.8-0.3,1.7-0.7,2.5-1c1.5-0.6,2.9-1.2,4.4-1.8c0.9-0.4,1.8-0.7,2.8-1.1c1.4-0.6,2.9-1.1,4.3-1.6c0.9-0.3,1.8-0.7,2.8-1
			c1.6-0.6,3.2-1.1,4.8-1.7c0.6-0.2,1.3-0.5,1.9-0.7c0.1,0,0.3-0.1,0.4-0.1c2.4-0.8,4.8-1.6,7.3-2.3c0.6-0.2,1.2-0.4,1.8-0.5
			c2-0.6,4-1.2,6-1.8c0.3-0.1,0.5-0.2,0.8-0.2c0.6-0.2,1.3-0.3,1.9-0.5c1.1-0.3,2.2-0.6,3.3-0.9c1.1-0.3,2.2-0.6,3.3-0.9
			c1-0.3,2-0.5,3-0.8c1.3-0.3,2.6-0.6,4-1c0.8-0.2,1.6-0.4,2.4-0.6c1.9-0.4,3.8-0.9,5.6-1.3c0.3-0.1,0.6-0.1,0.9-0.2
			c2.2-0.5,4.5-0.9,6.7-1.4c0.4-0.1,0.7-0.1,1.1-0.2c1.9-0.4,3.7-0.7,5.6-1c0.7-0.1,1.3-0.2,2-0.3c1.6-0.3,3.1-0.5,4.7-0.8
			c0.8-0.1,1.6-0.2,2.4-0.4c1.5-0.2,2.9-0.4,4.4-0.6l2.6-0.3c1.4-0.2,2.8-0.4,4.3-0.5c0.9-0.1,1.8-0.2,2.7-0.3
			c1.4-0.2,2.8-0.3,4.2-0.4c0.9-0.1,1.9-0.2,2.8-0.3c1.4-0.1,2.8-0.2,4.2-0.3c0.9-0.1,1.9-0.2,2.8-0.2c1.4-0.1,2.8-0.2,4.2-0.3
			c0.9-0.1,1.9-0.1,2.8-0.2c1.5-0.1,2.9-0.2,4.4-0.2c0.9,0,1.8-0.1,2.7-0.1c1.3,0,2.5-0.1,3.8-0.1c0.3,0,0.7,0,1,0
			c0.8,0,1.5,0,2.3-0.1c2.4,0,4.8-0.1,7.1-0.1c2.4,0,4.8,0,7.1,0.1c0.8,0,1.5,0,2.3,0.1c0.3,0,0.7,0,1,0c1.3,0,2.5,0.1,3.8,0.1
			c0.9,0,1.8,0.1,2.7,0.1c1.4,0.1,2.9,0.1,4.4,0.2c0.9,0,1.9,0.1,2.8,0.2c1.4,0.1,2.8,0.2,4.2,0.3c0.9,0.1,1.9,0.1,2.8,0.2
			c1.4,0.1,2.8,0.2,4.2,0.3c0.9,0.1,1.9,0.2,2.8,0.3c1.4,0.1,2.8,0.3,4.2,0.4c0.9,0.1,1.8,0.2,2.7,0.3c1.4,0.2,2.8,0.3,4.3,0.5
			c0.9,0.1,1.7,0.2,2.6,0.3c1.5,0.2,3,0.4,4.4,0.6c0.8,0.1,1.6,0.2,2.4,0.4c1.6,0.2,3.2,0.5,4.7,0.8c0.7,0.1,1.3,0.2,2,0.3
			c1.9,0.3,3.7,0.7,5.6,1c0.4,0.1,0.7,0.1,1.1,0.2c2.3,0.4,4.5,0.9,6.7,1.4c0.3,0.1,0.6,0.1,0.8,0.2c1.9,0.4,3.8,0.8,5.7,1.3
			c0.8,0.2,1.6,0.4,2.4,0.6c1.3,0.3,2.7,0.6,4,1c1,0.3,2,0.5,3,0.8c1.1,0.3,2.2,0.6,3.3,0.9s2.2,0.6,3.3,0.9
			c0.6,0.2,1.3,0.3,1.9,0.5c0.3,0.1,0.6,0.2,0.8,0.2c2,0.6,4,1.2,6,1.8c0.6,0.2,1.2,0.4,1.8,0.5c2.4,0.8,4.8,1.5,7.3,2.3
			c0.1,0,0.3,0.1,0.4,0.1c0.6,0.2,1.3,0.5,1.9,0.7c1.6,0.5,3.2,1.1,4.8,1.7c0.9,0.3,1.8,0.7,2.8,1c1.4,0.5,2.9,1.1,4.3,1.6
			c0.9,0.4,1.8,0.7,2.8,1.1c1.5,0.6,2.9,1.2,4.4,1.8c0.8,0.3,1.7,0.7,2.5,1c1.8,0.8,3.5,1.5,5.3,2.3c0.5,0.2,1,0.4,1.5,0.6
			c2.2,1,4.4,2,6.5,3c0.7,0.3,1.4,0.7,2.1,1c1.5,0.7,3,1.4,4.4,2.2c0.8,0.4,1.7,0.9,2.5,1.3c1.3,0.7,2.7,1.4,4,2.1
			c0.8,0.4,1.7,0.9,2.5,1.4c1.3,0.7,2.7,1.5,4,2.2c0.8,0.4,1.5,0.9,2.3,1.3c1.7,1,3.4,2,5.2,3c0.3,0.2,0.6,0.4,1,0.6
			c2,1.2,3.9,2.4,5.9,3.7c0.7,0.4,1.3,0.9,2,1.3c1.3,0.8,2.6,1.7,3.9,2.5c0.8,0.5,1.5,1,2.3,1.5c1.2,0.8,2.4,1.7,3.6,2.5
			c0.7,0.5,1.4,1,2.2,1.5c1.3,0.9,2.5,1.9,3.8,2.8c0.6,0.4,1.2,0.9,1.8,1.3c1.8,1.4,3.7,2.8,5.4,4.2c0,0,0.1,0,0.1,0.1
			c1.8,1.4,3.5,2.9,5.2,4.3c0.5,0.4,0.9,0.8,1.4,1.2c1.3,1.1,2.6,2.2,3.8,3.3c0.2,0.2,0.5,0.4,0.7,0.6c1.9,1.7,3.8,3.5,5.7,5.3
			c0.3,0.3,0.7,0.6,1,1c0.2,0.2,0.4,0.4,0.6,0.6c1.2,1.2,2.4,2.3,3.5,3.5c0.2,0.2,0.4,0.4,0.6,0.6c1.3,1.3,2.5,2.6,3.7,3.9
			c0.1,0.1,0.1,0.1,0.2,0.2c2.7,2.9,5.3,5.8,7.8,8.7c0.1,0,0.1,0.1,0.1,0.2c1.2,1.4,2.3,2.8,3.4,4.1c0.2,0.2,0.3,0.4,0.5,0.6
			c1,1.3,2.1,2.6,3.1,3.9c0.1,0.2,0.3,0.4,0.4,0.5c3.4,4.5,6.7,9.1,9.7,13.7c0.2,0.2,0.3,0.5,0.4,0.7c0.8,1.3,1.7,2.6,2.5,3.9
			c0.2,0.3,0.4,0.6,0.6,0.9c0.8,1.3,1.6,2.6,2.3,3.9c0.1,0.3,0.3,0.5,0.4,0.8c1.8,3.2,3.5,6.4,5.2,9.6c0.1,0.2,0.3,0.5,0.4,0.7
			c0.7,1.3,1.3,2.7,1.9,4c0.2,0.4,0.4,0.9,0.6,1.3c0.5,1.2,1.1,2.4,1.6,3.5c0.2,0.5,0.4,0.9,0.6,1.4c0.5,1.3,1.1,2.5,1.6,3.8
			c0.1,0.4,0.3,0.8,0.5,1.1c0.7,1.6,1.3,3.3,1.9,4.9c0.1,0.2,0.1,0.3,0.2,0.5c0.5,1.5,1,2.9,1.5,4.4c0.2,0.5,0.4,1.1,0.5,1.6
			c0.4,1.1,0.7,2.2,1,3.3c0.2,0.6,0.4,1.3,0.6,1.9c0.3,1.1,0.6,2.1,0.9,3.2c0.2,0.6,0.3,1.2,0.5,1.9c0.3,1.2,0.6,2.4,0.9,3.6
			c0.1,0.5,0.2,1,0.3,1.4c0.4,1.6,0.7,3.3,1.1,4.9c0.1,0.6,0.2,1.2,0.3,1.8c0.2,1.1,0.4,2.2,0.6,3.3c0.1,0.7,0.2,1.4,0.4,2.1
			c0.2,1,0.3,2,0.5,3c0.1,0.7,0.2,1.5,0.3,2.2c0.1,1,0.3,2.1,0.4,3.1c0.1,0.7,0.2,1.4,0.2,2.1c0.1,1.4,0.3,2.8,0.4,4.1
			c0,0.3,0.1,0.6,0.1,1c0,0.5,0.2,1,0.3,1.5c0,0.1,0.1,0.2,0.1,0.2C811,314.3,811.1,314.6,811.2,315z"/>
		<path class="st8" d="M833.1,443.2c-1.6,9-10.2,15.9-22.8,19.8c-1.1,0.4-2.1,1.1-2.7,2.1c-6.3-13.7-4.8-27.9,3.8-32.4
			c6.3-3.3,14.9-0.5,22,6.5C833.5,440.6,833.4,441.9,833.1,443.2z"/>
		<path class="st8" d="M190.9,443.2c1.6,9,10.2,15.9,22.8,19.8c1.1,0.4,2.1,1.1,2.7,2.1c6.3-13.7,4.8-27.9-3.8-32.4
			c-6.3-3.3-14.9-0.5-22,6.5C190.5,440.6,190.6,441.9,190.9,443.2z"/>
	</g>
	<path class="st13" d="M541.7,400c0,7.1-1,13.9-2.8,19.9c-4.7-11.8-15-19.9-26.9-19.9s-22.2,8.2-26.9,19.9
		c-1.8-6.1-2.8-12.8-2.8-19.9c0-26.1,13.3-47.3,29.7-47.3C528.4,352.7,541.7,373.8,541.7,400z"/>
	<g>
		<path class="st8" d="M477.8,408.1c4.5-1.5,8.7-3.3,12.5-5.5c-0.1,2-0.4,3.9-0.7,5.6c-3.5,1.8-7,3.6-10.4,5.5
			C478.7,412.1,478.2,410.2,477.8,408.1z"/>
		<path class="st15" d="M477.8,408.1c1.1-0.4,2.2-0.7,3.3-1.2c1.1-0.4,2.1-0.8,3.2-1.3c2.1-0.9,4.1-2,6.1-3.1l0.1-0.1v0.2
			c-0.1,1.9-0.3,3.7-0.7,5.6l0,0l0,0l-10.4,5.5h-0.1v-0.1c-0.3-0.9-0.6-1.8-0.8-2.8c-0.1-0.5-0.2-0.9-0.3-1.4
			C478,409.1,477.9,408.6,477.8,408.1z M477.9,408.1c0.1,0.4,0.3,0.9,0.4,1.4s0.3,0.9,0.4,1.4c0.3,0.9,0.7,1.8,1,2.7l-0.8-0.3
			c1.7-1,3.4-2.1,5.1-3l5.2-2.9l-0.5,0.6l0.4-2.7c0.1-0.9,0.2-1.8,0.3-2.8l1.2,0.8c-1,0.6-2,1.1-3.1,1.6s-2.1,0.9-3.2,1.3
			s-2.2,0.8-3.3,1.1C480.1,407.6,479,408,477.9,408.1z"/>
	</g>
	<path class="st8" d="M395.7,372c1.3,22.1,26.8,39.8,58.1,39.8c8.6,0,16.7-1.3,24-3.7c4.5-1.5,8.7-3.3,12.5-5.5
		c11.7-6.7,19.6-16.6,21.3-27.8c-16.4,6.2-35,9.7-54.7,9.7C434.6,384.5,413.7,380,395.7,372z"/>
	<path class="st5" d="M395.6,370.3c0,0.6,0,1.2,0.1,1.8c18,7.9,39,12.5,61.3,12.5c19.7,0,38.2-3.5,54.7-9.7c0.2-1.5,0.3-3,0.3-4.5
		c0-23-26.1-41.6-58.2-41.6C421.7,328.7,395.6,347.3,395.6,370.3z"/>
	<path class="st16" d="M613.3,152.3c-1.1-0.2-2.3-0.2-3.4-0.2c-9.5,0-17.8,5.1-22.3,12.8c-0.5,0.8-0.9,1.6-1.3,2.4
		c-2,2.9-5.3,4.8-9,4.8c-6.1,0-11-4.9-11-11c0-2.2,0.7-4.3,1.8-6c1.7-1.6,3.7-3.1,5.7-4.4c5.4-3.3,11.7-5.2,18.5-5.2
		C600.1,145.3,607.4,147.9,613.3,152.3z"/>
	<path class="st16" d="M411.4,152.3c1.1-0.2,2.3-0.2,3.4-0.2c9.5,0,17.8,5.1,22.3,12.8c0.5,0.8,0.9,1.6,1.3,2.4c2,2.9,5.3,4.8,9,4.8
		c6.1,0,11-4.9,11-11c0-2.2-0.7-4.3-1.8-6c-1.7-1.6-3.7-3.1-5.7-4.4c-5.4-3.3-11.7-5.2-18.5-5.2
		C424.6,145.3,417.3,147.9,411.4,152.3z"/>
	<g>
		<path class="st8" d="M546.2,408.1c-4.5-1.5-8.7-3.3-12.5-5.5c0.1,2,0.4,3.9,0.7,5.6c3.5,1.8,7,3.6,10.4,5.5
			C545.3,412.1,545.8,410.2,546.2,408.1z"/>
		<path class="st15" d="M546.1,408.1c-1.1-0.2-2.2-0.5-3.3-0.8s-2.2-0.7-3.3-1.1s-2.1-0.9-3.2-1.3c-1-0.5-2.1-1-3.1-1.6l1.2-0.8
			c0.1,0.9,0.2,1.8,0.3,2.8l0.4,2.7l-0.5-0.6l5.2,2.9c1.7,0.9,3.4,2,5.1,3l-0.8,0.3c0.4-0.9,0.7-1.8,1-2.7c0.2-0.5,0.3-0.9,0.4-1.4
			C545.8,409,546,408.6,546.1,408.1z M546.2,408.1c-0.1,0.5-0.2,1-0.3,1.5s-0.2,0.9-0.3,1.4c-0.2,0.9-0.5,1.9-0.8,2.8v0.1h-0.1
			l-10.4-5.5l0,0l0,0c-0.3-1.9-0.5-3.7-0.7-5.6v-0.2l0.1,0.1c2,1.1,4,2.2,6.1,3.1c1,0.5,2.1,0.9,3.2,1.3
			C544,407.3,545.1,407.7,546.2,408.1z"/>
	</g>
	<path class="st8" d="M628.3,372c-1.3,22.1-26.8,39.8-58.1,39.8c-8.6,0-16.7-1.3-24-3.7c-4.5-1.5-8.7-3.3-12.5-5.5
		c-11.7-6.7-19.6-16.6-21.3-27.8c16.4,6.2,35,9.7,54.7,9.7C589.4,384.5,610.3,380,628.3,372z"/>
	<path class="st8" d="M748.2,381.3c-11.3,3.7-23.3,5.7-35.8,5.7c-55.6,0-102.1-39.3-113.1-91.7C637.3,338.8,689.3,369.8,748.2,381.3
		z"/>
	<path class="st5" d="M827.9,271.5c0,51.3-33.4,94.8-79.7,109.8c-58.9-11.5-110.9-42.5-148.9-86c-1.6-7.7-2.5-15.7-2.5-23.8
		c0-63.8,51.7-115.5,115.5-115.5C776.2,155.9,827.9,207.6,827.9,271.5z"/>
	<g>
		<path class="st17" d="M602.7,307c12.2,32.6,39,58.5,70.9,69.5c8,2.8,16.2,4.6,24.6,5.6c4.2,0.4,8.4,0.8,12.6,0.7
			c4.2,0.1,8.4-0.2,12.6-0.6c16.7-1.7,32.9-7.2,47.1-16c14.3-8.7,26.6-20.7,35.7-34.7c2.3-3.5,4.4-7.1,6.3-10.9
			c1-1.9,1.8-3.8,2.7-5.7c0.8-1.9,1.6-3.9,2.3-5.8c0.8-2,1.4-4,2-6c0.3-1,0.6-2,0.9-3c0.3-1,0.6-2,0.8-3c1.1-4.1,1.8-8.2,2.4-12.4
			c2.3-16.7,0.9-34-4.2-50.3c-1.2-4.1-2.8-8.1-4.4-12c-0.9-1.9-1.8-3.9-2.7-5.8l-1.5-2.8l-0.8-1.4l-0.8-1.4l-1.6-2.8
			c-0.5-0.9-1.2-1.8-1.7-2.7c-0.6-0.9-1.2-1.8-1.8-2.7l-1.9-2.6c-1.2-1.8-2.6-3.4-3.9-5.2c-1.3-1.7-2.8-3.3-4.2-5l0.4-0.4
			c12.3,12.4,21.9,27.4,27.6,43.9c2.9,8.2,4.8,16.8,5.7,25.5c1,8.7,0.9,17.5-0.1,26.1c-2,17.3-8,34.2-17.5,48.9
			c-9.4,14.7-22.2,27.3-37.1,36.4c-14.9,9.1-31.9,14.8-49.3,16.4c-4.3,0.4-8.7,0.6-13.1,0.5c-4.4,0-8.7-0.4-13.1-0.9
			c-4.3-0.6-8.6-1.4-12.9-2.4c-4.2-1.1-8.4-2.3-12.5-3.9c-16.4-6.1-31.3-15.9-43.4-28.5c-12.1-12.6-21.3-27.9-26.6-44.5L602.7,307z"
			/>
	</g>
	<g>
		<path class="st8" d="M680.7,397.1c7.4,1.6,14.8,2.8,22.2,3.3c3.7,0.3,7.4,0.4,11.2,0.4c3.7,0,7.4-0.2,11.1-0.5
			c3.7-0.3,7.4-0.8,11-1.5c3.7-0.6,7.3-1.5,10.9-2.4c7.2-1.9,14.3-4.4,21.2-7.3c-6.4,4-13.3,7.2-20.6,9.6
			c-7.2,2.4-14.8,3.9-22.3,4.6c-7.6,0.7-15.3,0.5-22.8-0.5C695.2,401.8,687.7,399.9,680.7,397.1z"/>
	</g>
	<g>
		<path class="st8" d="M343.3,397.1c-7,2.8-14.4,4.7-22,5.7c-7.5,1-15.2,1.1-22.8,0.5c-7.6-0.7-15.1-2.2-22.3-4.6
			c-7.2-2.3-14.2-5.5-20.6-9.6c7,2.9,14,5.4,21.2,7.3c3.6,0.9,7.2,1.8,10.9,2.4c3.7,0.7,7.3,1.2,11,1.5c3.7,0.4,7.4,0.5,11.1,0.5
			c3.7,0.1,7.4-0.1,11.2-0.4C328.5,399.9,335.9,398.7,343.3,397.1z"/>
	</g>
	<path class="st16" d="M808.4,321.3c-18.2,19.3-44.1,31.4-72.7,31.4c-55.2,0-100-44.8-100-100c0-0.7,0-1.4,0-2.1
		c23.6,46.4,71.7,78.1,127.3,78.1C778.9,328.7,794.1,326.1,808.4,321.3z"/>
	<path class="st15" d="M835.7,252.7c0,26.6-10.4,50.7-27.3,68.6c-14.3,4.8-29.5,7.4-45.4,7.4c-55.6,0-103.7-31.8-127.3-78.1
		c1.1-54.3,45.5-97.9,100-97.9C790.9,152.7,835.7,197.4,835.7,252.7z"/>
	<g>
		<path class="st17" d="M484,331.5c9,3,17.6,8.3,23.8,16.3c3,4,5.3,8.7,6.4,13.8c0.2,1.3,0.5,2.6,0.6,3.9c0,0.7,0.1,1.3,0.1,2
			s0,1.3,0,2c-0.1,2.6-0.5,5.2-1.2,7.8c-1.4,5.1-3.9,9.8-7.2,13.8c-3.2,4-7.1,7.5-11.3,10.3c-4.2,2.9-8.8,5.1-13.5,6.9
			s-9.6,3.1-14.5,3.9s-9.9,1.1-14.9,1s-10-0.6-14.8-1.6c-2.4-0.5-4.9-1.2-7.2-1.9c-2.4-0.8-4.7-1.6-7-2.6c-4.6-2-9-4.5-13-7.6
			c-2-1.5-3.9-3.2-5.7-5c-1.8-1.8-3.4-3.7-4.8-5.9c-2.8-4.2-5-9-5.9-14c-0.8-5-0.6-10.2,1-14.9c0.8-2.4,1.8-4.6,3-6.7
			c1.3-2.1,2.8-4,4.4-5.8l0.4,0.3c-2.8,3.7-5,8-6.1,12.6c-1.1,4.5-1.1,9.4-0.1,13.9c1,4.6,3.2,8.8,6,12.6c1.4,1.9,3,3.6,4.7,5.2
			s3.5,3.1,5.4,4.5c7.7,5.4,16.6,8.9,25.9,10.7c4.6,0.9,9.3,1.3,14,1.4s9.4-0.3,14-1c9.3-1.5,18.3-4.6,26.2-9.8
			c3.9-2.6,7.5-5.6,10.6-9.2c3-3.6,5.4-7.7,6.8-12.2c0.7-2.2,1.1-4.5,1.3-6.9c0.1-1.2,0.1-2.3,0-3.5c0-1.2-0.2-2.3-0.4-3.5
			c-0.8-4.6-2.7-9-5.3-12.9c-5.3-7.8-13.2-13.5-21.8-17.3L484,331.5z"/>
	</g>
	<path class="st14" d="M538.9,419.9c-4.7,16.2-15,27.4-26.9,27.4s-22.2-11.2-26.9-27.4c4.7-11.8,15-19.9,26.9-19.9
		C523.9,400,534.2,408.1,538.9,419.9z"/>
	<path class="st18" d="M476.1,323.8c0.1,1,0.5,4,3.2,9.2C477.3,330.1,476.1,327,476.1,323.8z"/>
	<path class="st18" d="M547.9,323.8c-0.1,3.2-1.2,6.3-3.1,9.1C547.5,327.8,547.9,324.8,547.9,323.8z"/>
	<circle class="st19" cx="787.5" cy="196.5" r="14.5"/>
	<path class="st8" d="M275.8,381.3c11.3,3.7,23.3,5.7,35.8,5.7c55.6,0,102.1-39.3,113.1-91.7C386.7,338.8,334.7,369.8,275.8,381.3z"
		/>
	<path class="st5" d="M196.1,271.5c0,51.3,33.4,94.8,79.7,109.8c58.9-11.5,110.9-42.5,148.9-86c1.6-7.7,2.5-15.7,2.5-23.8
		c0-63.8-51.7-115.5-115.5-115.5C247.8,155.9,196.1,207.6,196.1,271.5z"/>
	<g>
		<path class="st17" d="M421.8,307.1c-1.2,4.2-2.5,8.4-4.1,12.4c-1.7,4-3.5,8-5.7,11.9c-4.3,7.7-9.4,15-15.3,21.6
			c-3,3.3-6.1,6.4-9.5,9.3c-1.6,1.5-3.4,2.9-5.1,4.3c-1.8,1.3-3.5,2.7-5.4,4c-3.6,2.6-7.5,4.9-11.5,7c-3.9,2.1-8,3.9-12.2,5.6
			c-16.7,6.7-35,9-53,7.5c-18-1.6-35.6-7.5-51-16.9c-15.4-9.5-28.6-22.5-38.2-37.8c-9.6-15.3-15.7-32.7-17.4-50.6
			c-0.8-8.9-0.8-17.9,0.4-26.8c1.2-8.8,3.4-17.5,6.5-25.8c1.6-4.2,3.5-8.2,5.5-12.1c1.1-1.9,2.1-3.9,3.3-5.8l1.8-2.8l0.9-1.4
			l0.9-1.4l1.9-2.7c0.6-0.9,1.3-1.8,2-2.6c0.7-0.9,1.3-1.8,2-2.6l2.1-2.5c1.4-1.7,3-3.2,4.5-4.8s3.2-3,4.7-4.6l0.4,0.4
			c-12.2,12.3-21.8,27.3-27.3,43.8c-2.8,8.2-4.7,16.7-5.7,25.3c-1,8.6-0.8,17.3,0.2,26c2,17.2,8.1,33.9,17.5,48.5s22.1,27,36.9,36
			c14.8,9.1,31.6,14.7,48.8,16.4c4.3,0.4,8.6,0.6,13,0.5c4.3,0,8.7-0.4,13-0.9c4.3-0.6,8.6-1.4,12.8-2.4c4.2-1.1,8.4-2.3,12.4-3.8
			c16.3-6,31.1-15.7,43.2-28.3c12-12.5,21.2-27.7,26.6-44.2L421.8,307.1z"/>
	</g>
	<path class="st16" d="M215.6,321.3c18.2,19.3,44.1,31.4,72.7,31.4c55.2,0,100-44.8,100-100c0-0.7,0-1.4,0-2.1
		c-23.6,46.4-71.7,78.1-127.3,78.1C245.1,328.7,229.9,326.1,215.6,321.3z"/>
	<path class="st15" d="M188.3,252.7c0,26.6,10.4,50.7,27.3,68.6c14.3,4.8,29.5,7.4,45.4,7.4c55.6,0,103.7-31.8,127.3-78.1
		c-1.1-54.3-45.5-97.9-100-97.9C233.1,152.7,188.3,197.4,188.3,252.7z"/>
	<circle class="st19" cx="236.5" cy="196.5" r="14.5"/>
	<path class="st5" d="M628.9,370.3c0,0.6,0,1.2-0.1,1.8c-18,7.9-39,12.5-61.3,12.5c-19.7,0-38.2-3.5-54.7-9.7
		c-0.2-1.5-0.3-3-0.3-4.5c0-23,26.1-41.6,58.2-41.6C602.8,328.7,628.9,347.3,628.9,370.3z"/>
	<g>
		<path class="st17" d="M515.6,351.2c2.3-4.9,6-9.2,10.3-12.6c1.1-0.9,2.2-1.7,3.3-2.4c1.2-0.7,2.3-1.5,3.5-2.1
			c2.4-1.3,4.9-2.4,7.5-3.4c1.3-0.4,2.6-0.9,3.9-1.2c1.3-0.3,2.6-0.8,4-1c1.3-0.2,2.7-0.5,4-0.7s2.7-0.4,4.1-0.4
			c5.4-0.4,10.9,0,16.1,1.3l0,0c0.1,0,0.1,0.1,0.1,0.2s-0.1,0.1-0.2,0.1c-5.3-0.2-10.6,0-15.8,0.7s-10.4,2-15.3,3.8
			c-4.9,1.8-9.7,4.1-14.1,7.1c-4.3,3-8.2,6.6-11.4,10.8c0,0.1-0.1,0.1-0.2,0C515.6,351.4,515.6,351.3,515.6,351.2L515.6,351.2z"/>
	</g>
	<g>
		<path class="st17" d="M508.1,351.4c-4-3.6-8.1-6.6-12.5-9.2c-0.5-0.3-1.1-0.6-1.7-0.9l-1.7-0.9c-1.1-0.6-2.3-1.1-3.4-1.7
			c-2.3-1.1-4.6-2.1-7-2.9c-2.4-0.9-4.8-1.7-7.3-2.3c-2.4-0.7-5-1.3-7.5-1.8c-5-1.1-10.2-1.8-15.5-2.6l0,0c-0.1,0-0.1-0.1-0.1-0.2
			s0.1-0.1,0.1-0.1c5.3-0.3,10.6-0.2,15.8,0.6c5.2,0.7,10.4,1.9,15.4,3.7c5,1.8,9.8,4.2,14.1,7.3
			C501.1,343.4,505.1,347.1,508.1,351.4c0.1,0.1,0.1,0.2,0.1,0.2C508.3,351.4,508.2,351.4,508.1,351.4L508.1,351.4z"/>
	</g>
	<g>
		<path class="st17" d="M539.5,335.9l-3,1.8c-1,0.7-2,1.3-2.9,2c-1.9,1.4-3.8,2.8-5.5,4.3c-3.4,3.1-6.5,6.5-8.7,10.4
			c-4.6,7.6-5.8,16.8-3,24.7c0.7,2,1.6,3.9,2.7,5.7c1.1,1.8,2.3,3.5,3.8,5.1c2.8,3.2,6.2,6,9.9,8.3c7.4,4.7,15.9,7.7,24.7,9.1
			c8.8,1.5,17.9,1.4,26.7-0.2c8.8-1.4,17.3-4.7,24.7-9.5c3.7-2.4,7-5.4,9.8-8.7c2.8-3.4,5-7.2,6.2-11.4c0.6-2.1,1-4.3,1.2-6.5
			c0.1-2.2,0-4.5-0.4-6.7s-1-4.4-1.9-6.6c-0.8-2.2-1.9-4.2-3.2-6.2l0.4-0.3c2.9,3.8,5.1,8.1,6.3,12.7s1.2,9.5,0.1,14.2
			c-1,4.7-3.2,9-6,12.9c-1.4,1.9-3,3.7-4.7,5.3c-1.7,1.7-3.6,3.2-5.5,4.6c-7.8,5.5-16.8,9.1-26.1,10.9c-4.7,0.9-9.4,1.4-14.2,1.5
			s-9.5-0.2-14.2-1c-9.4-1.6-18.6-4.8-26.5-10.1c-4-2.6-7.6-5.8-10.7-9.4c-3.1-3.7-5.5-7.9-6.9-12.5c-0.7-2.3-1.1-4.7-1.3-7
			c-0.1-1.2-0.1-2.4,0-3.6c0-1.2,0.2-2.4,0.4-3.6c0.8-4.7,2.8-9.2,5.4-13.1c5.4-7.9,13.5-13.6,22.1-17.4L539.5,335.9z"/>
	</g>
	<path class="st18" d="M539.8,341c-4.9,7-12.9,16.1-25.6,27.7c-0.7,1.1-1.4,1.6-2.2,1.6s-1.5-0.6-2.2-1.6
		C491.4,352,483,340.4,479.2,333l0,0c-1.8-3.5-2.6-6-2.9-7.5c16.8,10,36.4,15.7,57.4,15.7C535.7,341.1,537.8,341.1,539.8,341z"/>
	<path class="st18" d="M547.9,323.8c-0.1,1-0.5,4-3.1,9.1c0,0,0,0,0,0.1c-1.2,2.3-2.8,4.9-5,8c-2,0.1-4.1,0.2-6.2,0.2
		c-21,0-40.6-5.7-57.4-15.7c-0.2-0.8-0.2-1.3-0.2-1.6c0-0.3,0-0.4,0-0.4c0-11.2,12.2-20.6,28.5-22.8c2.4-0.3,4.9-0.5,7.4-0.5
		s5,0.2,7.4,0.5c16.3,2.2,28.5,11.6,28.5,22.8C548,323.3,548,323.5,547.9,323.8z"/>
	<path class="st16" d="M484.2,341c4.9,7,12.9,16.1,25.6,27.7c0.7,1.1,1.4,1.6,2.2,1.6s1.5-0.6,2.2-1.6
		c18.4-16.7,26.8-28.3,30.6-35.7l0,0c1.8-3.5,2.6-6,2.9-7.5c-16.8,10-36.4,15.7-57.4,15.7C488.3,341.1,486.2,341.1,484.2,341z"/>
	<path class="st15" d="M476.1,323.8c0.1,1,0.5,4,3.1,9.1c0,0,0,0,0,0.1c1.2,2.3,2.8,4.9,5,8c2,0.1,4.1,0.2,6.2,0.2
		c21,0,40.6-5.7,57.4-15.7c0.2-0.8,0.2-1.3,0.2-1.6c0-0.3,0-0.4,0-0.4c0-11.2-12.2-20.6-28.5-22.8c-2.4-0.3-4.9-0.5-7.4-0.5
		s-5,0.2-7.4,0.5c-16.3,2.2-28.5,11.6-28.5,22.8C476,323.3,476,323.5,476.1,323.8z"/>
	<g>
		<path class="st5" d="M534.3,408.2c1.1,6.4,3.4,10.7,5.9,10.7c1.7,0,3.3-2,4.5-5.2C541.3,411.8,537.9,410,534.3,408.2z"/>
		<path class="st15" d="M534.4,408.2c0.1,0.5,0.3,0.8,0.4,1.2l0.4,1.2c0.3,0.8,0.6,1.6,0.9,2.3c0.6,1.5,1.4,3,2.4,4.1
			c0.5,0.5,1.1,1,1.6,1c0.5,0.1,1.1-0.2,1.6-0.7c1-1,1.8-2.5,2.4-4l0.4,1c-0.8-0.5-1.6-0.9-2.4-1.4l-2.4-1.5l-2.5-1.6
			C536.2,409.3,535.3,408.8,534.4,408.2z M534.3,408.1l10.5,5.5h0.1v0.1c-0.6,1.6-1.3,3.2-2.5,4.4c-0.6,0.6-1.5,1-2.4,0.9
			s-1.6-0.7-2.1-1.4c-1.1-1.3-1.7-2.9-2.3-4.5S534.6,409.9,534.3,408.1z"/>
	</g>
	<g>
		<path class="st5" d="M489.7,408.2c-1.1,6.4-3.4,10.7-5.9,10.7c-1.7,0-3.3-2-4.5-5.2C482.7,411.8,486.1,410,489.7,408.2z"/>
		<path class="st15" d="M489.7,408.1c-0.3,1.8-0.7,3.3-1.2,5c-0.5,1.6-1.2,3.2-2.3,4.5c-0.5,0.6-1.2,1.3-2.1,1.4
			c-0.9,0.2-1.7-0.3-2.4-0.9c-1.2-1.2-1.9-2.8-2.5-4.4v-0.1h0.1L489.7,408.1z M489.6,408.2c-0.9,0.6-1.8,1.1-2.7,1.7l-2.5,1.6
			L482,413c-0.8,0.5-1.6,0.9-2.4,1.4l0.4-1c0.6,1.5,1.4,3,2.4,4c0.5,0.5,1,0.8,1.6,0.7c0.5,0,1.1-0.5,1.6-1c1-1.1,1.8-2.6,2.4-4.1
			c0.3-0.8,0.6-1.5,0.9-2.3l0.4-1.2C489.3,409,489.5,408.7,489.6,408.2z"/>
	</g>
	<path class="st16" d="M577.7,341c-3.2,0-3.9,5-0.6,5C580.2,346,580.9,341,577.7,341z"/>
	<path class="st16" d="M561,355.9c-3.2,0-3.9,5-0.6,5C563.5,360.8,564.2,355.9,561,355.9z"/>
	<path class="st16" d="M596.7,356.7c-3.2,0-3.9,5-0.6,5C599.2,361.6,599.9,356.7,596.7,356.7z"/>
	<path class="st16" d="M438.5,341.9c-3.2,0-3.9,5-0.6,5C441,346.8,441.7,341.9,438.5,341.9z"/>
	<path class="st16" d="M430.2,355c-3.2,0-3.9,5-0.6,5C432.7,360,433.4,355,430.2,355z"/>
	<path class="st16" d="M447.3,352.5c-3.2,0-3.9,5-0.6,5C449.9,357.5,450.5,352.5,447.3,352.5z"/>
	<circle class="st20" cx="326.5" cy="313.8" r="5.9"/>
	<circle class="st20" cx="694.5" cy="313.8" r="5.9"/>
</g>
<path class="st21" d="M631,606.6c-1.3,0.5-1.1,2.4,0.2,2.6c10.4,2,26,6.3,36,8.5c5.9,1.3,11.8,2.7,17.6,4.4l2.2,0.6l1.1,0.3
	c0.3,0.1,0.7,0.2,1,0.3c1.2,0.4,2.3,1.1,3.2,2s1.6,2,2,3.2s0.6,2.5,0.4,3.8c-0.2,0.9,0.4,1.7,1.3,1.8c4.4,0.7,8.5,2.7,11.6,5.9
	c3.1,3.1,4.9,7.4,4.4,11.7c-0.4,4.3-3.3,8.1-7.1,10.2c-2.8,1.6-6.1,2.3-9.4,2.3c-1.2,0-2.3-0.1-3.5-0.3c-0.1,0-0.1,0-0.2,0
	c-0.7,0-1.4,0.5-1.5,1.2l-3.5,19c-1.1,6.3-2.6,12.6-4,18.9c-1.5,6.3-3.1,12.6-4.7,18.8l-1.2,4.6c-0.4,1.4-1.1,2.6-2.1,3.6
	c-1.5,1.5-3.7,2.3-5.8,2.3c-0.7,0-1.3-0.1-2-0.3c-0.2-0.1-0.4-0.1-0.5-0.1s-0.3,0.1-0.5,0.2c-0.6,0.4-0.8,1.1-0.4,1.7l5.7,9.4
	l2.9,4.7c0.5,0.8,0.9,1.5,1.3,2.3c0.4,0.8,0.8,1.6,1.1,2.4c1.3,3.2,1.7,6.7,1.4,10.2c-0.4,3.5-1.6,6.8-3.4,9.8c0,0-0.1,0.1-0.1,0.2
	c-0.2,0.6,0.1,1.3,0.7,1.5c0.8,0.3,1.5,0.7,2,1.2c0.6,0.5,0.9,1.2,1.1,1.9c0.1,0.8,0.1,1.6-0.1,2.3c-0.2,0.8-0.6,1.4-1.1,2
	c-0.3,0.3-0.4,0.9-0.2,1.3c4.4,9.9,8.5,19.9,12.2,30.1c0.9,2.6,1.8,5.1,2.7,7.7l1.3,3.8c0.4,1.2,0.6,2.5,0.6,3.7
	c0.1,2.5-0.6,5-1.9,7.1c-0.7,1-1.5,2-2.4,2.8c-0.8,0.8-2,1.5-3.1,2.3c-0.4,0.3-0.6,1-0.4,1.5l3.8,9c1.3,3,2.4,6,3.6,9.1
	c2.3,6.1,4.5,12.3,6.5,18.5s3.8,12.5,5.5,18.8s3.1,12.7,4.6,19.1v0.1c0,0.3,0.1,0.4,0.3,0.6c0,0.1,0.1,0.1,0.2,0.2
	c0.1,0.1,0.2,0.1,0.2,0.1h0.1l0.1,0.1l0.2,0.1l0.5,0.3c0.4,0.2,0.7,0.4,1,0.6c0.6,0.3,1.2,0.8,1.8,1.2c1.1,0.9,2.1,1.9,2.8,3
	s0.9,2.3,0.6,3.5s-1.1,2.3-2.1,3.3c-0.5,0.5-1,1-1.6,1.4c-0.3,0.2-0.5,0.3-0.9,0.5l-1,0.5l-4.1,2.1l-8.2,4.2c-0.7,0.3-1.4,0.7-2.1,1
	l-2,0.8l-2.1,0.6c-0.7,0.2-1.4,0.3-2.1,0.5c-1.6,0.2-3.2,0.4-4.8,0.4c-1.3,0-2.6-0.1-3.9-0.3c-5.8-0.9-11.1-3.8-15-8l-0.7-0.8
	c-0.3-0.3-0.5-0.6-0.7-0.9c-0.5-0.6-1-1.2-1.3-1.8c-0.3-0.7-0.7-1.2-1.1-1.9c-0.3-0.7-0.7-1.3-1.1-2c-1.6-2.7-3.5-5.2-4.9-7.9
	c-1.3-2.7-2.7-5.5-4-8.3c-1.4-2.8-2.7-5.6-3.9-8.4c-2.5-5.6-4.8-11.3-7-17.1l-1.6-4.3l-1.5-4.4l-3-8.7c-0.1-0.5-0.5-0.8-1-0.8
	c-0.1,0-0.3,0.1-0.4,0.1c-19.9,7.5-40.6,13-61.5,17.1c-5.2,1.1-10.4,2-15.7,2.8s-10.5,1.6-15.8,2.3c-10.5,1.3-21.2,2.3-31.8,3
	c-11.7,0.7-23.4,1.1-35.1,1.1c-9.6,0-19.2-0.3-28.8-0.8l-8-0.4c-2.7-0.2-5.3-0.4-8-0.6c-5.3-0.4-10.6-0.9-15.9-1.5s-10.6-1.2-15.9-2
	l-15.8-2.5h-0.1c-0.5,0-1,0.4-1,1c-0.1,0.8-0.1,1.4-0.3,2.1c-0.2,0.6-0.5,1.3-0.9,1.8c-0.4,0.6-0.9,1-1.5,1.4
	c-0.6,0.3-1.2,0.6-1.9,0.7c-0.3,0.1-0.6,0.3-0.7,0.6l-2.9,7l-3.1,6.9l-3.3,6.8c-1.1,2.3-2.1,4.6-3.4,6.8c-1.2,2.2-2.6,4.3-3.8,6.5
	c-1.2,2.3-2.4,4.3-3.9,6.2c-3.1,3.7-7.1,6.5-11.7,8.1c-2.3,0.8-4.7,1.3-7.1,1.4c-0.5,0-1,0-1.5,0c-1.9,0-3.8-0.1-5.7-0.6
	c-1.2-0.2-2.3-0.7-3.5-1c-1.2-0.5-2.3-0.9-3.4-1.5l-6.7-3.5l-6.7-3.5l-0.8-0.4l-0.2-0.1h-0.1l-0.1-0.1l-0.4-0.2
	c-0.5-0.3-1-0.7-1.4-1.1c-0.8-0.8-1.5-1.7-2-2.7s-0.6-2.1-0.4-3.1c0.2-1.1,0.7-2,1.5-2.9s1.7-1.6,2.7-2.3c0.5-0.4,1-0.7,1.5-1
	c0.3-0.2,0.5-0.3,0.8-0.5l0.4-0.2l0.2-0.1l0.1-0.1h0.1c0.1,0,0.2-0.1,0.3-0.2c0.2-0.1,0.3-0.2,0.3-0.4c1.2-5,2.3-9.9,3.5-14.8
	c1.2-4.9,2.6-9.8,4-14.6s2.9-9.6,4.6-14.4l2.5-7.2c0.8-2.4,1.7-4.7,2.6-7.1c0.2-0.5,0-1-0.4-1.2c-3.2-2-6.4-4.1-9.4-6.4
	c0,0.2-0.1,0.3-0.1,0.5l-0.4-0.9c0.2,0.1,0.3,0.3,0.5,0.4c1.1-5.9,2.5-11.8,4.3-17.5c1.8-5.9,3.9-11.7,6.4-17.4
	c1.2-2.8,2.5-5.6,3.9-8.4c1.3-2.8,2.8-5.5,4.3-8.2c3.1-5.4,6.4-10.6,10-15.6c0.3-0.4,0.2-1-0.2-1.3c-1.3-1-2-2.8-1.9-4.4
	c0.1-0.8,0.4-1.6,0.9-2.2c0.5-0.7,1.2-1.1,2-1.5c0-0.1,0.1-0.1,0.1-0.1c0.4-0.3,0.6-0.9,0.3-1.3c-1.9-3-3.1-6.5-3.5-10
	c-0.4-3.6,0.1-7.2,1.4-10.5c0.3-0.8,0.7-1.6,1.1-2.4c0.5-0.8,0.9-1.6,1.4-2.4l2.9-4.8l5.8-9.5c0.2-0.3,0.2-0.6,0.1-0.9
	c-0.2-0.4-0.6-0.7-1-0.7c-0.1,0-0.2,0.1-0.3,0.1c-0.9,0.3-1.9,0.5-2.9,0.5c-1.9,0-3.8-0.6-5.3-1.9c-1.2-0.9-2-2.1-2.5-3.5
	c-0.3-0.7-0.5-1.5-0.7-2.3l-0.6-2.4c-1.6-6.3-3.2-12.7-4.7-19c-0.8-3.1-1.5-6.3-2.2-9.5l-1-4.8l-0.9-4.8l-3.6-19.2
	c-0.1-0.5-0.6-0.9-1.1-0.9c-0.1,0-0.1,0-0.2,0c-1.2,0.2-2.5,0.3-3.8,0.3c-3.3,0-6.6-0.7-9.4-2.3c-2-1.1-3.7-2.6-5-4.4
	s-2.1-3.9-2.4-6.1c-0.5-4.4,1.4-8.9,4.5-12.1c3.2-3.3,7.4-5.4,11.9-6.1c0.6-0.1,1.1-0.7,1-1.3c-0.3-2.5,0.5-5.1,2.2-7
	c0.9-1,1.9-1.7,3.1-2.2c0.3-0.1,0.6-0.2,0.9-0.3l1-0.3l2.1-0.6c5.5-1.6,11-3.1,16.6-4.4c3.1-0.7,27-5.8,37.2-7.9
	c1.1-0.2,1.6-1.4,1-2.3l0,0c-0.4-0.6-1-0.8-1.7-0.7c-9,2.3-34.2,8.1-37.9,9.1c-5.6,1.5-11.2,3-16.7,4.7l-2.1,0.6l-1,0.3
	c-0.3,0.1-0.7,0.2-1.1,0.4c-1.5,0.6-2.8,1.6-3.9,2.8c-2,2-3,5-2.9,7.8c0.4-0.1,0.7-0.1,1.1-0.2l-1,1.3c-0.1-0.4-0.1-0.7-0.1-1.1
	c-4.6,0.9-8.9,3.2-12.1,6.6c-1.8,1.8-3.2,4-4.1,6.4s-1.3,5-1,7.6c0.3,2.5,1.3,5,2.8,7.1s3.5,3.8,5.7,5c3.3,1.7,7,2.5,10.6,2.5
	c1,0,2-0.1,3-0.2l-0.2-1.1l1.3,0.9c-0.4,0.1-0.7,0.2-1.1,0.2l3.5,18.2l0.9,4.8l1,4.8c0.7,3.2,1.4,6.4,2.2,9.6
	c1.5,6.3,3.1,12.7,4.8,19l0.6,2.4c0.2,0.8,0.4,1.5,0.7,2.4c0.6,1.7,1.7,3.3,3.1,4.4c1.8,1.5,4.2,2.3,6.6,2.3c0.4,0,0.7-0.1,1.1-0.1
	l1.3-2.1l1.2,1.5c-0.8,0.3-1.7,0.5-2.5,0.6l-4.5,7.4l-2.9,4.8c-0.5,0.8-0.9,1.7-1.4,2.5c-0.4,0.8-0.9,1.7-1.2,2.6
	c-1.4,3.6-1.9,7.6-1.5,11.4c0.4,3.4,1.6,6.8,3.3,9.9c0.3-0.2,0.6-0.3,0.9-0.5l-0.4,1.4c-0.2-0.3-0.3-0.6-0.5-0.9
	c-0.7,0.4-1.3,1-1.8,1.6c-0.7,0.9-1.1,2-1.2,3.2s0.2,2.4,0.6,3.4c0.3,0.8,0.8,1.5,1.4,2.1c0.2-0.2,0.3-0.5,0.5-0.7l0.2,1.3
	c-0.3-0.2-0.5-0.4-0.7-0.6c-3.4,4.9-6.6,9.9-9.6,15.1c-1.6,2.7-3,5.5-4.4,8.3s-2.8,5.6-4,8.5c-2.5,5.7-4.7,11.6-6.5,17.6
	c-1.8,5.9-3.3,12-4.4,18.2c0,0.3,0.1,0.7,0.4,0.9c3,2.3,6.1,4.5,9.4,6.5c0.1-0.3,0.2-0.5,0.3-0.8l0.4,1.2c-0.2-0.1-0.5-0.3-0.7-0.4
	c-0.7,2-1.6,4.2-2.3,6.3l-2.5,7.2c-1.8,4.8-3.2,9.6-4.7,14.5s-2.8,9.8-4.1,14.7c-1.2,4.7-2.2,9.6-3.4,14.3l0.2-0.1l0.1-0.1h0.1
	c-0.1,0-0.1,0.1-0.2,0.2l-0.3,0.5c0-0.2,0.1-0.3,0.1-0.5l-0.4,0.2c-0.3,0.2-0.6,0.3-0.9,0.5c-0.6,0.4-1.2,0.7-1.7,1.1
	c-1,0.7-2.1,1.6-3,2.6c-0.9,1.1-1.7,2.3-2,3.8c-0.4,1.4-0.1,3,0.5,4.3s1.5,2.4,2.5,3.3c0.5,0.5,1,0.9,1.6,1.3l0.4,0.3l0.1,0.1
	c0,0.1,0.1,0.1,0.1,0.1l0.2,0.1l0.8,0.4l6.7,3.6l6.7,3.6c1.1,0.7,2.3,1.1,3.5,1.7c1.3,0.4,2.5,1,3.8,1.2c2.1,0.6,4.4,0.8,6.6,0.8
	c0.4,0,0.8,0,1.2,0c2.7-0.1,5.3-0.6,7.8-1.4c5-1.6,9.6-4.7,13-8.8c3.5-4.2,5.1-9,7.4-13.5c1.1-2.2,2.2-4.5,3.3-6.8l3.3-6.9l3.1-7
	l2.7-6.5c-0.2,0-0.3,0.1-0.5,0.1l0.7-0.6l-0.2,0.5c0.7-0.2,1.4-0.5,2.1-0.9c0.8-0.5,1.5-1.2,2.1-1.9c0.6-0.8,1-1.6,1.3-2.5
	c0.1-0.5,0.2-1.1,0.3-1.6l-1.1-0.2l1.2-0.9c0,0.4-0.1,0.7-0.1,1.1l14.8,2.3c5.3,0.7,10.6,1.4,15.9,2s10.7,1.1,16,1.5
	c2.7,0.2,5.3,0.4,8,0.6l8,0.4c9.5,0.5,18.9,0.8,28.4,0.8c11.9,0,23.9-0.4,35.8-1.2c10.7-0.7,21.4-1.7,32-3
	c5.3-0.7,10.6-1.6,15.9-2.3c5.3-0.8,10.5-1.7,15.8-2.7c20.6-4,41-9.4,60.8-16.6l-0.4-1.1l1.5,0.7c-0.4,0.1-0.7,0.3-1.1,0.4l2.6,7.7
	l1.5,4.4l1.6,4.4c2.2,5.8,4.5,11.5,7,17.2c1.2,2.9,2.5,5.7,3.9,8.5l4,8.4c1.5,2.7,2.5,5.7,3.8,8.5c0.3,0.7,0.6,1.4,1,2.1
	c0.4,0.7,0.9,1.4,1.3,2.1c0.5,0.7,1,1.3,1.5,2c0.3,0.3,0.5,0.7,0.8,1l0.9,0.9c2.3,2.4,5,4.4,7.9,5.9s6.1,2.4,9.4,2.8
	c1.3,0.1,2.5,0.2,3.8,0.2c2,0,4-0.2,6-0.6c0.8-0.2,1.6-0.3,2.4-0.6l2.3-0.8l2.2-1c0.8-0.3,1.4-0.7,2.1-1.1l8.2-4.4l4.1-2.2l1-0.5
	c0.3-0.2,0.8-0.5,1.1-0.7c0.7-0.5,1.3-1,1.9-1.6c1.2-1.2,2.2-2.7,2.7-4.5c0.2-0.9,0.3-1.9,0.1-2.8c-0.2-1-0.6-1.8-1-2.6
	c-0.9-1.5-2.2-2.7-3.5-3.7c-0.6-0.5-1.3-1-2-1.4c-0.3-0.2-0.6-0.4-1-0.6l-0.5-0.3h-0.1c0.1,0.2,0.1,0.4,0.2,0.6l-0.3-0.6
	c0,0-0.1-0.1-0.2-0.1s-0.1-0.1-0.1-0.1h0.1l0.1,0.1l0.2,0.1c-1.5-6.2-2.9-12.5-4.5-18.6c-1.7-6.3-3.6-12.6-5.6-18.9
	c-2-6.2-4.2-12.5-6.5-18.6c-1.1-3.1-2.3-6.2-3.6-9.2l-3.4-8.2c-0.3,0.2-0.5,0.4-0.8,0.6l0.4-1.5l0.4,0.9c0.9-0.5,1.8-1.1,2.6-1.9
	c1.1-1,2-2.1,2.8-3.4c1.6-2.5,2.4-5.5,2.3-8.4c0-1.4-0.2-2.9-0.7-4.3l-1.3-3.9c-0.9-2.6-1.8-5.1-2.7-7.7c-3.6-10-7.6-19.9-12-29.6
	c-0.2,0.2-0.3,0.4-0.5,0.6l0.2-1.3c0.1,0.2,0.2,0.5,0.3,0.7c0.6-0.8,1-1.5,1.2-2.4c0.3-1.1,0.4-2.3,0.1-3.4s-0.9-2.2-1.7-3
	c-0.4-0.6-1-1-1.6-1.3c-0.2,0.4-0.5,0.8-0.7,1.2l-0.6-1.7c0.5,0.1,0.9,0.3,1.3,0.5c1.6-3,2.6-6.2,3-9.6c0.4-3.9-0.1-7.8-1.5-11.4
	c-0.3-0.9-0.8-1.7-1.2-2.6c-0.5-0.9-0.9-1.7-1.4-2.5l-2.8-4.7l-4.4-7.2c-0.9,0-1.8-0.2-2.7-0.4l1.4-1.8l1.3,2.2h0.1
	c2.8,0,5.5-1.1,7.4-3c1.3-1.3,2.2-3,2.7-4.7l1.3-4.7c1.6-6.2,3.2-12.5,4.7-18.8c0.8-3.2,1.5-6.3,2.2-9.5l1-4.7l0.9-4.8l3.4-17.7
	c-0.4-0.1-0.9-0.1-1.4-0.2l1.7-1.2l-0.3,1.4c0.9,0.1,1.8,0.1,2.7,0.1c3.8,0,7.5-0.8,10.8-2.6c2.3-1.2,4.4-3,5.9-5.1s2.6-4.7,2.9-7.3
	c0.3-2.7-0.1-5.4-1-7.8c-1-2.4-2.4-4.6-4.2-6.5c-3.2-3.4-7.4-5.7-11.9-6.7c0,0.5,0,1-0.1,1.5l-1.4-1.8c0.5,0.1,1,0.2,1.5,0.3
	c0-1.2-0.2-2.5-0.6-3.7c-0.6-1.7-1.5-3.2-2.8-4.5c-1.3-1.2-2.8-2.2-4.5-2.8c-0.4-0.2-0.7-0.3-1.1-0.4l-1.1-0.3l-2.2-0.7
	c-5.8-1.8-20.5-5.2-26.5-6.4c-8.1-1.6-19.6-4.1-27.5-5.5L631,606.6z"/>
<path class="st16" d="M686.7,131.8l-102.1,57.3c-4.8,2.7-10.9,1-13.6-3.8l-13.9-24.8c-2.7-4.8-1-10.9,3.8-13.6L663,89.6
	c4.8-2.7,10.9-1,13.6,3.8l13.9,24.8C693.3,123,691.5,129.1,686.7,131.8z"/>
<path class="st16" d="M335.3,131.8l102.1,57.3c4.8,2.7,10.9,1,13.6-3.8l13.9-24.8c2.7-4.8,1-10.9-3.8-13.6L359,89.6
	c-4.8-2.7-10.9-1-13.6,3.8l-13.9,24.8C328.7,123,330.5,129.1,335.3,131.8z"/>
</svg>
