<?xml version="1.0" encoding="utf-8"?>
<!-- Generator: Adobe Illustrator 21.0.0, SVG Export Plug-In . SVG Version: 6.00 Build 0)  -->
<svg version="1.1" xmlns="http://www.w3.org/2000/svg" xmlns:xlink="http://www.w3.org/1999/xlink" x="0px" y="0px"
	 viewBox="0 0 850 850" style="enable-background:new 0 0 850 850;" xml:space="preserve">
<style type="text/css">
	.st0{fill:#777782;}
	.st1{fill:#FFFFFF;}
	.st2{fill:#DFE7F2;}
	.st3{opacity:0.7;}
	.st4{fill:#000072;}
	.st5{fill:#9E9E9E;}
	.st6{fill:#7C7C7C;}
	.st7{fill:#F9A528;}
	.st8{opacity:0.5;}
	.st9{fill:#F47E1E;}
	.st10{fill:none;stroke:#512717;stroke-width:10.1363;stroke-linecap:round;stroke-miterlimit:10;}
	.st11{fill:#B5CFDD;}
	.st12{fill:#FAA625;}
	.st13{fill:#FF8080;}
	.st14{fill:#FFA9A9;}
	.st15{fill:#F28686;}
	.st16{opacity:0.3;}
	.st17{fill:#959B9E;}
	.st18{fill:#3A3A3A;}
</style>
<g id="圖層_3">
</g>
<g id="圖層_2">
	<g>
		<g>
			<g>
				<path class="st0" d="M506.7,651.7c52.2,45.8,145.9,26.7,145.9,26.7V577c0,0-54.1,4.8-73.8-1.6c-21.2-6.9-25.8-84.4-99.4-84.4"/>
			</g>
			<g>
				<path class="st1" d="M479.5,491l27.3,160.7c52.2,45.8,145.9,26.7,145.9,26.7V577c0,0-54.1,4.8-73.8-1.6
					c-14-4.6-20.8-40-45.1-63.5v0c-1.3-1.3-2.7-2.6-4.2-3.8c-11.8-9.9-27.4-16.9-49.1-17.1C480.1,491,479.8,491,479.5,491z"/>
			</g>
			<g>
				<path class="st2" d="M529.7,508.2c-13,5.9-28.2,10.7-44.9,14.1l-5.3-31.3c0.3,0,0.7,0,1,0c21.7,0.2,37.3,7.2,49.1,17.1
					C529.6,508.2,529.7,508.2,529.7,508.2z"/>
			</g>
			<g class="st3">
				<path class="st1" d="M533.8,511.9c17.4,27.5,23.4,65,44,71.4c14.2,4.4,55.9,2.2,74.8,1V577c0,0-54.1,4.8-73.8-1.6
					C564.8,570.8,558,535.4,533.8,511.9z"/>
			</g>
			<g>
				<path class="st2" d="M500.8,615.6l5.9,36.2c52.2,45.8,145.9,26.7,145.9,26.7v-38.7c-9.1-7-21.9-12.6-32.5-1.6
					c-29.8,30.9-54.1-1.9-77.6-41.4C529.9,575.4,513.3,594.1,500.8,615.6z"/>
			</g>
			<g>
				<path class="st4" d="M607,687.6c-32,0-73.9-5.9-103.6-32c-2.1-1.8-2.3-5-0.5-7.2c1.8-2.1,5.1-2.3,7.2-0.5
					c43.6,38.3,119.2,29.2,137.5,26.3v-91.7c-14.5,1-53.4,3.2-70.3-2.2c-8.9-2.9-14.5-13.5-21.5-26.9c-12.7-24.2-30-57.3-76.3-57.3
					c-2.8,0-5.1-2.3-5.1-5.1s2.3-5.1,5.1-5.1c52.5,0,72.2,37.7,85.3,62.7c5.5,10.4,10.6,20.3,15.6,21.9c18.5,6,71.2,1.4,71.8,1.4
					c1.4-0.1,2.8,0.3,3.9,1.3c1,1,1.6,2.3,1.6,3.7v101.5c0,2.4-1.7,4.5-4.1,5C651.9,683.8,632.6,687.6,607,687.6z"/>
			</g>
		</g>
		<g>
			<g>
				<path class="st5" d="M337.7,745.2c0,0-101.1,41.4-149.3-32.7c-54.3-83.4,24.2-184,9.5-240.1C187,431,151.3,422.5,117.4,437
					c-30.5,13-49.5,20.2-65.1-0.9c-24.3-32.7,24-92.9,91.9-94.8c96.4-2.8,142.6,91.9,101.2,209c-44.6,125.9,2.6,159.7,81.5,141.3"/>
			</g>
			<g>
				<path class="st5" d="M337.8,745.2c0,0-101.2,41.4-149.3-32.7c-12.7-19.5-18.1-40-19.2-60.6c0,0,0-0.1,0-0.1
					c-3.4-67.4,39.9-136.4,28.7-179.4C187,431,151.3,422.5,117.4,437c-30.5,13-49.5,20.2-65.1-0.9c-24.3-32.7,24-92.9,91.9-94.8
					c96.4-2.8,142.6,91.9,101.2,209c-38.8,109.7-8,149.5,52.8,145.7c9-0.5,18.6-2.1,28.8-4.4L337.8,745.2z"/>
			</g>
			<g>
				<path class="st1" d="M337.7,745.2c0,0-101.2,41.4-149.3-32.7c-12.7-19.5-18.1-40-19.2-60.6c0,0,0-0.1,0-0.1
					c-2.3-46.3,17.4-93.4,26.3-132.3c0,0,0,0,0,0c4.1-17.7,5.9-33.7,2.3-47.1C187,431,151.3,422.5,117.4,437
					c-30.5,13-49.5,20.2-65.1-0.9c-4.5-6.1-6.5-13.1-6.4-20.6c0.7-32.5,43-72.7,98.2-74.2c96.4-2.8,142.6,91.9,101.2,209
					c-38.8,109.7-8,149.5,52.8,145.7c9-0.5,18.6-2.1,28.8-4.4L337.7,745.2z"/>
			</g>
			<g>
				<path class="st2" d="M195.5,519.5c4.1-17.7,5.9-33.7,2.3-47.1C187,431,151.3,422.5,117.4,437c-30.5,13-49.5,20.2-65.1-0.9
					c-4.5-6.1-6.5-13.1-6.4-20.6c0,0,10.3,31,57.5,8C179.1,386.8,233.8,428.3,195.5,519.5z"/>
			</g>
			<g>
				<path class="st6" d="M206.9,452.1c-5.2,6.2-10.3,14.9-10.5,15.3c-0.3-0.8-0.5-1.6-0.8-2.4c-0.3-0.8-0.6-1.5-0.9-2.3
					c-0.2-0.6-0.5-1.1-0.7-1.7c-0.1-0.3-0.2-0.6-0.4-0.9c-0.2-0.4-0.3-0.7-0.5-1.1c-0.1-0.3-0.3-0.7-0.5-1c-0.2-0.4-0.4-0.9-0.7-1.3
					c-0.1-0.3-0.3-0.5-0.4-0.7c-0.2-0.4-0.5-0.9-0.7-1.3c-0.1-0.2-0.2-0.4-0.3-0.5c-0.3-0.5-0.6-1-1-1.5c-0.1-0.1-0.2-0.3-0.3-0.4
					c-0.2-0.3-0.4-0.7-0.7-1c-0.3-0.4-0.6-0.9-0.9-1.3c-0.1-0.2-0.3-0.4-0.4-0.5c-0.3-0.4-0.5-0.7-0.8-1c-0.2-0.2-0.3-0.5-0.5-0.7
					c-0.4-0.5-0.8-0.9-1.2-1.4c0,0,0-0.1-0.1-0.1c-0.3-0.4-0.7-0.8-1.1-1.2c-0.8-0.9-1.7-1.7-2.6-2.5c-0.3-0.3-0.7-0.6-1-0.9
					c-2-1.7-4.2-3.3-6.4-4.6c-0.2-0.1-0.5-0.3-0.7-0.4c-0.4-0.3-0.9-0.5-1.3-0.7c-0.6-0.3-1.1-0.6-1.7-0.9c-0.1-0.1-0.2-0.1-0.3-0.1
					c-0.5-0.2-0.9-0.4-1.4-0.6c-0.3-0.1-0.5-0.2-0.8-0.3c-0.3-0.1-0.7-0.3-1.1-0.4c-0.3-0.1-0.6-0.2-0.9-0.3
					c-0.3-0.1-0.5-0.2-0.8-0.3c-0.4-0.1-0.8-0.3-1.1-0.4c-0.3-0.1-0.7-0.2-1-0.3c-0.2-0.1-0.5-0.1-0.7-0.2c-0.5-0.1-1-0.3-1.5-0.4
					c-0.1,0-0.2-0.1-0.3-0.1c-0.6-0.1-1.2-0.3-1.7-0.4c-0.1,0-0.2-0.1-0.3-0.1c-0.7-0.1-1.3-0.2-2-0.3c-0.5-0.1-1.1-0.2-1.7-0.2
					c-0.8-0.1-1.7-0.2-2.5-0.2c-0.5,0-1-0.1-1.5-0.1c-10.5-0.5-21.7,1.8-32.7,6.5c-30.5,13-49.5,20.2-65.1-0.9
					c-4.5-6.1-6.5-13.1-6.4-20.6c0,0,10.3,31,57.5,8C156.6,397.7,199.4,410.5,206.9,452.1z"/>
			</g>
			<g>
				<path class="st2" d="M337.8,745.2c0,0-101.2,41.4-149.3-32.7c-12.7-19.5-18.1-40-19.2-60.6c0.2,2,8.5,65.7,78.1,74.4
					c36.5,4.5,47.8-13.8,50.8-30.3c9-0.5,18.6-2.1,28.8-4.4L337.8,745.2z"/>
			</g>
			<g>
				<path class="st7" d="M258.6,441.3c-4.2,4.8-8.4,2.4-12.6-1.5c-5.7-5.4-9.5,6-16.1,10.5c-6.3,4.3-10.8-8.1-18-3.2
					c-6.2,4.3-15.2,19.7-15.6,20.2c-12.3-37.1-46.5-44.3-79-30.4c-30.5,13-49.5,20.2-65.1-0.9c-24.3-32.7,24-92.9,91.9-94.8
					C207.7,339.4,249.4,380,258.6,441.3z"/>
			</g>
			<g class="st8">
				<path class="st1" d="M258.6,441.3c-1.5,1.7-3,2.5-4.5,2.7c-12.7-54.4-52.9-89.4-112.1-87.7c-48.4,1.4-86.8,32.3-96.1,61.9
					c-1.6-33,41.5-75.2,98.2-76.9C207.7,339.4,249.4,380,258.6,441.3z"/>
			</g>
			<g>
				<path class="st9" d="M206.9,452.1c-5.2,6.2-10.3,14.9-10.5,15.3c-0.3-0.8-0.5-1.6-0.8-2.4c-0.3-0.8-0.6-1.5-0.9-2.3
					c-0.2-0.6-0.5-1.1-0.7-1.7c-0.1-0.3-0.3-0.6-0.4-0.9c-0.2-0.4-0.3-0.7-0.5-1.1c-0.1-0.3-0.3-0.7-0.5-1c-0.2-0.5-0.4-0.9-0.7-1.3
					c-0.1-0.3-0.3-0.5-0.4-0.7c-0.2-0.4-0.5-0.9-0.7-1.3c-0.1-0.2-0.2-0.4-0.3-0.5c-0.3-0.5-0.6-1-1-1.5c-0.1-0.1-0.2-0.3-0.3-0.4
					c-0.2-0.3-0.4-0.7-0.7-1c-0.3-0.4-0.6-0.9-0.9-1.3c-0.1-0.2-0.3-0.4-0.4-0.5c-0.3-0.4-0.5-0.7-0.8-1c-0.2-0.2-0.3-0.5-0.5-0.7
					c-0.4-0.5-0.8-0.9-1.2-1.4c0,0,0-0.1-0.1-0.1c-0.4-0.4-0.7-0.8-1.1-1.2c-0.8-0.9-1.7-1.7-2.6-2.5c-0.3-0.3-0.7-0.6-1-0.9
					c-2-1.7-4.2-3.3-6.4-4.6c-0.2-0.1-0.5-0.3-0.7-0.4c-0.4-0.3-0.9-0.5-1.3-0.7c-0.6-0.3-1.2-0.6-1.7-0.9c-0.1-0.1-0.2-0.1-0.3-0.1
					c-0.5-0.2-0.9-0.4-1.4-0.6c-0.3-0.1-0.5-0.2-0.8-0.3c-0.3-0.1-0.7-0.3-1.1-0.4c-0.3-0.1-0.6-0.2-0.9-0.3
					c-0.3-0.1-0.5-0.2-0.8-0.3c-0.4-0.1-0.8-0.3-1.1-0.4c-0.3-0.1-0.7-0.2-1-0.3c-0.2-0.1-0.5-0.1-0.7-0.2c-0.5-0.1-1-0.3-1.5-0.4
					c-0.1,0-0.2-0.1-0.3-0.1c-0.6-0.1-1.2-0.3-1.7-0.4c-0.1,0-0.2-0.1-0.3-0.1c-0.6-0.1-1.3-0.2-2-0.3c-0.5-0.1-1.1-0.2-1.7-0.2
					c-0.8-0.1-1.7-0.2-2.5-0.2c-0.5,0-1-0.1-1.5-0.1c-10.5-0.5-21.7,1.8-32.7,6.5c-30.5,13-49.5,20.2-65.1-0.9
					c-4.5-6.1-6.5-13.1-6.4-20.6c0,0,10.3,31,57.5,8C156.6,397.7,199.4,410.5,206.9,452.1z"/>
			</g>
			<g>
				<path class="st4" d="M275.9,761.8c-40.3,0-71.9-16-91.8-46.5c-34.6-53.2-17.7-111.5-2.8-163c8.7-30,16.9-58.3,11.6-78.6
					c-4.2-16.1-12.8-27.7-24.8-33.6c-13.5-6.6-30.8-6.1-48.8,1.6C90,454.1,66.7,464,48.2,439.1c-9.3-12.6-9.9-28.9-1.6-46.1
					c12.8-26.4,48.7-55.4,97.4-56.8c40.3-1.2,74.5,14.6,96.2,44.3c30.2,41.5,33.8,103.9,9.9,171.4c-21.1,59.7-22.4,102.3-3.7,123.2
					c18.3,20.5,53.2,17.5,79.3,11.4c2.7-0.6,5.5,1.1,6.1,3.8c0.6,2.7-1.1,5.5-3.8,6.1c-41.2,9.6-72,4.6-89.2-14.5
					c-21.6-24.2-21.1-69,1.7-133.4c22.4-63.3,19.2-123.9-8.6-162c-19.9-27.3-50.3-41.2-87.7-40.2c-44.4,1.3-77,27.4-88.5,51.1
					c-6.6,13.6-6.4,26.2,0.6,35.6c12.6,16.9,26.2,13.2,59.1-0.7c20.7-8.8,41-9.3,57.2-1.3c14.7,7.2,25.1,21.1,30.1,40.1
					c6,23-2.2,51.3-11.6,84c-14.3,49.4-30.5,105.3,1.5,154.6c18.9,29.1,48.6,43.1,88,41.8c30.1-1,54.9-11,55.1-11.1
					c2.6-1,5.6,0.2,6.6,2.8c1.1,2.6-0.2,5.5-2.8,6.6c-1.1,0.4-26.5,10.7-58.3,11.8C279.5,761.7,277.7,761.8,275.9,761.8z"/>
			</g>
		</g>
		<g>
			<g>
				<path class="st1" d="M620.4,644.5c1.5,11.5,10.3,20.4,25.8,28.1c12.1,6,20.3,16.7,30.3,24.2c3,2.2,6.1,4.1,9.6,5.6
					c9.2,3.9,25.7,6.6,30-5.2c4-11-5.2-16.8-12-21.8c-4-2.9-7.2-5.6-6.5-8.9c3.3,1.8,6.6,3.2,9.7,4.2c3.7,1.3,7.1,2.1,10.4,2.5
					c0,0,0,0,0,0h0c15.2,1.8,25.1-5.4,25.3-15.4c0.4-15-14.4-16.8-26.2-18c-3.5-0.3-6.8-0.6-9.3-1.1h0c-1.6-0.3-2.8-0.8-3.7-1.4
					c2.7-0.4,5.2-1,7.5-1.7h0c18.9-5.5,24.2-18.7,21.3-32.7c-2.8-13.4-14.2-20-23.7-19.7c-4.5,0.2-8.6,1.8-11.1,5.1c0,0,0,0,0,0.1
					c-0.1,0.1-0.1,0.2-0.2,0.3c-0.1,0.1-0.1,0.1-0.1,0.1c0,0,0,0,0,0c-0.4,0.5-0.7,1-1,1.6c-4.4,8.9,3.6,14-1.2,19.2
					c-3,3.2-11.7,2.1-16.4-1c-7.2-4.7-10.1-13.7-5.8-17.4c5.2-4.4,14.1,3.5,21.8-1.8c0.1,0,0.1-0.1,0.2-0.1c0.3-0.2,0.6-0.5,0.9-0.7
					c0.1-0.1,0.2-0.2,0.3-0.3c3.2-2.9,5-9.2,3.2-15.5c-1.9-6.9-8.2-13.8-21.9-16.4c-15.8-3-24.9,6.4-31.2,16.4h0
					c-4.7,7.4-7.8,15.2-10.9,18.6c0,0-7.3,6.3-9.2,21.2c-6.4,12.2-5.5,22.6-5.5,22.6C620.1,638.5,620,641.6,620.4,644.5z"/>
			</g>
			<g class="st3">
				<path class="st1" d="M733.2,652.5c5,7.1-2.3,19-15.6,20.7c15.2,1.8,25.1-5.4,25.3-15.4c0.4-15-14.4-16.8-26.2-18
					c-3.5-0.3-6.8-0.6-9.3-1.1h0C709.1,647.3,726.9,643.5,733.2,652.5z"/>
			</g>
			<g class="st3">
				<path class="st1" d="M697.3,588.9c-0.5,0.4,16.6-3.8,24.4,7.3c14.3,20.6-10.5,39.4-10.5,39.4c18.9-5.5,24.2-18.7,21.3-32.7
					c-2.8-13.4-14.2-20-23.7-19.7c-4.5,0.2-8.6,1.8-11.1,5.1c0,0,0,0,0,0.1C697.4,588.7,697.3,588.9,697.3,588.9z"/>
			</g>
			<g class="st3">
				<path class="st1" d="M646.3,572.9c27.8-21.6,56.3,0,48.4,16.6c0,0,0,0,0,0c0.1-0.1,0.1-0.1,0.2-0.2c0.3-0.2,0.6-0.5,0.9-0.7
					c0.1-0.1,0.2-0.2,0.3-0.3c3.2-2.9,5-9.2,3.2-15.5c-1.9-6.9-8.2-13.8-21.9-16.4C661.7,553.4,652.6,562.8,646.3,572.9z"/>
			</g>
			<g>
				<path class="st2" d="M620.4,644.5c1.5,11.5,10.3,20.4,25.8,28.1c12.1,6,20.3,16.7,30.3,24.2c0.1-5.4,1-12.6,5-16.5
					c6.2-6.3,16.1-5.8,22.5-4.9c-4-2.9-7.2-5.6-6.5-8.9c3.3,1.8,6.6,3.2,9.7,4.2c-1.7-4.5-2.6-11-0.5-17.3c1.7-5.2,6.7-10.5,10-13.6
					c-5.7-0.5-10.7-0.9-13-2.5c2.7-0.4,5.2-1,7.5-1.7c-4.9-1.7-9.7-7.3-9.5-13.5s4.6-12.4,2.5-18.2c-2.5-7-3.1-11.3,4.5-20.6
					c-5.4,0.2-10.1,2.6-12.4,7.2c-4.4,8.9,3.6,14-1.2,19.2c-3,3.2-11.7,2.1-16.4-1c-7.2-4.7-10.1-13.7-5.8-17.4
					c5.5-4.7,15.2,4.6,23.2-2.9c3.2-2.9,5-9.2,3.2-15.5c-0.3,0.5-0.6,1.1-0.8,1.8c-5.3,15.7-18.9,1.3-29.1,7.9
					c-10.6,6.8-0.5,34.9-18.6,34.1c7,8.9,24.6-4.9,36.4,4.5c13.5,10.7,9,31.7,0.3,41.6c-13.4,15.2-23.7,4.1-43.4-0.8
					C631.4,658.8,624,650.2,620.4,644.5z"/>
			</g>
			<g>
				<path class="st4" d="M635.3,591.5c5.4-11.4,7.3-23.6,17.2-32.9c7.5-7.6,19.6-9.5,29.6-6.6c6.8,1.7,13.6,5.1,18.1,10.9
					c6.1,7.7,7.2,19.5,1.1,27.6c-3.9,5.2-11.1,7.1-17.1,5.8c-2.7-0.4-5.7-1.5-8-1.1c0,0-0.1,0.1-0.1,0.1c0,0-0.2,0.2-0.2,0.9
					c0,1.3,0.8,3.5,2.1,5.2c2.8,4.1,9.5,6.2,13.4,4.9c0.2-0.3,0.2-0.1,0.1-0.7c-0.9-3.8-2.5-8.4-1.4-12.7
					c3.2-15.4,21.9-17.8,33.4-10.4c15.7,9.2,19.6,33.2,7.7,47c-6.7,7.9-17.3,11.5-26.9,13l2.2-9.1c2.8,1.1,6.8,1.2,10.2,1.6
					c4.4,0.4,8.9,0.9,13.7,2.1c8,1.8,16,7.7,17.2,16.5c2.8,15.8-11,25.6-25.3,25.3c-10,0-19-3.3-27.2-7.6c0,0,7.3-3.4,7.3-3.4
					c0.1-0.1,0-0.4,0.1-0.4c0.9,1.1,2.4,2.2,4,3.3c4.5,3.1,10.4,6.8,13.6,12.1c4.3,6.6,3.5,15.6-1.4,21.9
					c-11.6,13.8-36,5.8-47.6-4.2c-8.8-7.1-15-14.8-23.8-20.8c-6.3-3.9-13-7-18.4-12.3c-8.9-7.8-13.8-20.9-8.4-32
					c0.9,14.9,10.3,23.4,22.8,30c3.2,1.7,6.6,3.1,9.7,5c9.4,5.5,17.5,14.4,25.5,20.6c5.1,4,10.4,6.7,16.7,8c4.9,0.8,10.5,1.7,14-1.9
					c1.7-2.2,2.4-5.8,0.8-8.4c-3.5-5.6-10.2-8.3-14.9-13.7c-2.1-2.2-3.7-6.1-2.8-9.4c0.5-2.7,3.1-4.5,5.8-4c0.5,0.1,1,0.3,1.5,0.5
					c7.1,3.7,14.9,6.4,22.4,6.4c6.4,0.1,13.9-2.5,15.3-8.9c0.5-2.7,0.2-6.1-1.5-8.3c-4.2-5.2-13.3-5.6-20.3-6.4
					c-5.3-0.7-10.1-0.3-15.1-3.4c-3.7-2.4-2.3-8.5,2-9.1c12.7-1.8,26-8.5,25.3-22.9c-0.1-7.3-3.3-14.8-9.7-18.5
					c-9.1-5.6-22.1-2.1-17.4,10.3c1.3,3.8,0.9,8.8-2.2,11.9c-2.2,2.5-6.3,3.5-8.9,3.6c-7.7,0.3-15.4-3.1-19.9-9.2
					c-8.5-10.7-3.5-25.5,11.5-22.1c3.4,0.5,6.7,1.8,9.7,0.2c3.3-2,3.7-6.6,3-10.1c-1.3-6.7-8.3-11.1-14.9-12.9
					c-7.4-2.2-14.7-2-21.1,2.8c-4.2,3-7.9,7.4-11.4,12.1C643.1,582,640.1,587.7,635.3,591.5L635.3,591.5z"/>
			</g>
			<g>
				<path class="st4" d="M697,624.9c14.1,15,9.4,40.4-10.2,48.1c-9.3,3.1-3.9,0.4-0.4-3.8C698.9,656.4,699.9,641.8,697,624.9
					L697,624.9z"/>
			</g>
		</g>
		<g>
			<g>
				<path class="st0" d="M341.8,651.7C289.7,697.5,196,678.5,196,678.5V577c0,0,54.1,4.8,73.8-1.6c21.2-6.9,25.8-84.4,99.4-84.4"/>
			</g>
			<g>
				<path class="st0" d="M369.1,491l-27.3,160.7C289.7,697.5,196,678.4,196,678.4V577c0,0,54.1,4.8,73.8-1.6
					c14-4.6,20.8-40,45.1-63.5v0c1.3-1.3,2.7-2.6,4.2-3.8c11.8-9.9,27.4-16.9,49.1-17.1C368.4,491,368.8,491,369.1,491z"/>
			</g>
			<g>
				<path class="st1" d="M369.1,491l-5.3,31.3l-22,129.4C289.7,697.5,196,678.4,196,678.4V577c0,0,54.1,4.8,73.8-1.6
					c14-4.6,20.8-40,45.1-63.5v0c1.3-1.3,2.6-2.5,4.1-3.7c0,0,0.1-0.1,0.1-0.1c11.8-9.9,27.4-16.9,49.1-17.1
					C368.4,491,368.8,491,369.1,491z"/>
			</g>
			<g>
				<path class="st2" d="M369.1,491l-5.3,31.3c-16.7-3.4-31.9-8.2-44.9-14.1c0,0,0.1-0.1,0.1-0.1c11.8-9.9,27.4-16.9,49.1-17.1
					C368.4,491,368.8,491,369.1,491z"/>
			</g>
			<g class="st3">
				<path class="st1" d="M314.8,511.9c-17.4,27.5-23.4,65-44,71.4c-14.2,4.4-55.9,2.2-74.8,1V577c0,0,54.1,4.8,73.8-1.6
					C283.7,570.8,290.5,535.4,314.8,511.9z"/>
			</g>
			<g>
				<path class="st2" d="M347.7,615.6l-5.9,36.2C289.7,697.5,196,678.5,196,678.5v-38.7c9.1-7,21.9-12.6,32.5-1.6
					c29.8,30.9,54.1-1.9,77.6-41.4C318.7,575.4,335.3,594.1,347.7,615.6z"/>
			</g>
			<g>
				<path class="st4" d="M241.6,687.6c-25.6,0-44.9-3.8-46.6-4.2c-2.4-0.5-4.1-2.6-4.1-5V577c0-1.4,0.6-2.8,1.6-3.7
					c1-1,2.4-1.4,3.9-1.3c0.5,0,53.3,4.6,71.8-1.4c5-1.6,10.1-11.5,15.6-21.9c13.1-25,32.9-62.7,85.3-62.7c2.8,0,5.1,2.3,5.1,5.1
					s-2.3,5.1-5.1,5.1c-46.3,0-63.7,33.1-76.3,57.3c-7,13.4-12.5,23.9-21.5,26.9c-16.9,5.4-55.8,3.3-70.3,2.3v91.7
					c18.3,2.9,93.8,12,137.5-26.3c2.1-1.8,5.3-1.6,7.2,0.5c1.8,2.1,1.6,5.3-0.5,7.2C315.5,681.6,273.6,687.6,241.6,687.6z"/>
			</g>
		</g>
		<g>
			<path class="st1" d="M552.5,721c-33.3,47.4-128.2,43.6-128.2,43.6s-1.8,0.1-5.1,0.1c-20.1,0-94.5-2.8-123.2-43.7
				c-28.8-41.1-15.4-90.5,4.1-126.4c1.7-3.1,3.4-6.1,5.2-9c7.2-11.9,13.3-35.3,28.9-64.2l90.1-85.5l90.1,85.5
				c15.7,28.9,21.7,52.3,28.9,64.2c1.8,2.9,3.5,5.9,5.2,9C567.9,630.5,581.3,680,552.5,721z"/>
		</g>
		<g>
			<path class="st1" d="M553.3,721.7c-33.5,47.7-129,43.9-129,43.9s-1.8,0.1-5.1,0.1c-20.2,0-95.1-2.9-123.9-43.9
				c-14.6-20.8-18.4-43.8-16.1-66.1c2.3-21.9,10.5-43.1,20.2-61c1.7-3.1,3.4-6.2,5.2-9.1c7.2-11.9,13.3-35.5,29.1-64.6l90.6-86
				l90.6,86c15.7,29.1,21.9,52.6,29.1,64.6c1.8,2.9,3.5,6,5.2,9.1c9.7,17.9,17.9,39.1,20.2,61C571.7,677.9,567.9,700.9,553.3,721.7z
				"/>
		</g>
		<g>
			<path class="st2" d="M553.3,721.7c-33.5,47.7-129,43.9-129,43.9s-1.8,0.1-5.1,0.1c-20.2,0-95.1-2.9-123.9-43.9
				c-14.6-20.8-18.4-43.8-16.1-66.1c16,1.9,37.2,7.8,58,25.9c31,26.9,64.3,41,87.1,41c22.8,0,56.1-14.1,87.1-41
				c20.8-18.1,42-24,58-25.9C571.7,677.9,567.9,700.9,553.3,721.7z"/>
		</g>
		<g>
			<path class="st2" d="M514.5,514.3c-25.3,8.8-56.5,14-90.2,14c-33.8,0-64.9-5.2-90.2-13.9c12.7-17.8,61.9-84.2,90.2-84.2
				C452.6,430.1,501.8,496.4,514.5,514.3z"/>
		</g>
		<g>
			<path class="st4" d="M514.9,520.9c14.6,17.1,22.5,38.9,31.8,58.7c3.7,6.5,7.7,12.8,11,19.5c21.7,41.4,28.5,94.6-4.2,132.5
				c-30,33.2-86.8,40.4-129.4,39.1c0,0,0.2-10.3,0.2-10.3c0,0,0.2,10.3,0.2,10.3c-42.5,1.3-99.4-5.9-129.3-39.2
				c-32.7-38.2-25.9-90.6-4.1-132.4c4.9-10,11.4-18.8,15.7-29.1c7.6-16.9,15.6-34.3,26.9-49.1c-3.8,10.5-11.1,31.5-14.6,42.1
				c-2.7,7.9-5.4,16.2-9.6,23.9c-1.3,2.4-2.8,4.8-4.1,7.2c-21.9,39.3-32.7,92.2-0.9,129.1c27.2,29.8,80.9,36.6,119.5,37.1
				c0,0,0.2,10.3,0.2,10.3c0,0,0.2-10.3,0.2-10.3c14.3,0,29.2-1.3,43.4-3.5c33.9-5.5,72.1-17.5,87.3-50.8c9.2-19,10.6-40.6,6.5-61.4
				c-3.9-20.2-12.3-39.8-22.8-57.6c-4.2-7.7-7.1-16-9.9-23.8C524.2,549.2,519.5,535.4,514.9,520.9L514.9,520.9z"/>
		</g>
		<g>
			<g>
				<path class="st1" d="M228.2,644.5c-1.5,11.5-10.3,20.4-25.8,28.1c-12.1,6-20.3,16.7-30.3,24.2c-3,2.2-6.1,4.1-9.6,5.6
					c-9.2,3.9-25.7,6.6-30-5.2c-4-11,5.2-16.8,12-21.8c4-2.9,7.2-5.6,6.5-8.9c-3.3,1.8-6.6,3.2-9.7,4.2c-3.7,1.3-7.1,2.1-10.4,2.5
					c0,0,0,0,0,0h0c-15.2,1.8-25.1-5.4-25.3-15.4c-0.4-15,14.4-16.8,26.2-18c3.5-0.3,6.8-0.6,9.3-1.1h0c1.6-0.3,2.8-0.8,3.7-1.4
					c-2.7-0.4-5.2-1-7.5-1.7h0c-18.9-5.5-24.2-18.7-21.3-32.7c2.8-13.4,14.2-20,23.7-19.7c4.5,0.2,8.6,1.8,11.1,5.1c0,0,0,0,0,0.1
					c0.1,0.1,0.1,0.2,0.2,0.3c0.1,0.1,0.1,0.1,0.1,0.1c0,0,0,0,0,0c0.4,0.5,0.7,1,1,1.6c4.4,8.9-3.6,14,1.2,19.2
					c3,3.2,11.7,2.1,16.4-1c7.2-4.7,10.1-13.7,5.8-17.4c-5.2-4.4-14.1,3.5-21.8-1.8c-0.1,0-0.1-0.1-0.2-0.1
					c-0.3-0.2-0.6-0.5-0.9-0.7c-0.1-0.1-0.2-0.2-0.3-0.3c-3.2-2.9-5-9.2-3.2-15.5c1.9-6.9,8.2-13.8,21.9-16.4
					c15.8-3,24.9,6.4,31.2,16.4h0c4.7,7.4,7.8,15.2,10.9,18.6c0,0,7.3,6.3,9.2,21.2c6.4,12.2,5.5,22.6,5.5,22.6
					C228.5,638.5,228.6,641.6,228.2,644.5z"/>
			</g>
			<g class="st3">
				<path class="st1" d="M115.4,652.5c-5,7.1,2.3,19,15.6,20.7c-15.2,1.8-25.1-5.4-25.3-15.4c-0.4-15,14.4-16.8,26.2-18
					c3.5-0.3,6.8-0.6,9.3-1.1h0C139.5,647.3,121.7,643.5,115.4,652.5z"/>
			</g>
			<g class="st3">
				<path class="st1" d="M151.3,588.9c0.5,0.4-16.6-3.8-24.4,7.3c-14.3,20.6,10.5,39.4,10.5,39.4c-18.9-5.5-24.2-18.7-21.3-32.7
					c2.8-13.4,14.2-20,23.7-19.7c4.5,0.2,8.6,1.8,11.1,5.1c0,0,0,0,0,0.1C151.2,588.7,151.3,588.9,151.3,588.9z"/>
			</g>
			<g class="st3">
				<path class="st1" d="M202.3,572.9c-27.8-21.6-56.3,0-48.4,16.6c0,0,0,0,0,0c-0.1-0.1-0.1-0.1-0.2-0.2c-0.3-0.2-0.6-0.5-0.9-0.7
					c-0.1-0.1-0.2-0.2-0.3-0.3c-3.2-2.9-5-9.2-3.2-15.5c1.9-6.9,8.2-13.8,21.9-16.4C186.9,553.4,196,562.8,202.3,572.9z"/>
			</g>
			<g>
				<path class="st2" d="M228.2,644.5c-1.5,11.5-10.3,20.4-25.8,28.1c-12.1,6-20.3,16.7-30.3,24.2c-0.1-5.4-1-12.6-5-16.5
					c-6.2-6.3-16.1-5.8-22.5-4.9c4-2.9,7.2-5.6,6.5-8.9c-3.3,1.8-6.6,3.2-9.7,4.2c1.7-4.5,2.6-11,0.5-17.3
					c-1.7-5.2-6.7-10.5-10-13.6c5.7-0.5,10.7-0.9,13-2.5c-2.7-0.4-5.2-1-7.5-1.7c4.9-1.7,9.7-7.3,9.5-13.5s-4.6-12.4-2.5-18.2
					c2.5-7,3.1-11.3-4.5-20.6c5.4,0.2,10.1,2.6,12.4,7.2c4.4,8.9-3.6,14,1.2,19.2c3,3.2,11.7,2.1,16.4-1c7.2-4.7,10.1-13.7,5.8-17.4
					c-5.5-4.7-15.2,4.6-23.2-2.9c-3.2-2.9-5-9.2-3.2-15.5c0.3,0.5,0.6,1.1,0.8,1.8c5.3,15.7,18.9,1.3,29.1,7.9
					c10.6,6.8,0.5,34.9,18.6,34.1c-7,8.9-24.6-4.9-36.4,4.5c-13.5,10.7-9,31.7-0.3,41.6c13.4,15.2,23.7,4.1,43.4-0.8
					C217.2,658.8,224.6,650.2,228.2,644.5z"/>
			</g>
			<g>
				<path class="st4" d="M213.3,591.5c-4.8-3.8-7.8-9.4-11.5-14.1c-3.5-4.7-7.2-9.1-11.4-12.1c-6.5-4.7-13.8-5-21.1-2.8
					c-6.6,1.8-13.6,6.2-14.9,12.9c-1.2,6.1,1.3,12.1,8.4,10.7c3.4-0.4,6.2-1.6,10.2-1.2c5.5,0.3,10.1,5.7,9.8,11.2
					c-0.3,8.3-5.8,15-13.2,18.4c-6.2,2.4-14.4,3.9-19.9-1.5c-2.2-2.2-3.3-6.1-2.8-9c0.6-4.1,2.8-7.6,0.8-11.3
					c-3.3-6-12-5.2-17.6-1.8c-6.4,3.7-9.6,11.2-9.7,18.5c-0.7,14.3,12.6,21.1,25.3,22.8c4.4,0.6,5.8,6.7,2.1,9.1
					c-5,3.1-9.9,2.7-15.1,3.4c-6.9,0.8-16,1.2-20.3,6.4c-1.7,2.2-2,5.6-1.5,8.3c1.5,6.4,8.9,9,15.3,8.9c7.5,0,15.3-2.7,22.5-6.5
					c2.9-1.6,6.7,0.3,7.2,3.5c0.9,3.3-0.7,7.2-2.8,9.4c-4.7,5.4-11.4,8.1-14.9,13.7c-1.6,2.6-0.8,6.1,0.8,8.4
					c3.5,3.6,9.1,2.7,14,1.9c6.3-1.3,11.6-4.1,16.7-8c8-6.2,16.1-15.1,25.5-20.6c3.1-1.9,6.5-3.3,9.7-5c12.5-6.7,22-15.1,22.8-30
					c5.4,11.1,0.5,24.2-8.4,32c-5.4,5.3-12.1,8.4-18.4,12.3c-8.9,5.9-15,13.7-23.8,20.8c-11.6,10-36,18-47.6,4.2
					c-4.9-6.2-5.6-15.2-1.4-21.9c3.2-5.3,9.1-9,13.6-12.1c1.6-1.2,3.1-2.2,4-3.3c0,0,0,0.3,0.1,0.4c0,0,7.3,3.4,7.3,3.4
					c-8.1,4.2-17.2,7.6-27.2,7.6c-14.3,0.3-28.1-9.4-25.3-25.3c2.2-14.7,18.8-17.7,30.8-18.6c3.3-0.4,7.3-0.5,10.2-1.6l2.2,9.1
					c-9.6-1.5-20.2-5.2-26.9-13c-11.8-13.8-8-37.8,7.7-47c11.5-7.4,30.2-5,33.4,10.4c1.1,4.3-0.5,8.9-1.4,12.7
					c0,0.6-0.1,0.4,0.1,0.7c3.9,1.3,10.6-0.8,13.4-4.9c1.5-2,2.6-4.4,1.9-6.1c-0.2-0.1-0.2-0.1-0.6-0.2c-4.1,0.1-8.7,2-13.3,1.5
					c-6.5-0.4-12.5-5.5-14.3-11.7c-3.9-11.2,2.3-23.9,12.5-29.2c9.3-4.9,20.5-6.9,30.4-2.9c9.5,3.8,15.8,13.2,19.4,21.9
					C209.1,580.2,210.4,586.1,213.3,591.5L213.3,591.5z"/>
			</g>
			<g>
				<path class="st4" d="M151.6,624.9c-2.9,17-1.9,31.6,10.7,44.2c1.6,1.9,3.5,3.4,5.1,5.4c-1.2-0.2-2.5-0.6-3.7-0.9
					C142.6,667.1,136.9,640.4,151.6,624.9L151.6,624.9z"/>
			</g>
		</g>
		<g>
			<g>
				<g>
					<path class="st12" d="M221.2,239.1c-25.3-53.3-27-202.9,14.2-221.4c42.6-19.2,142.1,58.5,165.7,90L221.2,239.1z"/>
				</g>
				<g>
					<path class="st7" d="M401.1,107.7l-34.5,25.2L221.2,239.1c-19.9-42-25.2-143.6-6.5-194c5.1-13.6,11.9-23.5,20.6-27.4
						C278-1.4,377.5,76.3,401.1,107.7z"/>
				</g>
				<g class="st8">
					<path class="st1" d="M401.1,107.7l-6.2,4.6c-29.6-34-121-102.8-161.3-84.6c-8.8,3.9-15.6,13.8-20.6,27.4
						c-2.2,6-4.1,12.8-5.7,20.1c1.9-11.1,4.4-21.3,7.6-30c5.1-13.6,11.9-23.5,20.6-27.4C278-1.4,377.5,76.3,401.1,107.7z"/>
				</g>
				<g>
					<path class="st9" d="M366.6,132.9L221.2,239.1c-19.9-42-25.2-143.6-6.5-194c6.8-7.9,14.5-11.7,23.7-10.4
						C282.8,41.1,353.9,115.3,366.6,132.9z"/>
				</g>
			</g>
			<g>
				<g>
					<path class="st4" d="M221.2,244.2c-1.9,0-3.7-1.1-4.6-2.9c-19.5-41.1-26.3-144.3-6.8-197.5c5.9-16,13.8-26.4,23.5-30.7
						c25.6-11.5,65.7,8,94.7,26.3c35.1,22.2,65.4,49.6,77.1,65.2c1.7,2.2,1.2,5.4-1,7.1c-2.2,1.7-5.4,1.2-7.1-1
						C372.4,78,275.5,5.3,237.5,22.4c-7,3.2-13.3,11.8-18.1,25c-18.8,51.1-12.3,150.2,6.4,189.6c1.2,2.5,0.1,5.6-2.4,6.8
						C222.7,244.1,222,244.2,221.2,244.2z"/>
				</g>
			</g>
			<g>
				<path class="st13" d="M242.3,44.9c13.8-8.8,84.6,28.2,87.4,53.7c2.6,24.1-31.7,54.1-37.3,57.2c-5.6,3.1-43.6,31.6-54.3,18.4
					C220.3,152.2,223.8,56.6,242.3,44.9z"/>
			</g>
			<g>
				<path class="st14" d="M292.4,155.8c-5.6,3.1-43.6,31.6-54.3,18.4c-7.1-8.7-10.8-29.1-11.5-51.2c-0.8-22.9,1.6-47.7,6.8-63.3
					c2.4-7.3,5.4-12.6,8.9-14.8c13.8-8.8,84.6,28.2,87.4,53.7C332.3,122.7,298,152.7,292.4,155.8z"/>
			</g>
			<g>
				<path class="st15" d="M292.4,155.8c-5.6,3.1-43.6,31.6-54.3,18.4c-7.1-8.7-10.8-29.1-11.5-51.2c5.1,10.6,12.8,19.9,22.1,12
					c15.2-13,37.4-27.8,34.6-49.4c-1.9-14.5-34.6-34.5-49.9-25.9c2.4-7.3,5.4-12.6,8.9-14.8c13.8-8.8,84.6,28.2,87.4,53.7
					C332.3,122.7,298,152.7,292.4,155.8z"/>
			</g>
			<g>
				<path class="st4" d="M246.5,182.7c-4.9,0-9.2-1.5-12.3-5.4c-14.3-17.7-15-69.9-9.9-100.8c3.2-19.4,8.3-31.5,15.3-36
					c9.4-6,30.1,2.3,41.5,7.8c18.9,9.1,51.4,29.7,53.6,49.6c3,27.2-33.3,58.5-39.8,62.2c-0.6,0.4-2.1,1.3-3.8,2.5
					C280.2,169.8,260.7,182.7,246.5,182.7z M248,48.6c-1.5,0-2.5,0.2-3,0.5l0,0c-3.2,2.1-7.8,10.8-10.7,29
					c-5.8,35.6-2,80.7,7.8,92.8c2.4,2.9,11.1,4.6,43.4-16.8c2.1-1.4,3.5-2.3,4.5-2.9c6.2-3.5,36.9-32.1,34.7-52.2
					c-1.2-11.2-21.8-29.1-47.9-41.6C262.2,50.6,252.7,48.6,248,48.6z M242.3,44.9L242.3,44.9L242.3,44.9z"/>
			</g>
		</g>
		<g>
			<g>
				<g>
					<path class="st12" d="M627.4,239.1c25.3-53.3,27-202.9-14.2-221.4c-42.6-19.2-142.1,58.5-165.7,90L627.4,239.1z"/>
				</g>
				<g>
					<path class="st1" d="M447.5,107.7l34.5,25.2l145.4,106.2c19.9-42,25.2-143.6,6.5-194c-5.1-13.6-11.9-23.5-20.6-27.4
						C570.6-1.4,471.1,76.3,447.5,107.7z"/>
				</g>
				<g class="st8">
					<path class="st1" d="M447.5,107.7l6.2,4.6c29.6-34,121-102.8,161.3-84.6c8.8,3.9,15.6,13.8,20.6,27.4c2.2,6,4.1,12.8,5.7,20.1
						c-1.9-11.1-4.4-21.3-7.6-30c-5.1-13.6-11.9-23.5-20.6-27.4C570.6-1.4,471.1,76.3,447.5,107.7z"/>
				</g>
				<g>
					<path class="st2" d="M482,132.9l145.4,106.2c19.9-42,25.2-143.6,6.5-194c-6.8-7.9-14.5-11.7-23.7-10.4
						C565.8,41.1,494.7,115.3,482,132.9z"/>
				</g>
			</g>
			<g>
				<g>
					<path class="st4" d="M627.4,244.2c-0.7,0-1.5-0.2-2.2-0.5c-2.5-1.2-3.6-4.2-2.4-6.8c18.7-39.4,25.2-138.5,6.4-189.6
						c-4.8-13.2-11.1-21.8-18.1-25c-38-17.1-134.9,55.6-159.5,88.4c-1.7,2.2-4.9,2.7-7.1,1c-2.2-1.7-2.7-4.9-1-7.1
						c11.7-15.6,41.9-43,77.1-65.2c29.1-18.4,69.1-37.9,94.7-26.3c9.7,4.4,17.6,14.7,23.5,30.7c19.6,53.2,12.8,156.3-6.8,197.5
						C631.1,243.1,629.3,244.2,627.4,244.2z"/>
				</g>
			</g>
			<g>
				<path class="st13" d="M606.3,44.9c-13.8-8.8-84.6,28.2-87.4,53.7c-2.6,24.1,31.7,54.1,37.3,57.2c5.6,3.1,43.6,31.6,54.3,18.4
					C628.3,152.2,624.8,56.6,606.3,44.9z"/>
			</g>
			<g>
				<path class="st14" d="M556.2,155.8c5.6,3.1,43.6,31.6,54.3,18.4c7.1-8.7,10.8-29.1,11.5-51.2c0.8-22.9-1.6-47.7-6.8-63.3
					c-2.4-7.3-5.4-12.6-8.9-14.8c-13.8-8.8-84.6,28.2-87.4,53.7C516.3,122.7,550.7,152.7,556.2,155.8z"/>
			</g>
			<g>
				<path class="st15" d="M556.2,155.8c5.6,3.1,43.6,31.6,54.3,18.4c7.1-8.7,10.8-29.1,11.5-51.2c-5.1,10.6-12.8,19.9-22.1,12
					c-15.2-13-37.4-27.8-34.6-49.4c1.9-14.5,34.6-34.5,49.9-25.9c-2.4-7.3-5.4-12.6-8.9-14.8c-13.8-8.8-84.6,28.2-87.4,53.7
					C516.3,122.7,550.7,152.7,556.2,155.8z"/>
			</g>
			<g>
				<path class="st4" d="M602.2,182.7c-14.3,0-33.8-12.9-44.6-20c-1.7-1.1-3.2-2.1-3.8-2.5c-6.5-3.7-42.8-35-39.8-62.2
					c2.2-19.9,34.7-40.6,53.6-49.6c11.5-5.5,32.1-13.8,41.5-7.8l0,0c7,4.4,12.1,16.5,15.3,36c5,30.9,4.4,83.1-9.9,100.8
					C611.4,181.2,607.1,182.7,602.2,182.7z M600.6,48.6c-4.7,0-14.1,1.9-28.7,8.9c-26.1,12.5-46.7,30.4-47.9,41.6
					c-2.2,20.1,28.5,48.7,34.7,52.2c0.9,0.5,2.3,1.5,4.5,2.9c32.3,21.3,41.1,19.7,43.4,16.8c9.8-12.1,13.6-57.2,7.8-92.8
					c-3-18.3-7.5-27-10.7-29C603.1,48.8,602.1,48.6,600.6,48.6z"/>
			</g>
		</g>
		<g>
			<path class="st1" d="M655.8,385.7c11.1,11.1,16.6,25.8,13.6,34.6c-4.7,14.2-29.8,9-36.4,14.8c-32,34.3-90.4,64-174,69.1
				c0,0-15.5,0.7-35.1,0.7c-19.6,0-35.1-0.7-35.1-0.7c-83.5-5.1-142-34.7-174-69.1c-6.6-5.8-31.6-0.5-36.4-14.8
				c-2.9-8.8,2.5-23.6,13.6-34.6c-21.9-10.1-28.4-28.6-24.9-39c3-8.9,23.5-6.8,23.5-16.8c0.4-73.8,25.3-145.2,61.7-187.7
				c0,0,11.4-13.1,23.8-24.3c10.8-9.7,28.7-20,28.7-20c34-20.4,74.3-31.5,118.9-31.5S508.9,77.4,543,97.8c0,0,17.9,10.3,28.7,20
				c12.4,11.2,23.8,24.3,23.8,24.3c36.4,42.5,61.3,113.9,61.7,187.7c0.1,10,20.6,7.9,23.5,16.8C684.2,357.1,677.8,375.6,655.8,385.7
				z"/>
		</g>
		<g>
			<path class="st1" d="M655.8,385.7c11.1,11.1,16.6,25.8,13.6,34.6c-4.7,14.2-29.8,9-36.4,14.8c-32,34.3-90.4,64-174,69.1
				c0,0-15.5,0.7-35.1,0.7s-35.1-0.7-35.1-0.7c-83.5-5.1-142-34.7-174-69.1c-6.6-5.8-31.7-0.5-36.4-14.8
				c-2.9-8.8,2.5-23.6,13.6-34.6c-21.9-10.1-28.4-28.6-24.9-39c3-8.9,23.5-6.8,23.5-16.8c0.1-21.6,2.3-42.9,6.3-63.4
				c9.6-49.7,29.6-94.2,55.4-124.3c0,0,11.4-13.1,23.8-24.3c10.8-9.7,28.7-20,28.7-20c31.1-18.7,67.5-29.5,107.6-31.2
				c3.7-0.2,7.5-0.2,11.3-0.2c44.6,0,84.9,11.1,118.9,31.5c0,0,17.9,10.3,28.7,20c12.4,11.2,23.8,24.3,23.8,24.3
				c36.4,42.5,61.3,113.9,61.7,187.8c0.1,10,20.6,7.9,23.5,16.8C684.2,357.1,677.8,375.6,655.8,385.7z"/>
		</g>
		<g>
			<path class="st7" d="M197.3,266.5L197.3,266.5c9.6-49.7,29.6-94.2,55.4-124.3c0,0,11.4-13.1,23.8-24.3c10.8-9.7,28.7-20,28.7-20
				c31.1-18.7,67.5-29.5,107.6-31.2C447.5,239.1,337.7,309.8,197.3,266.5z"/>
		</g>
		<g>
			<g>
				<g>
					<path class="st4" d="M448.1,346c0,7-10.5,16-23.9,19.4c-13.4-3.3-24-12.4-24-19.4c0-6,18-7.4,23.9-7.4S448.1,340,448.1,346z"/>
				</g>
				<g class="st16">
					<path class="st1" d="M435.5,344.3c0,2.1-5,4.8-11.3,5.9c-6.3-1-11.3-3.7-11.3-5.9c0-1.8,8.5-2.2,11.3-2.3
						C427,342,435.5,342.4,435.5,344.3z"/>
				</g>
			</g>
		</g>
		<g>
			<path class="st2" d="M579.9,473.9L579.9,473.9c-31.5,15.9-71.8,27.3-120.7,30.3c0,0-15.5,0.7-35.1,0.7c-19.6,0-35.1-0.7-35.1-0.7
				c-48.4-2.9-88.4-14.1-119.7-29.7c-0.1-0.1-0.3-0.3-0.4-0.4c31.4,4.3,67.5,14.9,155.2,14.9C512.3,488.9,548.3,478.1,579.9,473.9z"
				/>
		</g>
		<g>
			<path class="st4" d="M543.8,98.3c-31-12.7-62.9-22.6-96.4-25c-6.8-0.5-16.1-0.9-22.9-0.9c-41.2-0.7-81.4,9.6-119.4,25.4
				c8.1-6.8,17.1-12.4,26.6-17.2C394.1,49.6,489,53,543.8,98.3L543.8,98.3z"/>
		</g>
		<g>
			<path class="st4" d="M389,504.2c-64.2,0.4-132.4-17.8-178.2-65.1c0,0,0.4,0.4,0.4,0.4c-1.9-1-4.1-1.2-6.4-1.6
				c-8.9-1.2-19.4-1.5-26.8-8.2c-13.7-13.7-0.7-37,10.7-47.6c0,0,1.5,8.2,1.5,8.2c-17.2-7-33.8-25.6-28.4-45.4
				c1.8-5.7,7.6-8.8,12.6-10.5c3.9-1.5,8.1-2.3,10.5-4.4c0.6-55.1,13.9-114.4,44.2-161c6.8-9.8,14.5-19.1,23.7-26.8
				c-12.2,20.4-22.5,40.9-31.3,62.3c-15.5,38.9-23.4,80.7-24.2,122.5l0,2.2l0,0.5c0,2.4-0.7,5-2,7c-5.1,7.6-15.4,7.1-21.8,11.7
				c-0.3,0.2-0.3,0.4-0.3,0.6c-1,3.4-0.5,7,0.6,10.5c3.2,9.7,11.7,17.1,20.9,21.7l6.6,3.2c0,0-5.1,5-5.1,5
				c-6.6,7.2-14.7,20-11.5,29.8c2,4.1,7.5,5.1,12.3,5.9c4.8,0.8,10.2,1.1,15.4,2.3c2,0.6,4.9,1.4,7.3,3.7
				C263,477.2,327.6,495.7,389,504.2L389,504.2z"/>
		</g>
		<g>
			<path class="st4" d="M459.2,504.2c61.4-8.4,126-26.9,169.7-73c2.4-2.3,5.3-3.2,7.3-3.7c5.1-1.3,10.5-1.5,15.4-2.3
				c4.7-0.8,10.3-1.8,12.3-5.9c3.2-9.8-4.9-22.6-11.5-29.8l-5.1-5l6.6-3.2c9.2-4.6,17.7-12,20.9-21.7c1.2-3.6,1.7-7.4,0.5-10.9
				c-1.1-1.3-3.4-2.1-5.3-2.8c-5.4-1.9-12.9-3.5-16.7-9.1c-1.4-2-2-4.6-2-7c0-0.8,0-2-0.1-2.7c-0.8-41.8-8.6-83.7-24.2-122.5
				c-8.8-21.4-19.1-41.9-31.3-62.3c9.2,7.6,16.9,16.9,23.7,26.8c30.3,46.6,43.6,105.9,44.2,161c2.4,2.1,6.6,2.9,10.5,4.4
				c5,1.7,10.8,4.8,12.6,10.5c5.4,19.9-11.3,38.4-28.4,45.4c0,0,1.5-8.2,1.5-8.2c11.5,10.6,24.4,33.9,10.7,47.6
				c-7.4,6.8-17.9,7-26.8,8.2c-2.3,0.4-4.5,0.6-6.4,1.6l0.4-0.4C591.6,486.4,523.4,504.5,459.2,504.2L459.2,504.2z"/>
		</g>
		<g>
			<path class="st4" d="M274.9,311c10.6,21.2,33.8,36.2,57.3,32.5c16.7-1.7,29.3-15.6,35.3-31.3c2.4-5.8,4.1-11.9,5.5-18.6
				c1.3,3.2,2.2,6.5,2.7,9.9c1.6,10.7,0.1,21.5-4.7,31.5c-14.2,30.2-54.9,34.4-78.9,13.5C281.4,339.1,273.9,325.2,274.9,311
				L274.9,311z"/>
		</g>
		<g>
			<path class="st4" d="M573.3,311c0.9,14.2-6.6,28.1-17.3,37.5c-24,20.9-64.7,16.7-78.9-13.5c-4.8-10-6.3-20.8-4.7-31.5
				c0.5-3.4,1.4-6.8,2.7-9.9c1.4,6.7,3.1,12.9,5.5,18.6c6,15.6,18.6,29.6,35.3,31.3C539.5,347.2,562.7,332.2,573.3,311L573.3,311z"
				/>
		</g>
		<g>
			<path class="st4" d="M301.6,216.2c2.8-10.7,24.8-46.4,45.3-30.7c7.2,5.5,5.7,20.8-4.4,23.4C327.7,212.5,324.5,210.6,301.6,216.2z
				"/>
		</g>
		<g>
			<path class="st4" d="M547.4,216.3c-2.8-10.7-24.8-46.4-45.3-30.8c-7.2,5.5-5.7,20.8,4.4,23.4
				C521.3,212.6,524.5,210.7,547.4,216.3z"/>
		</g>
		<g>
			<g>
				<g>
					<g>
						<path class="st17" d="M378.8,787c0,1.7,0.1,3.4,0.3,4.9c4.3,40,60.1,43.4,80.1,43.4c28.7,0,135.9-9.8,166.8-83.5
							c8.5-20.4,7.4-41.1-0.2-57.5v0c-5.4-11.6-13.9-21-24.5-26.7c-16.7-9-38.3-8.6-60.6,7.3l5.9,4c-0.5,0.2-0.9,0.4-1.4,0.6
							c-49.1,20.8-57.6,41.8-98.8,57.5c-42-3.8-61.8,6.2-66.5,34.8c0,0,0,0,0,0.1C379.2,776.3,378.8,781.4,378.8,787z"/>
					</g>
					<g>
						<path class="st1" d="M378.8,786.9c0,1.7,0.1,3.4,0.3,4.9c4.3,40,60.1,43.4,80.1,43.4c3.9,0,9.4-0.2,16-0.7
							c40.9-3.2,124.2-19.3,150.9-82.8c8.5-20.4,7.4-41.1-0.2-57.5v0c-5.4-11.6-13.9-21-24.5-26.7c-16.7-9-38.3-8.6-60.6,7.3l5.9,4
							c-0.5,0.2-0.9,0.4-1.4,0.6c-46,19.5-56.4,39.2-91.3,54.4c-2.4,1-4.9,2.1-7.5,3c-42-3.8-61.8,6.2-66.5,34.8c0,0,0,0,0,0.1
							C379.2,776.3,378.8,781.4,378.8,786.9z"/>
					</g>
					<g>
						<path class="st1" d="M378.8,786.9c0,1.7,0.1,3.4,0.3,4.9c4.3,40,60.1,43.4,80.1,43.4c3.9,0,9.4-0.2,16-0.7
							C445,803.9,437,777,453.9,733.8c-2.4,1-4.9,2.1-7.5,3c-42-3.8-61.8,6.2-66.5,34.8c0,0,0,0,0,0.1
							C379.2,776.3,378.8,781.4,378.8,786.9z"/>
					</g>
					<g>
						<path class="st2" d="M379.1,791.9c4.3,40,60.1,43.4,80.1,43.4c28.7,0,135.9-9.8,166.8-83.5c8.5-20.4,7.4-41.1-0.2-57.5
							c-0.9,43.7-18.1,84.7-76,107.8c-68.6,27.4-103.8-6.6-105.3-40c-8.6,9.5,2.3,41.2-12.2,50.5
							C422.4,818.8,390.2,815.1,379.1,791.9z"/>
					</g>
					<g>
						<path class="st2" d="M379.1,791.9c4.3,40,60.1,43.4,80.1,43.4c0.7,0,1.5,0,2.4,0c0.3,0,0.6,0,0.9,0c0.7,0,1.4,0,2.1-0.1
							c0.5,0,1.1,0,1.6-0.1c2.7-0.1,5.7-0.3,8.9-0.5c-20.9-21.3-31.1-40.8-29.8-65.1c-0.5-2.4-0.8-4.9-0.9-7.4
							c-8.6,9.5,2.3,41.2-12.2,50.5C422.4,818.8,390.2,815.1,379.1,791.9z"/>
					</g>
					<g class="st3">
						<path class="st1" d="M379.9,771.7c15-39.1,66-22.5,66-22.5s17.9-2.8,49.3-29.3c45.5-38.5,63.1-39.7,63.1-41
							c0-1.3-6.5-1.7-13,0.6c-49.1,20.8-57.6,41.8-98.8,57.5C404.4,733.1,384.6,743.1,379.9,771.7z"/>
					</g>
					<g>
						<path class="st2" d="M540.7,674.8l5.9,4c9.1-3.8,17-18.1,54.7-11.3C584.7,658.5,563,658.9,540.7,674.8z"/>
					</g>
					<g>
						<path class="st2" d="M379.1,791.9c4.3,40,60.1,43.4,80.1,43.4c0.7,0,1.5,0,2.4,0c0.3,0,0.6,0,0.9,0c0.7,0,1.4,0,2.1-0.1
							c0.5,0,1.1,0,1.6-0.1c2.7-0.1,5.7-0.3,8.9-0.5c-20.9-21.3-31.1-40.8-29.8-65.1c-0.5-2.4-0.8-4.9-0.9-7.4
							c-8.6,9.5,2.3,41.2-12.2,50.5C422.4,818.8,390.2,815.1,379.1,791.9z"/>
					</g>
				</g>
				<g>
					<g>
						<path class="st4" d="M546.6,678.8c-14.6,8.8-28.6,17.7-41.8,28.2c-9.6,7.4-19.1,15.3-29.5,21.8c-8.5,5.4-17.6,9.8-26.9,13.3
							c-0.8,0.3-1.7,0.4-2.5,0.3c-16.3-1.3-33.8-2.6-47.7,6.2c-13.4,9.2-14.9,27.8-14,42.9c2.3,23.1,26.3,32.7,46.8,36.2
							c22.5,4,45.7,2.3,68.2-1.5c43.7-7.6,90.7-24.9,115.1-64.2c5.7-9.3,9.9-19.6,11.4-30.5c3.2-21-4.7-44.5-22.3-57
							c-18.8-13.8-42.6-10.3-62.6,0.1c8.4-8.3,19.4-14.7,31.9-16.6c41.7-6.4,70.3,37,64.4,75.1c-2.5,18.6-11.7,35.8-23.9,49.8
							c-28.5,32-71.1,46.5-112.2,53.5c-33.9,5.3-76.1,7.4-106.4-11.5c-10.9-6.9-19.2-19.2-20.4-32.3c-0.9-12.6,0.1-25.6,5.4-37.2
							c8.7-19.2,30.1-24.6,49.3-24.9c6.1-0.2,12.1,0.1,18.1,0.6l-2.5,0.3c8.7-3.4,17.1-7.4,25.2-12.2c9.5-5.6,20.7-13.8,30-19.8
							C514.1,690.4,530,683,546.6,678.8L546.6,678.8z"/>
					</g>
				</g>
				<g>
					<path class="st18" d="M420.6,760.4c-11.3-0.8-23-0.6-33.9,2.7c-0.5,0.2-1.3,0.4-1.8,0.6l-2.5-9.8
						C395.4,752.8,408.4,756.1,420.6,760.4L420.6,760.4z"/>
				</g>
				<g>
					<path class="st18" d="M415.8,793.3c-6.4,0.5-13.2,0.7-19.6,0.1c-6.9-0.7-14.1-1.7-20.4-5.1c0,0,6-8.1,6-8.1
						c0.7,0.8,2,1.7,3,2.3C394.1,788.3,405.2,791.2,415.8,793.3L415.8,793.3z"/>
				</g>
				<g>
					<path class="st18" d="M450.7,800c-14.1-10.4-16.2-34.5-2.8-46.3c-0.5,4.4-1.1,8.2-1.4,12C445.7,777.5,448,788.3,450.7,800
						L450.7,800z"/>
				</g>
			</g>
			<g>
				<g>
					<g>
						<path class="st17" d="M469.2,787c0,1.7-0.1,3.4-0.3,4.9c-4.3,40-60.1,43.4-80.1,43.4c-28.7,0-135.9-9.8-166.8-83.5
							c-8.5-20.4-7.4-41.1,0.2-57.5v0c5.4-11.6,13.9-21,24.5-26.7c16.7-9,38.3-8.6,60.6,7.3l-5.9,4c0.5,0.2,0.9,0.4,1.4,0.6
							c49.1,20.8,57.6,41.8,98.8,57.5c42-3.8,61.8,6.2,66.5,34.8c0,0,0,0,0,0.1C468.8,776.3,469.2,781.4,469.2,787z"/>
					</g>
					<g>
						<path class="st1" d="M469.2,786.9c0,1.7-0.1,3.4-0.3,4.9c-4.3,40-60.1,43.4-80.1,43.4c-3.9,0-9.4-0.2-16-0.7
							c-40.9-3.2-124.2-19.3-150.9-82.8c-8.5-20.4-7.4-41.1,0.2-57.5v0c5.4-11.6,13.9-21,24.5-26.7c16.7-9,38.3-8.6,60.6,7.3l-5.9,4
							c0.5,0.2,0.9,0.4,1.4,0.6c46,19.5,56.4,39.2,91.3,54.4c2.4,1,4.9,2.1,7.5,3c42-3.8,61.8,6.2,66.5,34.8c0,0,0,0,0,0.1
							C468.8,776.3,469.2,781.4,469.2,786.9z"/>
					</g>
					<g>
						<path class="st1" d="M469.2,786.9c0,1.7-0.1,3.4-0.3,4.9c-4.3,40-60.1,43.4-80.1,43.4c-3.9,0-9.4-0.2-16-0.7
							C403,803.9,411,777,394.1,733.8c2.4,1,4.9,2.1,7.5,3c42-3.8,61.8,6.2,66.5,34.8c0,0,0,0,0,0.1
							C468.8,776.3,469.2,781.4,469.2,786.9z"/>
					</g>
					<g>
						<path class="st2" d="M468.9,791.9c-4.3,40-60.1,43.4-80.1,43.4c-28.7,0-135.9-9.8-166.8-83.5c-8.5-20.4-7.4-41.1,0.2-57.5
							c0.9,43.7,18.1,84.7,76,107.8c68.6,27.4,103.8-6.6,105.3-40c8.6,9.5-2.3,41.2,12.2,50.5C425.7,818.8,457.8,815.1,468.9,791.9z
							"/>
					</g>
					<g>
						<path class="st2" d="M468.9,791.9c-4.3,40-60.1,43.4-80.1,43.4c-0.7,0-1.5,0-2.4,0c-0.3,0-0.6,0-0.9,0c-0.7,0-1.4,0-2.1-0.1
							c-0.5,0-1.1,0-1.6-0.1c-2.7-0.1-5.7-0.3-8.9-0.5c20.9-21.3,31.1-40.8,29.8-65.1c0.5-2.4,0.8-4.9,0.9-7.4
							c8.6,9.5-2.3,41.2,12.2,50.5C425.7,818.8,457.8,815.1,468.9,791.9z"/>
					</g>
					<g class="st3">
						<path class="st1" d="M468.1,771.7c-15-39.1-66-22.5-66-22.5s-17.9-2.8-49.3-29.3c-45.5-38.5-63.1-39.7-63.1-41
							c0-1.3,6.5-1.7,13,0.6c49.1,20.8,57.6,41.8,98.8,57.5C443.6,733.1,463.4,743.1,468.1,771.7z"/>
					</g>
					<g>
						<path class="st2" d="M307.3,674.8l-5.9,4c-9.1-3.8-17-18.1-54.7-11.3C263.4,658.5,285,658.9,307.3,674.8z"/>
					</g>
					<g>
						<path class="st2" d="M468.9,791.9c-4.3,40-60.1,43.4-80.1,43.4c-0.7,0-1.5,0-2.4,0c-0.3,0-0.6,0-0.9,0c-0.7,0-1.4,0-2.1-0.1
							c-0.5,0-1.1,0-1.6-0.1c-2.7-0.1-5.7-0.3-8.9-0.5c20.9-21.3,31.1-40.8,29.8-65.1c0.5-2.4,0.8-4.9,0.9-7.4
							c8.6,9.5-2.3,41.2,12.2,50.5C425.7,818.8,457.8,815.1,468.9,791.9z"/>
					</g>
				</g>
				<g>
					<g>
						<path class="st4" d="M301.4,678.8c16.7,4.2,32.5,11.6,47,20.8c9.3,6,20.5,14.2,30,19.8c8,4.8,16.4,8.8,25.2,12.2l-2.5-0.3
							c6-0.5,12-0.8,18.1-0.6c19.2,0.3,40.6,5.7,49.3,24.9c5.3,11.6,6.4,24.6,5.4,37.2c-1.2,13.1-9.4,25.4-20.4,32.3
							c-30.2,18.9-72.4,16.8-106.4,11.5c-41.1-7-83.8-21.5-112.2-53.5c-12.2-14-21.4-31.2-23.9-49.8c-5.9-38.1,22.6-81.5,64.4-75.1
							c12.5,2,23.5,8.3,31.9,16.6c-20-10.4-44-13.8-62.6-0.1c-17.6,12.5-25.4,36-22.3,57c1.5,10.8,5.7,21.1,11.4,30.5
							c24.4,39.3,71.4,56.6,115.1,64.2c22.5,3.8,45.7,5.5,68.2,1.5c22-3.7,47.1-14.7,47-40.1c0.1-14-1.8-30.6-14.3-39
							c-13.9-8.9-31.4-7.5-47.7-6.2c-0.9,0.1-1.7,0-2.5-0.3c-9.4-3.5-18.5-8-26.9-13.3c-10.3-6.5-19.9-14.4-29.5-21.8
							C329.9,696.5,316,687.6,301.4,678.8L301.4,678.8z"/>
					</g>
				</g>
				<g>
					<path class="st4" d="M427.4,760.4c12.2-4.3,25.2-7.6,38.2-6.5l-2.5,9.8c-0.4-0.2-1.2-0.5-1.8-0.6
						C450.5,759.8,438.7,759.5,427.4,760.4L427.4,760.4z"/>
				</g>
				<g>
					<path class="st4" d="M432.2,793.3c10.6-2,21.7-5,30.9-10.8c1-0.7,2.3-1.5,3-2.3l6,8.1c-6.3,3.3-13.5,4.4-20.4,5.1
						C445.4,794,438.6,793.8,432.2,793.3L432.2,793.3z"/>
				</g>
				<g>
					<path class="st4" d="M397.3,800c2.8-11.6,5-22.4,4.2-34.3c-0.3-3.8-0.9-7.7-1.4-12C413.4,765.5,411.4,789.6,397.3,800
						L397.3,800z"/>
				</g>
			</g>
		</g>
		<g>
			<g>
				<path class="st4" d="M358.8,363.7c12.4,2.2,21.8,4.4,32.9,4.5c11.1-0.2,20.4-2.4,32.9-4.8c-2.6,15.5-17.3,25.9-32.8,26
					C376.3,389.4,361.5,379.2,358.8,363.7L358.8,363.7z"/>
			</g>
			<g>
				<path class="st4" d="M424.6,363.7c12.4,2.2,21.8,4.4,32.9,4.5c11.1-0.2,20.4-2.4,32.9-4.8c-2.6,15.5-17.3,25.9-32.8,26
					C442.1,389.4,427.3,379.2,424.6,363.7L424.6,363.7z"/>
			</g>
		</g>
		<g>
			<path class="st4" d="M410.9,489c15.4-10.5,59.7-65,23.6-88.8c-12.7-8.4-36.1,2.5-34.6,20C402.2,445.7,407,449.6,410.9,489z"/>
		</g>
	</g>
</g>
<g id="圖層_1">
</g>
</svg>
