<?xml version="1.0" encoding="utf-8"?>
<!-- Generator: Adobe Illustrator 21.0.0, SVG Export Plug-In . SVG Version: 6.00 Build 0)  -->
<svg version="1.1" xmlns="http://www.w3.org/2000/svg" xmlns:xlink="http://www.w3.org/1999/xlink" x="0px" y="0px"
	 viewBox="0 0 900 900" style="enable-background:new 0 0 900 900;" xml:space="preserve">
<style type="text/css">
	.st0{fill:#25383F;}
	.st1{fill:#2F5261;}
	.st2{fill:#E28E1E;}
	.st3{fill:#F8A528;}
	.st4{fill:#FFFFFF;}
	.st5{fill:#EAEAEA;}
	.st6{fill:#FFA9A9;}
	.st7{fill:#F28686;}
	.st8{fill:#997967;}
	.st9{fill:#C3A28C;}
	.st10{fill:#F9E8C3;}
	.st11{fill:#E2D5BA;}
	.st12{fill:#E2E2E2;}
	.st13{fill:#000072;}
	.st14{fill:#25383F;stroke:#000072;stroke-width:8.3508;stroke-miterlimit:10;}
</style>
<g id="圖層_1">
	<g id="圖層_2">
		<g>
			<path class="st0" d="M577.3,197c-0.1,11.7,2.7,23.1,6,34.1c3.3,10.6,8.2,20.7,16.2,29c13.9,14.3,31.3,22,50.3,26.1
				c15.1,3.3,30.5,2.5,45.8,0.9c11-1.2,21.6-3.4,31.3-9c3.8-2.2,7.4-4.8,11.2-7c5.7-3.4,10.6-7.4,14.8-12
				c-14.7-1.7-29.5-3.7-44.5-5.9C659.9,245.4,616.6,224,577.3,197z"/>
			<path class="st1" d="M757.8,152.3c-4.8-7.9-9.3-15.9-15.4-23.1c-12.1-14.5-27.5-24-45-30.2c-2.2-0.8-4.5-1.8-6.8-1.3
				c-5,1.2-9.6-0.3-14.4-0.9c-10-1.3-20-3-29.7,2c-1.2,0.6-2.9,0.7-4.3,0.7c-2.6,0.1-5,0.9-7.3,1.8c-18.9,7-33.5,19.5-43.4,36.9
				c-9.9,17.3-13.6,36.5-14.1,56.3c0,0.9-0.1,1.7-0.1,2.6c39.3,27,82.6,48.4,131.1,56.2c15,2.2,29.8,4.2,44.5,5.9
				c6-6.7,10.4-14.7,13.1-24C774.6,206.2,773.9,178.6,757.8,152.3z"/>
			<path class="st1" d="M634.4,240.4c-4.4,0.1-9.3,5.7-9.2,10.4c0.2,5.7,5.9,11.5,11.4,11.5c4.9,0,8.4-4.8,8.3-11.4
				C644.9,245.6,639.6,240.3,634.4,240.4z"/>
			<path class="st1" d="M743.7,160.8c-2.2,6.3-10,8.1-14.1,2.9c-5.9-7.4-12.4-14.3-18.8-21.2c-2.9-3.1-4.4-7.2-3-11.7
				c2.4-7.7,8.4-10.6,15.8-7.2c6.4,2.9,11.8,7.4,16.5,12.5c4.3,4.7,4.4,11.2,5.1,18C744.7,155.9,744.5,158.5,743.7,160.8z"/>
		</g>
		<g>
			<path class="st1" d="M332.9,190.7c0-4.2-0.1-7.8-0.7-11.3c-2.1-12.4-7-23.8-12.1-35.1c-4.7-10.5-11.9-18.8-21.6-24.9
				c-3.9-2.5-7.8-5-11.7-7.5c-5.9-3.9-12.3-6.3-19.3-7.3c-9.8-1.3-19.7-1.6-29.6-1.4c-24.5,0.6-46.8,7.7-66,23.2
				c-2.8,2.2-5.6,4.6-7.6,7.6c-9.9,14.8-18.3,30.3-21.5,48c-1,5.4-1.8,10.8-2.7,16.2c-3.2,19.9,1.5,38.5,9.8,56.3
				c1.9,4,4,8,6.9,11.3c0.5,0.6,1,1.1,1.5,1.7c60.5-17,119.1-40.2,174.4-70.5C332.9,195,333,192.9,332.9,190.7z"/>
			<path class="st0" d="M158.3,267.6c11.5,12.8,25.3,22.2,42.7,25.7c16.5,3.3,33,3.6,49.4-0.3c7.6-1.8,14.6-5.4,21.9-8.2
				c7.5-2.9,13.1-8.7,19.9-12.7c5.1-3.1,9.1-8.1,13.6-12.2c4.1-3.7,7.4-8.1,10.1-12.9c5.8-10.3,10.5-21.1,13.3-32.7
				c1.4-5.8,2.9-11.6,3.5-17.3C277.4,227.4,218.8,250.7,158.3,267.6z"/>
			<path class="st1" d="M215.6,133.3c-1.3,2.7-2.7,5.3-5.2,7c-6.4,4.4-12.8,8.9-19.2,13.3c-2.4,1.6-5.1,1.8-9.3,1.6
				c-0.3,0-2-0.2-3.6-0.6c-4.7-1.4-6.4-4.3-5.3-9.2c1.6-7.1,5.8-12.6,11.4-17c5.7-4.4,12.4-7.2,19.3-9c2.9-0.8,6.5-2.4,8.6,1.1
				C214.7,124.3,218,128.1,215.6,133.3z"/>
			<path class="st1" d="M284.7,238.4c-4.1-1.5-7.4,0.6-10.4,2.9c-2.4,1.9-3.5,4.7-4.1,7.6c-1,5,2.3,9.8,7.3,10.7
				c5.6,1,13.1-5.1,13.2-10.8C290.8,245.2,287.6,239.5,284.7,238.4z"/>
		</g>
	</g>
	<g id="圖層_5">
		<g>
			<path class="st2" d="M232,42.6c-1.8,4.7-3.8,9.3-4.8,14.3c-1.8,9.5-3,19.1-2.9,28.8c0.1,11.1-0.2,11.1,11,11.1
				c11,0,11.6-0.6,10.1-11.6c-1-7.1,0.3-13.9,2.5-20.5c0.8-2.2,1.8-4.1,3.1-5.7c-3.4-8.9-5.8-18.5-6.6-28
				C239.1,32.5,234.6,35.7,232,42.6z"/>
			<path class="st3" d="M638.4,23.4c-1.2-0.4-2.4-0.8-3.6-1.1c-19.4-5.7-38.8-4-58.1,0c-14.5,3-28.3,8-41.9,13.8
				c-1.5,0.6-3.3,0.9-3.9,2.9c0.5,0.4,0.9,0.8,1.4,1.1c1.8,0.9,3.5,2,2.7,4.3c-0.6,1.9-2.6,2-4.3,2c-0.8,0-1.7,0-2.5-0.2
				c-10.4-2.7-21.2-3.4-31.7-5.6c-27.8-5.8-55.6-5.6-83.6-2.4c-17,1.9-33.7,5.4-50.4,8.7c-6.8,1.4-13.9,2.5-19.7,6.4
				c-5,3.3-10.7,4.8-15.8,7.8c-3.2,1.9-7.5,2.4-11.3,3.7c-1.2,0.4-2.6,0.4-3.3-0.9c-0.7-1.3-0.2-2.5,0.8-3.4
				c1.6-1.3,3.5-2.3,5.1-3.7c2-1.7,6.2-1.9,5.6-5.1c-0.5-2.9-4.2-3.8-6.8-5.1c-0.9-0.4-2-0.7-3-1.1c-11.3-4.8-23.4-7.1-34.9-10.9
				c-7.9-2.6-16-3.9-24.2-4.4c-3.7-0.2-7.3-0.1-10.6,0.7c0.8,9.5,3.1,19.1,6.6,28c3-3.5,7.3-5.3,12.7-5.4c10.6-0.2,20.3,3.2,30,6.6
				c3.7,1.3,7.7,2.4,10.8,5c3.9,3.2,3.4,7.2-1.1,9.5c-0.9,0.5-2.1,0.5-3,0.9c-10.6,4.4-20.5,9.8-28.8,17.9c-3,3-2.9,3.9,0.9,5.1
				c6.7,2.1,13.1,4.7,19.3,7.8c1.7,0.8,3.5,1.6,5.5,1.1c3-0.8,5.9,0.2,8.6,1.2c6.1,2.2,12.3,4.5,18.3,7.1c7.4,3.2,14.2,7.6,19.2,14
				c9.7,12.3,18,25.4,22.4,40.7c1.9,6.5,3.9,7.2,9.4,3.6c16.2-10.6,32.8-20.6,46.3-34.8c12.2-12.8,22.8-26.5,27-44.2
				c0.4-1.6,0.6-3.3,1.1-4.9c0.6-2.2,1.2-5,4-5.1c3.2-0.1,3,3,3.5,5.1c2.9,10.2,7.2,19.7,12.8,28.8c5.8,9.3,12.3,18,19,26.7
				c10,13,22,23.7,35.4,33c4.2,2.9,5.1,2.8,6.2-2.4c2.2-10,6.9-18.9,11.6-27.9c11.7-22.4,29-39,51.4-50.6c7.6-3.9,15-8.4,23.9-10.2
				c-0.9-2.9-2.5-3.7-3.8-4.7c-8.3-6.1-17.4-11.1-26.4-16.2c-6.3-3.5-13-5.9-19.5-8.8c-1.8-0.8-3.6-2-2.8-4.3c0.9-2.5,3-1.9,4.8-1
				c4.1,2,8,1.5,12.2,0c11.7-4.4,24.1-5.8,36.5-7.2c4.9-0.6,9.3,1.3,12.2,4.7c5.5-7.1,11.6-14.1,16.8-21.5
				C645.3,26.3,642.2,24.6,638.4,23.4z"/>
			<path class="st2" d="M658.9,78.8c-1.5-13.6-5.3-26.9-7.2-40.4c-0.6-4.1-2-7.2-4.2-9.5c-5.1,7.3-11.3,14.3-16.8,21.5
				c1.3,1.6,2.4,3.5,3.1,5.7c1.3,4.3,1.7,8.6,0.8,13.1c-0.9,4.4-2.8,8.4-3.9,12.7c-1,4.3-0.8,4.8,3.8,4.9c5.1,0,10.1,0.6,15.1,1.2
				C659.5,89.1,659.9,88.6,658.9,78.8z"/>
			<path class="st3" d="M412.5,108.9c-1.8,2.5-3.8,3.4-8.3,3.4c-3.5,0.3-6.8-1.4-9.3-4.6c-1.9-2.5-4.1-4.7-6.4-6.9
				c-5.9-5.6-12.8-6.9-20.4-6c-0.8,0.1-1.7,0.3-2.5,0.4c-1.1,0.1-2.2,0.1-2.7-1.1c-0.4-0.9,0.1-1.6,0.6-2.3c2.5-3.5,5.4-6.3,9.7-7.7
				c7.4-2.5,14.9-2.2,22.4-0.8c4.3,0.8,8.6,1.8,12.5,4.2C415.5,92,417.6,101.9,412.5,108.9z"/>
			<path class="st3" d="M554.4,92.5c-0.3,1.8-1.7,2.2-3.2,2.5c-1.9,0.4-3.7,0.8-5.5,1.4c-7.5,2.5-14,6.5-19.1,12.9
				c-4.9,6.2-14,7.1-19.8,2.5c-7.9-6.2-7.6-17.1,1.1-23c5.4-3.7,11.2-6.9,16.7-6c9.4,0.3,16.9,2.3,24.3,4.6c1,0.3,1.9,0.8,2.9,1.3
				C553.5,89.4,554.8,90.5,554.4,92.5z"/>
		</g>
	</g>
	<g id="圖層_3">
		<path class="st4" d="M634.2,600.8c-0.6-6,1.6-10.9,2.8-15.9c0.2-1,0.7-2.1,2-2c1.2,0.1,1.8,1,2.3,1.9
			C644.9,590.8,641.8,598.2,634.2,600.8z"/>
		<path class="st4" d="M244.2,600.9c-2.2,0.1-4.4-2.1-4.3-4.5c0.2-3.4,1.8-6.2,5.3-9.7c0.7,4.3,1.3,7.2,1.6,10.1
			C247,598.6,246.9,600.7,244.2,600.9z"/>
		<path class="st4" d="M262.2,810.7c-0.6,2.2-1.3,4.4-1.9,6.6c-0.8,2.9,0.5,5,3.3,5.9c9,3,16.1,8.6,23,15c8.3,7.8,8.7,7.5,14.7-1.6
			C287.6,828.9,274,821.1,262.2,810.7z"/>
		<path class="st5" d="M301.7,836c1.6-2.5,1.9-4.5,0.1-6.9c-2.6-3.4-3.5-7.1-2.4-11.7c0.7-2-0.8-2.4-2.6-2.9c-5.1-1.3-10.3-2-15-4.5
			c-4.4-2.4-9.1-4.3-13.6-6.5c-2.3-1.2-3.6-0.6-4.3,1.8c-0.5,1.8-1.1,3.7-1.6,5.5c11.8,10.3,25.4,18.2,39.1,25.9
			C301.4,836.4,301.5,836.2,301.7,836z"/>
		<path class="st5" d="M626.2,796.2c-0.8-2.5-5.6-4.3-8-3.3c-11.2,4.7-22.5,9-34.2,12.3c-5.1,1.4-5.5,2.6-3.3,7.6
			c0.6,1.4,1.2,2.7,1.8,4.1c15-5.6,29.8-11.6,44.4-18.2C626.7,797.8,626.4,797,626.2,796.2z"/>
		<path class="st4" d="M627.5,798.7c-14.9,6.8-30.1,13-45.4,18.7c3,6.7,6.1,13.3,9.1,19.9c2.1,4.5,2.6,4.6,6.9,1.8
			c7.8-5,15.4-10.3,23.9-14.2c2.7-1.2,5.2-2.7,7.8-4.1c1.6-0.8,2.7-2,2.5-5C630.8,810.7,629.3,804.7,627.5,798.7z"/>
		<path class="st5" d="M325.2,544.9c5.7,1.4,11.4,2.8,17.2,4.2c19.7,4.9,39.7,7.4,59.8,9.4c5.4,0.5,10.9,1.1,16.3,1.7
			c1.5,0.2,2.9,1,2.9,2.8c0,1.7-1.3,2.6-2.9,2.9c-2.1,0.4-4.2,0.1-6.3-0.3c-6.9-1.2-13.9-0.2-20.8-1.5c-0.3,0-0.6,0.4-1,0.6
			c0.2,2.1,2,3.1,3.4,4.3c4.2,3.5,8.6,6.7,12.9,10.2c11.7,9.7,24.6,17.7,37.4,25.9c4.7,3,8.6,2.4,13.2-0.8
			c15.1-10.4,30.2-20.8,45.9-30.3c12.9-7.9,26.6-14.6,40-21.7c3.1-1.7,6.6-2.6,10.1-3.3c8.1-1.6,15.9-4.1,23.4-7.5
			c5.7-2.6,11.4-5.3,16.9-8.2C503.9,528.4,413.6,524.6,325.2,544.9z"/>
		<path class="st4" d="M699.9,452.8c7.2-7.3,13.2-15.4,16.8-24.9c1-2.6,3.4-5.8,0.9-8.2c-2-1.8-4.6,0.8-7,1.6c-3.1,1-6.1,2.8-10,1.1
			c1-2.8,3.1-3,4.7-3.8c9-4.6,18.4-8.3,27.1-13.6c7-4.3,14.6-7.6,20.3-13.8c5.9-6.4,6.5-12.9,1.6-20c-2.7-3.9-6.4-6.7-10.2-9.4
			c-1.7-1.2-3.4-2.4-5-3.9c-1.1-1.1-1.6-2.6-0.5-4c1.1-1.3,2.6-1.4,4-0.7c1.5,0.8,3,1.6,4.3,2.7c4.1,3.6,6.4,2.6,10.1-0.2
			c5.2-3.9,6.5-10.6,3-16.4c-1.6-2.7-3.5-5.3-5.6-7.6c-5.5-6-7.6-13.5-9.2-21.1c-0.5-2.3-0.7-4.6-1.1-6.9c-0.6-3.4-4.1-4.7-6.1-2
			c-2.9,4-7,6-10.8,8.5c-6.8,4.5-13.3,9.9-21.2,12.4c-17.2,5.6-34.9,7.9-52.9,7.2c-20.2-0.8-39.6-5.6-58-13.9
			c-9.6-4.3-18.4-9.9-26.5-17c-10.7-9.4-15.8-22.7-24.6-33.5c-2.3-2.8-2.8-7-4.3-10.4c-8.1-18.6-12.2-38-10.7-58.4
			c0.1-1.5,0-3,0.1-4.4c0.2-2.8-0.6-4.9-3.7-5.8c-3.3-1-5.9-3.2-8.6-5.2c-23.3-17.5-40.8-40-55.1-65.1c-2.7-4.9-5-10-7.6-15.1
			c-0.7,0.6-1.1,0.8-1.2,1.2c-2.9,11-9.2,20.2-16.2,29c-8.4,10.6-17.4,20.4-28.9,28c-5,3.3-10.4,6.7-14.5,11.1
			c-5.8,6.4-12.3,12.1-18.9,17.6c-2.9,2.4-3.8,5.1-3.5,8.8c0.6,8,0.7,16-0.3,24c-1.6,12.7-6.1,24.4-10.7,36.2
			c-4.7,12.1-12.5,21.8-21.2,31s-19.6,15.2-30.5,21.2c-4.4,2.4-9,4.8-13.8,6.3c-24.1,7.6-48.5,12-74,9.6c-24-2.3-45.1-9.7-62-27.5
			c-1-1.1-2.1-2.1-3.1-3.1c-1.9-2-3.1-1.5-4.2,0.8c-2.1,4.1-3.5,8.6-5.9,12.6c-3.5,6-7.8,11.5-11.6,17.3c-4.6,6.8-3.8,16,1.8,21.5
			c6.2,6.2,8.2,6.2,14.3-0.1c1.8-1.8,3.6-5.5,6.5-2.6c2.5,2.4-0.7,4.4-2.3,6.2c-5.6,6.3-11.4,12.4-15.8,19.6
			c-4.8,7.7-4,12.8,2.8,18.9c3.6,3.3,7.9,5.6,12.4,7.5c4.9,2,8.3,5.2,11.1,9.8c10.8,17.8,18.9,37.1,31.3,54.1
			c6.4,8.7,13.3,17,20.9,24.3c12.7,12.3,26.7,23,42,32.2c19.1,11.4,39,20.8,60.5,26.6c2,0.6,4.1,1.1,6.1,1.6
			c88.4-20.3,178.7-16.5,268.4-11.5c11.9-6.1,23.4-12.7,34.5-20.1C654.4,495.9,677.8,475.1,699.9,452.8z"/>
		<path class="st6" d="M252.6,341.2c-2.5,0.5-5,0.9-7.5,1.1c-2.9,0.2-5.9,0.1-9.7,0.1c-9.8,0.9-20-2.5-30.3-4.3
			c-0.4-0.1-0.8-0.2-1.2-0.4c-2.3-0.9-4.7-2-3.9-4.8c0.7-2.5,3.2-2.3,5.4-1.8c3.3,0.7,6.6,1.4,9.8,2.3c12,3,24.1,3.3,36.3,1.7
			c2.2-0.3,4.5-0.5,5,2.3C257,340,254.7,340.8,252.6,341.2z"/>
		<path class="st6" d="M539.3,289.4c1.5,0,2.2,1,2.2,2.4c-0.2,1.9-1.2,3.3-3.1,3.4c-1.7,0.1-2.8-1-2.8-2.6
			C535.6,290.2,537.2,289.3,539.3,289.4z"/>
		<path class="st6" d="M386,279.8c1.7,0.2,2.5,1.3,2.5,3s-1.5,3.1-3.2,3.1c-1.7-0.1-2.7-1-2.8-2.7
			C382.3,281.2,384.1,279.6,386,279.8z"/>
		<path class="st6" d="M565.2,324.4c-1.7,6.7-5.9,11.9-11.5,16.1c-7.2,5.4-15.5,7.1-24.2,8.1c-2.5,0.3-5,0.7-7.5,1.3
			c-6.7,1.6-13.4,1.5-20,0.1c-2.3-0.5-4.5-1-6.8-1.5c-5.5-1.2-5.5-1.2-7.5,3.8c-0.1,0.2-0.1,0.4-0.2,0.6c-4.8,7.1-8,15.2-13.4,21.8
			c-6.6,8-15.6,12.2-25.8,13c-6.2,0.5-11.5-2.7-15.8-6.9c-4.2-4.1-7.8-8.9-8.8-15c-0.4-2.2-1.3-4.1-3.3-5.2
			c-4.5-2.4-6.7-6.3-7.5-11.1c-0.5-3.4-2.1-4.2-5.2-3.3c-3.2,1-6.5,1.9-9.8,2.5c-14.7,2.9-28.5-1-42-6c-9.5-3.5-14.9-11.5-18.7-20.4
			c-2.5-5.9-1.2-12.1,0.5-18c3.1-10.7,8.9-19.9,16.5-28.1c4.1-4.4,9.3-7.2,14.6-9.8c1.1-0.6,2.4-0.8,3.6-1.1
			c1.7-0.3,3.6-0.4,4.3,1.6c0.7,2.1-0.9,3-2.5,3.7c-2.7,1.2-5.5,2-8,3.8c-11.5,8.3-19.4,19.2-22.9,33c-2.5,9.8,1.6,20,9.9,26
			c3.8,2.8,8.2,4.3,12.6,5.8c17.9,6.1,35.1,5,51.8-4.3c9.3-5.2,17.5-11.5,24.8-19.3c6.8-7.3,6.9-16.2,0-23.5
			c-5.8-6.1-13.3-10.3-19.2-16.3c-2.4-2.4-6-2.9-9.4-3.4c-4.6-0.7-9.2-1.4-13.7-2.1c-1.3-0.2-2.7-0.3-2.9-1.9
			c-0.2-1.8,1.2-2.5,2.6-3.1c1.8-0.7,3.7-0.7,5.6-0.5c2.1,0.2,4.2,0.5,6.3,0.8c2.6,0.5,4.2-0.1,3.6-3.2c-0.2-1.2-0.4-2.5-0.3-3.8
			c0.2-4.3,1.2-8.3,4.6-11.3c3-2.7,5.5-5.9,8.8-8.2c15-10.5,31-10.4,47.5-4.1c9.4,3.6,15,11.1,19.9,19.4c1,1.7,0.8,3.2,0,4.8
			c-0.9,2.1-1.9,4.2-3.1,7c6,0.1,10.7-1,15.4-1.9c4.5-0.9,8.8,0,13.1,1c2.1,0.5,4.3,1.4,3.8,4.2c-0.5,2.9-3,2.8-5,2.2
			c-7.9-2.4-15.4-0.4-23.1,1c-5.1,1-9.5,3.2-13.3,6.8c-5.5,5.2-11.1,10.3-18.3,13.2c-3.1,1.3-4.9,3.3-5,7.2
			c-0.1,3.8-0.5,7.5-0.6,11.3c-0.2,8.9,4.2,15.5,11.2,20c15.8,10.1,33.3,14.1,51.9,11.8c9.7-1.2,18.8-4.3,26.7-10.4
			c2.5-1.9,4.3-4,5.2-6.9c1-3.4,2.2-6.8,3.2-10.3c0.9-3.1,1.7-6.1,0-9.2c-0.9-1.7-0.7-3.3,1.3-4.1c1.8-0.7,3.4-0.3,4.5,1.3
			c0.7,1,1.4,2.2,1.5,3.4C565.9,312.7,566.6,318.7,565.2,324.4z"/>
		<path class="st6" d="M618.6,338.2c-1.5-0.9-2.6-2.4-1.7-4.3c0.9-1.8,2.6-2,4.3-1.3c0.4,0.1,0.8,0.3,1.2,0.5
			c9.5,5.2,19.9,4.6,30.2,5c2.9,0.1,5.9,0,8.8,0.2c1.3,0.1,2.5,0.7,2.7,2.2c0.2,1.7-0.9,2.9-2.4,3.2c-3.7,0.5-7.5,0.8-11.6,1.3
			c-8.2-1.4-17-0.8-25.2-3.8C622.7,340.4,620.6,339.4,618.6,338.2z"/>
		<path class="st6" d="M251.6,335c-12.2,1.7-24.3,1.3-36.3-1.7c-3.3-0.8-6.5-1.5-9.8-2.3c-2.1-0.5-4.6-0.7-5.4,1.8
			c-0.8,2.9,1.6,4,3.9,4.8c0.4,0.2,0.8,0.3,1.2,0.4c10.3,1.8,20.4,5.1,30.3,4.3c3.8,0,6.7,0.1,9.7-0.1c2.5-0.2,5-0.6,7.5-1.1
			c2.1-0.4,4.4-1.2,4-3.9C256.1,334.5,253.8,334.7,251.6,335z"/>
		<path class="st6" d="M538.4,295.2c1.9-0.2,2.9-1.5,3.1-3.4c0-1.4-0.7-2.4-2.2-2.4c-2.1-0.1-3.7,0.8-3.7,3.2
			C535.6,294.3,536.7,295.4,538.4,295.2z"/>
		<path class="st6" d="M385.3,285.8c1.7,0,3.2-1.4,3.2-3.1c0-1.6-0.8-2.8-2.5-3c-2-0.2-3.7,1.4-3.5,3.3
			C382.7,284.8,383.7,285.7,385.3,285.8z"/>
		<path class="st6" d="M563.9,303.4c-1.1-1.6-2.7-2-4.5-1.3c-2,0.8-2.3,2.4-1.3,4.1c1.7,3.1,0.9,6.2,0,9.2c-1,3.4-2.2,6.8-3.2,10.3
			c-0.9,2.9-2.7,5.1-5.2,6.9c-7.9,6-17,9.2-26.7,10.4c-18.6,2.2-36.1-1.7-51.9-11.8c-7-4.5-11.4-11.1-11.2-20
			c0.1-3.8,0.5-7.6,0.6-11.3c0.1-3.9,1.9-5.9,5-7.2c7.2-3,12.8-8,18.3-13.2c3.8-3.6,8.2-5.8,13.3-6.8c7.6-1.5,15.2-3.5,23.1-1
			c2,0.6,4.5,0.8,5-2.2c0.5-2.8-1.7-3.7-3.8-4.2c-4.3-1-8.6-1.9-13.1-1c-4.7,0.9-9.4,2-15.4,1.9c1.3-2.9,2.2-5,3.1-7
			c0.7-1.6,0.9-3.2,0-4.8c-4.9-8.2-10.5-15.7-19.9-19.4c-16.5-6.4-32.5-6.5-47.5,4.1c-3.2,2.3-5.8,5.5-8.8,8.2
			c-3.4,3.1-4.4,7-4.6,11.3c0,1.3,0.1,2.5,0.3,3.8c0.6,3.1-0.9,3.7-3.6,3.2c-2.1-0.4-4.2-0.6-6.3-0.8c-1.9-0.2-3.8-0.2-5.6,0.5
			c-1.4,0.5-2.9,1.3-2.6,3.1c0.2,1.5,1.7,1.7,2.9,1.9c4.6,0.7,9.2,1.4,13.7,2.1c3.4,0.5,7,1,9.4,3.4c6,6,13.4,10.1,19.2,16.3
			c6.9,7.3,6.9,16.3,0,23.5c-7.3,7.7-15.5,14.1-24.8,19.3c-16.7,9.3-33.9,10.4-51.8,4.3c-4.4-1.5-8.8-3-12.6-5.8
			c-8.3-5.9-12.4-16.1-9.9-26c3.5-13.8,11.3-24.7,22.9-33c2.4-1.8,5.3-2.5,8-3.8c1.6-0.7,3.2-1.6,2.5-3.7c-0.7-2-2.6-1.9-4.3-1.6
			c-1.2,0.2-2.5,0.5-3.6,1.1c-5.3,2.6-10.5,5.4-14.6,9.8c-7.5,8.1-13.4,17.3-16.5,28.1c-1.7,5.9-2.9,12.1-0.5,18
			c3.7,9,9.2,16.9,18.7,20.4c13.5,5,27.3,8.9,42,6c3.3-0.7,6.6-1.5,9.8-2.5c3.1-0.9,4.7-0.1,5.2,3.3c0.8,4.8,3,8.7,7.5,11.1
			c1.9,1.1,2.9,3,3.3,5.2c1,6.1,4.5,10.9,8.8,15c4.3,4.2,9.5,7.3,15.8,6.9c10.3-0.8,19.2-4.9,25.8-13c5.5-6.6,8.6-14.8,13.4-21.8
			c0.1-0.2,0.1-0.4,0.2-0.6c2-5,2-5,7.5-3.8c2.3,0.5,4.5,1,6.8,1.5c6.7,1.4,13.4,1.5,20-0.1c2.5-0.6,5-1,7.5-1.3
			c8.6-1,17-2.7,24.2-8.1c5.6-4.2,9.8-9.5,11.5-16.1c1.4-5.7,0.7-11.7,0.2-17.5C565.3,305.7,564.6,304.5,563.9,303.4z"/>
		<path class="st6" d="M661.7,343.7c1.6-0.2,2.6-1.4,2.4-3.2c-0.1-1.5-1.4-2.1-2.7-2.2c-2.9-0.2-5.9-0.1-8.8-0.2
			c-10.3-0.5-20.7,0.2-30.2-5c-0.4-0.2-0.8-0.3-1.2-0.5c-1.8-0.6-3.4-0.5-4.3,1.3c-0.9,1.9,0.2,3.4,1.7,4.3c2,1.2,4.1,2.2,6.2,3
			c8.2,3,17,2.3,25.2,3.8C654.1,344.5,657.9,344.2,661.7,343.7z"/>
		<path class="st5" d="M281.4,299.2c-16.5,8.4-33.4,14.9-50.5,19.9c1.3,0.1,2.6,0.1,3.9,0.2c9.1,0.4,18-1.2,27-2.4
			c33-4.3,60.3-19.1,82.5-43.5c1.9-2,3.3-4.3,4.5-6.9c2.7-5.9,5.7-11.8,8-17.8c0.6-1.5,1.2-3.1,1.7-4.6
			C333.1,263,309.8,285,281.4,299.2z"/>
		<path class="st4" d="M358.5,244c3-8.4,5.3-17,5.9-25.9c2.1-30.1-4.6-57.7-23.6-81.8c-6.3-8-14.3-12.8-23.8-15.8
			c-1.2-0.4-2.5-0.8-3.4,0.7c-0.6,1.1,0,2.1,0.7,2.8c8.8,9.8,13.5,21.8,18.1,33.8c5.4,14.1,8.7,28.5,5.8,43.8
			c-3.3,17.6-8.6,34.5-18.1,49.5c-9.1,14.3-21.9,25.4-36.5,34.3c-21.7,13.2-45,19.3-70.5,16.5c-22.4-2.5-42-10.3-57.3-27.4
			c-1.1-1.2-2-2.9-4.5-2.6c-0.2,4.4,1.2,8.4,3.6,11.7c7.3,9.6,15.5,18.3,26.5,23.9c15.5,7.8,32.2,10.6,49.3,11.6
			c17.1-5,34-11.5,50.5-19.9C309.8,285,333.1,263,358.5,244z"/>
		<path class="st5" d="M557.8,275.4c6.4,11.1,15.1,20.5,26,27.1c21.1,12.9,44.3,19.2,68.9,20.7c6.1,0.4,12.1,0.2,18.2-0.3
			C632.2,309.3,593.6,295,557.8,275.4C557.7,275.4,557.7,275.4,557.8,275.4z"/>
		<path class="st4" d="M730.7,297.2c4.8-5.3,8.4-11.6,13.9-16.4c2.3-2,3.7-4.9,4.7-9.4c-4.1,2.7-7.3,4.7-10.3,6.8
			c-10,7-20.9,11.6-32.9,14c-9.5,1.9-19.3,2.9-28.8,2.9c-10.9,0-21.9,0.3-32.5-3.4c-5.2-1.8-10.4-3.5-15.6-5.2
			c-14.3-4.6-25.7-13.6-35.9-23.9c-8.2-8.4-13-19.3-16.1-30.5c-4.2-15.4-7.2-31.1-5.5-47.4c1.5-14.8,4.9-29,10.6-42.7
			c5-12.1,13.8-21.9,23.3-30.3c8-7.1,17.2-13.6,28.1-16.3c0.8-0.2,1.6-0.4,1.7-1.9c-6.7-0.5-13.3-0.9-19.8,1.4
			c-27.2,9.8-49.8,25.3-64.5,50.9c-6.8,11.9-13.3,24.2-15,38c-1.6,13.3-2.3,26.8,1.6,40.1c1.8,6,3.7,12.1,5.3,18.1
			c3.2,12,8.5,22.8,14.6,33.4c35.9,19.6,74.5,34,113,47.6c6.6-0.5,13.1-1.5,19.5-2.7C706.3,317.1,719.7,309.4,730.7,297.2z"/>
		<path class="st7" d="M587,59.8c12.3,7.2,24.8,13.4,36.2,22.2c2.7-5.6,4.8-10.7,5.1-16.1c0.3-4.8-0.3-8.2-1.9-10.5
			C616.1,64,600.9,63.8,587,59.8z"/>
		<path class="st6" d="M614.4,51.9c-8.1,1.1-16.2,2.2-24.1,4.5c-1.4,0.4-3,0.4-4.4,2.8c0.3,0.2,0.7,0.4,1,0.6
			c14,4,29.1,4.2,39.4-4.5C624.2,52.1,620.2,51.1,614.4,51.9z"/>
		<path class="st7" d="M256.4,71.2c-3.2-4.3-0.4-7.9,4.2-10.6c-2.3,0.5-4.1,1.9-5.2,4.1c-3.2,6.3-5,13-4.1,20.1
			c0.6,4.8,1.5,5.2,6,3.5c4.8-1.8,9.3-4.2,13.7-6.6C265.1,79.6,260,76.3,256.4,71.2z"/>
		<path class="st6" d="M293.9,67.6c-10.2-5.7-20.8-7.4-31.9-7.2c-0.5,0-1,0.1-1.4,0.2c-4.6,2.7-7.4,6.4-4.2,10.6
			c3.6,5.1,8.7,8.5,14.6,10.4c7.3-4.1,14.3-8.7,21.9-12.3C293.2,69.1,293.3,68.6,293.9,67.6z"/>
		<path class="st8" d="M250.7,853.3c-1,2.7-2.5,5.2-4.7,7.5c-2,2-1.1,4.4,0.4,6.9c5.2,8.8,14.5,9.2,21.9,11.5
			c3.8,0.2,5.6-1.5,7.2-3.5c4.8-6.1,8.8-12.9,12.8-19.5c0.1-0.1,0.2-0.3,0.2-0.4C275.9,856.3,263,855.3,250.7,853.3z"/>
		<path class="st9" d="M288.5,855.7c1-1.9,0.6-3.7-0.8-5.4c-6.3-7.1-13.1-13.9-21.8-17.8c-9.7-4.3-9.6-2.9-11.1,5.6
			c-0.2,0.8-0.4,1.6-0.6,2.5c-1.2,4.2-1.8,8.6-3.4,12.7C263,855.3,275.9,856.3,288.5,855.7z"/>
		<path class="st9" d="M643.5,852.5c-1.9-6.7-3.9-13.4-5.9-20.2c-1.5-5.4-2.1-5.6-7.5-3.6c-6.9,2.6-13.3,6.3-19.5,10.3
			c-3.2,2-6.5,3.9-9.5,6.2c-3.8,3.1-4.1,4.8-2.3,9.3C613.8,854.6,628.7,853.9,643.5,852.5z"/>
		<path class="st8" d="M643.7,853.5c-0.1-0.3-0.2-0.7-0.3-1c-14.8,1.4-29.7,2.1-44.6,1.9l0,0c0.9,2.1,2.1,4.1,2.9,6.3
			c3.8,11.4,11.3,16.8,22.8,14.9c7.7,1,13.9-1.3,19.9-4.6c5-2.7,5.7-5.5,2.6-10.2C645.6,858.6,644.5,856.1,643.7,853.5z"/>
		<path class="st8" d="M317.4,759.5c-3.5,13.5-6.2,27.2-8.6,41c-1.2,6.6-2.1,13.3-2.7,20c-0.4,2.1,0.1,3.8,2.4,4.4
			c2.7,0.7,3.9-0.9,4.4-3.2c0.3-1.4,0.8-2.8,1-4.3c0.9-6.9,1.9-13.7,2.5-20.6c1-11,2.9-21.9,5.3-32.6
			C320.1,762.6,318.7,761.1,317.4,759.5z"/>
		<path class="st9" d="M321.6,764.1c2.2-10,4.7-19.8,7.2-29.7c0.8-3,2-6,3-9c0.3-1,0.8-2.2-0.3-2.9c-1.2-0.8-2.4-0.3-3.4,0.7
			c-1.9,2-2.9,4.5-3.9,7.1c-2.7,7.6-3.3,15.6-5.4,23.3c-0.5,1.9-1,3.8-1.5,5.8C318.7,761.1,320.1,762.6,321.6,764.1z"/>
		<path class="st8" d="M569,706c-67-24-137-21-207-7c-15,3-30,5-45,10c-13.5,4.9-26.7,10.1-39.9,15.7c-0.9,1.4-0.4,3,1.5,4.2
			c2.7,1.7,5.2,0.9,7.7-0.4c10-5.1,20.4-9,31.4-11.4c6.4-1.4,12.7-2.8,19.1-4.4c38.4-9.4,77.2-15.1,116.8-15.4
			c23.8-0.2,47.6,0,71.2,3.3c27,3.7,53.1,11.4,78.7,20.7c1.8,0.6,3.6,1.4,5.4,1.7c1.8,0.3,3.4-0.9,3.9-2.8
			C598.2,714.8,583.3,711.3,569,706z"/>
		<path class="st9" d="M362,699c70-14,140-17,207,7c14.3,5.3,29.2,8.8,43.8,14.1c0.1-0.5,0.2-1,0.2-1.6c-0.6-1.9-2.7-3.4-4.9-4.6
			c-6.1-3.3-12.2-6.6-18.3-9.9c-23.8-12.8-49.7-18.3-76.1-21.3c-15.9-1.8-31.9-1.8-47.8-2.3c-11-0.4-21.8,1.1-32.7,2.3
			c-16.9,1.8-34,2.3-50.7,6.2c-14.3,3.3-28.8,6.1-42.9,10.5c-19.5,6.1-38.3,14.1-57.1,22.1c-1.4,0.6-2.7,1.2-3.9,2.1
			c-0.6,0.4-1,0.9-1.3,1.3c13.1-5.6,26.4-10.8,39.9-15.7C332,704,347,702,362,699z"/>
		<path class="st8" d="M380.2,682.8c4.2-0.8,8.2-1.7,12.3-2.3c3.8-0.7,6.6-2.4,8.7-5.6c2.6-3.8,5.6-7.4,8.8-10.8
			c16.4-17.4,34.6-32.5,53.9-46.5c3.6-2.6,7.2-5.2,10.8-7.8c-17.4,7.3-33.9,16.6-49.7,28.1C407.4,650.9,393.9,667,380.2,682.8z"/>
		<path class="st9" d="M533.4,563.4c-17.2,8-33.3,18-49,28.6c-15.9,10.6-31.6,21.7-47,33c-21.6,15.8-41.3,33.9-60,53
			c-1.7,1.8-3.7,3.3-5.1,6.4c2.8-0.5,5.4-1.1,8-1.6c13.7-15.9,27.2-32,44.8-44.8c15.7-11.5,32.2-20.8,49.7-28.1
			c21.4-15.2,43.4-29.7,66.5-42.4c2.6-1.4,5.1-3,7.6-4.5s5-3.1,8.5-5.4C544,558.4,543.1,558.9,533.4,563.4z"/>
		<path class="st9" d="M382.8,566.8c-5-4.4-10.2-6-16.3-6c-0.2,1.3,0.5,1.8,1.1,2.3c10.6,8,19.8,17.5,29.5,26.5
			c7.1,2.5,14.3,4.6,21.6,6.3C406.1,587.1,394.4,577.1,382.8,566.8z"/>
		<path class="st8" d="M439.8,609.5c-1.7-1.3-3.5-2.4-5.3-3.4c-5.4-3.2-10.6-6.6-15.7-10.2c-7.3-1.8-14.5-3.9-21.6-6.3
			c2,1.9,4.1,3.7,6.2,5.5c8.5,7.3,17.5,13.8,27.2,19.4c1.8,1.1,3.7,2,5.7,2.6c1.9,0.6,6.3-1.8,6.8-3.6
			C443.6,611,441.2,610.6,439.8,609.5z"/>
		<path class="st10" d="M319.4,726.1c0.5-2-0.4-2.8-2.3-2.5c-1,0.2-2,0.6-3,0.9c-10.1,3-19.8,6.9-29.1,11.9c-4.5,2.5-8,5.2-10.1,9.7
			c-1.1,2.4-2.2,4.7-3.3,7.1c13,2.7,26,5.5,39,8.7C313.9,750.1,316.5,738,319.4,726.1z"/>
		<path class="st11" d="M271.6,753.2c-3.8,8.1-7.6,16.3-11.1,24.6c-3.4,8.1-1.6,12.7,6.1,16.6c6.9,3.5,14,6.7,21.2,9.8
			c3,1.3,6.4,2,8.5,2.7c3.4,0.3,4.9-0.5,5.3-2.8c0.3-1.7,0.6-3.3,1-5c2.9-11.6,3.9-23.6,7.4-35.2c0.2-0.7,0.4-1.4,0.6-2.1
			C297.6,758.7,284.6,755.8,271.6,753.2z"/>
		<path class="st11" d="M335,766c-2.4-0.4-4.8-1-7.2-1.7c-0.1,0.4-0.2,0.9-0.3,1.3c-3.7,16.3-5.1,32.8-6.8,49.4
			c-0.8,8.4-0.2,8.8,8,10.4c9.5,1.9,19.1,3,28.8,3.9c18.6,1.8,37.2,4.1,55.2,3.5c10.9,0,21,0.2,31.1-1.5c12.4-2,25.1-2.8,37.3-6.2
			c8.1-2.3,16.3-4.5,24.5-6.2c29.5-6.2,58.4-14.6,87.3-22.9c9.5-2.7,18.5-7,27.6-10.9c2.9-1.3,5-2.8,6.5-4.7
			C529.7,782.6,434.4,788.6,335,766z"/>
		<path class="st10" d="M628.4,767.9c-2.9-9.7-6.1-19.3-10.6-28.3c-1.5-3.1-3.7-5.5-6.6-7.4c-6-4-12.8-6.3-19.6-8.5
			c-20.5-6.5-41.1-12.8-62.3-15.8c-23.1-3.3-46.3-4.9-69.8-4.2c-18.7,0.6-37.4,1-56,3.1c-17,1.9-33.7,4.9-50.4,8.6
			c-7.1,1.5-12.6,5.3-15.4,12.5c-1.6,4.1-3.3,8.2-4.3,12.5c-1.8,8-3.6,15.9-5.4,23.9c2.4,0.7,4.8,1.3,7.2,1.7
			c99.4,22.6,194.7,16.6,291.9,14.5C629.5,777.3,629.9,773.1,628.4,767.9z"/>
		<path class="st10" d="M626.9,567.3c-11.2-6.1-23-10.3-35.5-13.1c-3.2-0.7-6.8-0.9-8.4-4.7c-0.5-1.2-1.7-1.2-2.7-0.9
			c-4.8,1.5-9.9,2.4-12.8,7.3c-2.2,3.7-5.7,6.1-9.4,8.3c-6.2,3.6-12.4,7.2-18.6,10.7c-16.1,9.2-32.3,18.1-47.3,29.2
			c-11,8.2-22.3,15.9-33.2,24.2c-6.4,4.9-12.7,9.9-18.8,15.1c9.2,0.6,18.5,1.4,27.7,2.5c44,5,84,19,128,31c1.5,0.4,3.2,1.1,4.9,1.9
			c-0.7-1.3-1.5-2.5-2.4-3.7c-4.5-5.8-8.5-12.1-12.1-18.5c-8.8-16.1-18.6-31.6-28.3-47.1c-0.8-1.2-1.4-2.6-2-3.9
			c-0.5-1.3-0.1-2.5,1-3.4c0.1,0,0.1-0.1,0.2-0.1c-0.1-0.1-0.2-0.1-0.3-0.2c0.1,0.1,0.2,0.1,0.3,0.2c1-0.8,2.2-0.9,3.4-0.4
			c2,0.9,3.4,2.5,4.3,4.4c0.2,0.5,0.5,1,0.7,1.5c17.2,10.7,35.7,18.7,54.3,26.4c0.6-3.4,1.3-6.8,2-10.2c3.1-15.3,6.6-30.5,9.8-45.7
			C633.4,571,633.2,570.7,626.9,567.3z"/>
		<path class="st11" d="M468,646c-9.3-1.1-18.5-2-27.7-2.5c-8.3,7.1-16.3,14.5-23.9,22.4c-3.2,3.4-6.6,7-8.6,11.8
			c2.7,1,4.9,0.3,7.2,0.1c11.5-1,23-2.6,34.6-2.9c27-0.9,53.9-0.8,80.7,3.5c24.4,4,47.6,11.1,68.9,23.8c5.4,3.2,7.5,0.8,9.3-3.9
			c0.9-2.5,1.1-5.8-0.7-7.9c-3-3.4-4.6-7.5-6.7-11.3c-1.7-0.9-3.4-1.5-4.9-1.9C552,665,512,651,468,646z"/>
		<path class="st11" d="M565.7,607.7c6.3,13,14.9,24.6,22.7,36.7c6.6,10.3,15.6,18.7,22.7,30.5c2.2-5.1,3-8.8,3.7-12.4
			c1.8-9.4,3.5-18.9,5.3-28.3C601.4,626.4,582.9,618.4,565.7,607.7z"/>
		<path class="st11" d="M261.4,654.9c1.4,7.4,2.7,14.9,4.2,22.4c0.3,1.5,0.3,3.7,2.4,4c1.6,0.2,2.5-1.4,3.3-2.6
			c2.2-3.1,4.3-6.3,6.3-9.5c6.8-10.9,13.5-21.9,20.8-32.4c7.9-11.4,16.7-22.2,23.4-34.4c-20.7,11.3-42.1,23.3-63.6,33.6
			C259.1,642.2,260.2,648.6,261.4,654.9z"/>
		<path class="st11" d="M277.5,683.7c-1.1,3-2.1,6.1-2.9,9.2c-1.9,7.5-1.8,14,5.9,18.6c2.7,1.6,4.8,2.2,7.5,0.8
			c7.5-3.9,15.4-6.9,23.3-9.7c13.9-4.8,27.5-10.7,42-13.5c5.4-1,9.8-3.6,12.8-8.4c1.2-1.9,3-3.5,4.7-5.1
			c11.6-11.2,23.3-22.3,35.5-32.7c-29.1,1-57.8,5.9-85.4,17.1C306.2,666.1,292.1,676,277.5,683.7z"/>
		<path class="st10" d="M430.5,621.8c-0.3-0.2-0.8-0.6-1.4-0.9c-9.3-4.6-17.7-10.6-25.5-17.4c-15.5-13.3-30-27.7-45.1-41.5
			c-2.2-2-4.2-4-7.4-4.6c-12.6-2.5-25.1-5.5-37.4-9.3c-6.2-1.9-11.9-1.5-17.9,0c-14.4,3.8-27.5,10.7-40.9,16.7
			c-5.4,2.4-5.6,3-4.9,8.6c2.8,20.8,4.9,41.6,8.1,62.4c21.5-10.3,42.9-22.3,63.6-33.6c0.9-1.7,1.8-3.4,2.7-5.1
			c0.4-0.7,0.9-1.5,1.5-2c1.1-1.2,2.5-1.7,4-0.8c1.5,1,1.4,2.5,0.8,3.9c-0.3,0.8-0.8,1.5-1.2,2.2c-3.6,6.9-7.7,13.5-12.4,19.8
			c-11.3,15.3-21.6,31.1-31.6,47.3c-3.2,5.2-5.9,10.5-8,16.1c14.6-7.7,28.7-17.6,43.5-23.7c27.6-11.2,56.3-16.1,85.4-17.1
			c6.5-5.5,13.1-10.9,20-16C428,625.7,430,624.6,430.5,621.8z"/>
		<path class="st12" d="M478.2,343.3c-3.8-1.6-4.5-1.1-4.4,2.7c3.2,1,6.3,2.1,9.4,3.2C483.1,346.9,481.4,344.7,478.2,343.3z"/>
		<path class="st4" d="M473.8,346.1L473.8,346.1c0.2,2.7,0.5,5.4,1.8,7.8c1.1,2.1,2.8,2.3,4.7,0.9c2.1-1.6,3-3.6,2.9-5.5
			C480.1,348.1,476.9,347.1,473.8,346.1z"/>
		<path class="st12" d="M428.3,340.9c-2.3-0.5-3.5,0.5-4.8,1c-4.4,1.8-6,3.9-5,7.3c3.1-1.7,6.3-3.3,9.5-4.9
			C428.2,343.2,428.3,342.1,428.3,340.9z"/>
		<path class="st4" d="M418.5,349.2c0.3,1,0.7,2,1.4,3.2c0.6,1.1,1.4,2.2,2.7,2.3c1.5,0.1,2.1-1.2,2.6-2.3c1.2-2.6,2.2-5.2,2.7-8.1
			C424.8,345.9,421.6,347.5,418.5,349.2z"/>
		<path class="st6" d="M472.2,366.9c-6.3,11.2-21.6,18.5-32.7,12.1c-0.5-0.3-1.2-0.5-1.7-0.9c-3.4-2.7-6.6-6-6.4-10.3
			c0.3-4.3,4.9-5.1,8.4-6.6c4.5-1.9,9.2-0.7,13.3-1.2c5.8,0.2,11.3-0.1,16.6,1.8C473,362.9,473.7,364.2,472.2,366.9z"/>
		<path class="st7" d="M465.1,353.8c-3.8-0.2-7.5-0.3-11.3-0.4c-8.5-0.3-16.8,0.6-24.6,5.4c3-7.2,5.1-14.3,6.5-21.7
			c0.1-0.6,0.2-1.4,0.6-1.8c5-4.4,9.2-9.7,15.6-12.4c1.8-0.8,3.3-0.1,4.4,1.4c2.9,4.1,5.5,8.5,9.5,11.7c1,0.8,1.3,2.2,1.2,3.5
			c-0.1,3.6,0.6,7.1,1.4,10.6C469.2,353.7,468.8,354,465.1,353.8z"/>
		<path class="st0" d="M424.5,252.6c-2.3,6.2-1.1,13.7,4.1,18.6c6.4,6,13.4,11.5,19.9,17.5c3.4,3.1,6.7,3.1,10.3,1
			c4-2.3,8.5-4.1,11.9-7.1c5.9-5.2,13-10,15.1-17.4C464.2,265.9,438.5,268.5,424.5,252.6z"/>
		<path class="st1" d="M485.8,255.4c1.6-3.7-0.8-6-3.1-8.1c-7.7-6.8-16.4-10.9-26.3-9.9c-13.7-0.6-20.5,3.1-26.6,7.9
			c-2.5,2-4.2,4.5-5.3,7.3c14,15.8,39.7,13.2,61.4,12.6C486.7,262.4,486.8,259.2,485.8,255.4z"/>
		<path class="st13" d="M388.6,282.8c0,1.7-1.5,3.1-3.2,3.1c-1.7-0.1-2.7-1-2.8-2.7c-0.2-1.9,1.6-3.6,3.5-3.3
			C387.8,280,388.5,281.1,388.6,282.8z"/>
		<path class="st13" d="M541.5,291.8c-0.2,1.9-1.2,3.3-3.1,3.4c-1.7,0.1-2.8-1-2.8-2.6c0-2.4,1.6-3.3,3.7-3.2
			C540.8,289.4,541.5,290.4,541.5,291.8z"/>
		<path class="st13" d="M551.9,88.7c-0.9-0.5-1.9-1-2.9-1.3c-7.5-2.3-15-4.3-24.3-4.6c-5.5-0.9-11.4,2.3-16.7,6
			c-8.7,6-9,16.9-1.1,23c5.8,4.6,14.9,3.7,19.8-2.5c5.1-6.4,11.5-10.4,19.1-12.9c1.8-0.6,3.7-0.9,5.5-1.4c1.5-0.3,2.9-0.7,3.2-2.5
			C554.8,90.5,553.5,89.4,551.9,88.7z M521.8,105.8c-2.9,3.7-9.6,3.3-12.5,0.2c-2.6-2.8-2-7.8,1.4-11.4c3.9-4.2,8.6-6.6,14.5-6.3
			c4.8,0.2,9.4,0.8,13.8,3.3C532.4,95.7,526.5,99.9,521.8,105.8z"/>
		<path class="st0" d="M539,91.5c-6.6,4.2-12.5,8.3-17.2,14.2c-2.9,3.7-9.6,3.3-12.5,0.2c-2.6-2.8-2-7.8,1.4-11.4
			c3.9-4.2,8.6-6.6,14.5-6.3C529.9,88.4,534.6,89,539,91.5z"/>
		<path class="st13" d="M408,87.5c-3.9-2.3-8.1-3.4-12.5-4.2c-7.5-1.4-15-1.7-22.4,0.8c-4.2,1.4-7.2,4.2-9.7,7.7
			c-0.5,0.7-1,1.4-0.6,2.3c0.5,1.2,1.6,1.2,2.7,1.1c0.8-0.1,1.7-0.3,2.5-0.4c7.6-0.9,14.5,0.4,20.4,6c2.3,2.2,4.5,4.4,6.4,6.9
			c2.5,3.2,5.7,4.9,9.3,4.6c4.5,0,6.5-1,8.3-3.4C417.6,101.9,415.5,92,408,87.5z M408.2,104.1c-1,2.2-2.9,3-5.2,2.4
			c-1.5-0.4-2.8-1.1-3.6-2.4c-2.2-3.4-5-6.2-8.3-8.5c-3.2-2.3-6.6-4.4-10.3-6.2c8.9-1.6,17.2,0,24.8,4.5
			C408.7,95.7,409.7,101,408.2,104.1z"/>
		<path class="st0" d="M408.2,104.1c-1,2.2-2.9,3-5.2,2.4c-1.5-0.4-2.8-1.1-3.6-2.4c-2.2-3.4-5-6.2-8.3-8.5
			c-3.2-2.3-6.6-4.4-10.3-6.2c8.9-1.6,17.2,0,24.8,4.5C408.7,95.7,409.7,101,408.2,104.1z"/>
		<path class="st13" d="M740,136.1c-4.7-5.1-10.1-9.6-16.5-12.5c-7.4-3.4-13.4-0.5-15.8,7.2c-1.4,4.5,0.1,8.6,3,11.7
			c6.4,6.9,12.9,13.8,18.8,21.2c4.1,5.2,12,3.3,14.1-2.9c0.8-2.3,1.1-4.9,1.4-6.7C744.4,147.3,744.3,140.8,740,136.1z M736.7,159.3
			c-3.5,1.3-4.3-2.4-6-4.4c-4.4-5.1-8.7-10.2-13.7-14.8c-3.7-3.4-4.3-6.3-2.6-9.4c1.5-2.7,3.7-3.7,6.3-2.1c5,3.1,10.3,5.9,14.1,10.5
			c3.1,3.7,4.5,8,4.1,12.9C738.5,154.5,739.8,158,736.7,159.3z"/>
		<path class="st4" d="M736.7,159.3c-3.5,1.3-4.3-2.4-6-4.4c-4.4-5.1-8.7-10.2-13.7-14.8c-3.7-3.4-4.3-6.3-2.6-9.4
			c1.5-2.7,3.7-3.7,6.3-2.1c5,3.1,10.3,5.9,14.1,10.5c3.1,3.7,4.5,8,4.1,12.9C738.5,154.5,739.8,158,736.7,159.3z"/>
		<path class="st13" d="M634.4,240.4c-4.4,0.1-9.3,5.7-9.2,10.4c0.2,5.7,5.9,11.5,11.4,11.5c4.9,0,8.4-4.8,8.3-11.4
			C644.9,245.6,639.6,240.3,634.4,240.4z M639,252.2c-0.2,2-0.3,4.4-3.3,4.3c-2.2-0.1-4.6-3.5-4.5-6c0.2-2.6,2.1-2.7,4.7-2.7
			C638.3,247.9,639.3,249.1,639,252.2z"/>
		<path class="st4" d="M639,252.2c-0.2,2-0.3,4.4-3.3,4.3c-2.2-0.1-4.6-3.5-4.5-6c0.2-2.6,2.1-2.7,4.7-2.7
			C638.3,247.9,639.3,249.1,639,252.2z"/>
		<path class="st13" d="M212.4,120.5c-2.2-3.5-5.7-1.9-8.6-1.1c-7,1.8-13.7,4.6-19.3,9c-5.6,4.3-9.8,9.9-11.4,17
			c-1.1,4.8,0.6,7.7,5.3,9.2c1.6,0.5,3.3,0.6,3.6,0.6c4.2,0.2,6.9,0,9.3-1.6c6.4-4.4,12.8-8.8,19.2-13.3c2.5-1.7,3.9-4.3,5.2-7
			C218,128.1,214.7,124.3,212.4,120.5z M206.7,135.8c-6.5,4.3-13.1,8.4-19.6,12.5c-1.3,0.8-2.7,1.1-4.3,0.9
			c-2.9-0.5-4.1-2.2-2.9-4.9c3.2-7.5,8.1-13.1,16.7-14.7c2.6-0.5,5.1-2,7.7-2.7c3.2-0.9,5.5,0.6,5.7,3.3
			C209.9,132.5,208.7,134.5,206.7,135.8z"/>
		<path class="st4" d="M210,130.2c-0.1,2.3-1.3,4.3-3.3,5.6c-6.5,4.3-13.1,8.4-19.6,12.5c-1.3,0.8-2.7,1.1-4.3,0.9
			c-2.9-0.5-4.1-2.2-2.9-4.9c3.2-7.5,8.1-13.1,16.7-14.7c2.6-0.5,5.1-2,7.7-2.7C207.4,126,209.8,127.4,210,130.2z"/>
		<path class="st13" d="M284.7,238.4c-4.1-1.5-7.4,0.6-10.4,2.9c-2.4,1.9-3.5,4.7-4.1,7.6c-1,5,2.3,9.8,7.3,10.7
			c5.6,1,13.1-5.1,13.2-10.8C290.8,245.2,287.6,239.5,284.7,238.4z M280.1,253.8c-2.7,0.1-3.6-1.7-3.7-4c-0.2-2.8,2.4-5.5,4.9-5.3
			c1.9,0.1,3.5,2.1,3.5,4.5S282.6,253.7,280.1,253.8z"/>
		<path class="st4" d="M284.8,248.9c0,2.5-2.2,4.8-4.7,4.9c-2.7,0.1-3.6-1.7-3.7-4c-0.2-2.8,2.4-5.5,4.9-5.3
			C283.2,244.5,284.8,246.5,284.8,248.9z"/>
		<path class="st13" d="M374.4,309.3c-3.2,0-3.9,5-0.6,5C376.9,314.3,377.6,309.3,374.4,309.3z"/>
		<path class="st13" d="M405.4,300.7c-3.2,0-3.9,5-0.6,5C407.9,305.6,408.6,300.7,405.4,300.7z"/>
		<path class="st13" d="M502.7,295c-3.2,0-3.9,5-0.6,5C505.3,300,506,295,502.7,295z"/>
		<path class="st13" d="M537.1,316.7c-3.2,0-3.9,5-0.6,5C539.6,321.6,540.3,316.7,537.1,316.7z"/>
	</g>
	<g id="圖層_1_1_">
		<path class="st5" d="M455.5,305.6l7.6,25.2l27,13.5l42.3,0.6l16-8.3l9.3-11.4l4.7-16.1C562.4,309.2,514.9,352.1,455.5,305.6z"/>
		<path class="st5" d="M454.6,308.7L440.9,323l-13.8,10.8l-12.7,7.8l-23,4.4l-22.2-1.7c0,0-21-11.9-21.5-11.9s-7.3-11.8-7.3-11.8
			l-1-5.7C339.4,315,403.1,342.3,454.6,308.7z"/>
		<path class="st5" d="M702.7,419.7l35.4-14.5l17.5-12.8l6.2-13.8C761.9,378.7,674.6,400.4,702.7,419.7z"/>
		<path class="st5" d="M156.7,401.4l-17.6-10.8l-7.1-10.5l1.5-6l1.8-6C135.2,368.2,170.9,365.2,156.7,401.4z"/>
		<path class="st5" d="M704.2,320.2c0,0,40.2-14.6,45.2-1.5s0-5.4,0-5.4l-3.9-19.8l-13,8.5L704.2,320.2z"/>
		<path class="st5" d="M169.3,303.8l-8.5-8l-9.3-7.4l-1.4,4.3l-8.2,12.3l-2.9,6.7C139.1,311.8,152.8,295.8,169.3,303.8z"/>
		<path class="st5" d="M204.7,334.7c0,0,41.3,12.6,90-7.3C294.7,327.4,247.4,367.6,204.7,334.7z"/>
		<path class="st5" d="M682.4,339.5c0.3-0.2-38,6.6-62.5-4.6C619.9,334.9,641.3,364.9,682.4,339.5z"/>
	</g>
	<g id="圖層_4">
		<path class="st13" d="M565.4,306.9c-0.1-1.2-0.8-2.4-1.5-3.4c-1.1-1.6-2.7-2-4.5-1.3c-2,0.8-2.3,2.4-1.3,4.1
			c1.7,3.1,0.9,6.2,0,9.2c-1,3.4-2.2,6.8-3.2,10.3c-0.9,2.9-2.7,5.1-5.2,6.9c-7.9,6-17,9.2-26.7,10.4c-18.6,2.2-36.1-1.7-51.9-11.8
			c-7-4.5-11.4-11.1-11.2-20c0.1-3.8,0.5-7.6,0.6-11.3c0.1-3.9,1.9-5.9,5-7.2c7.2-3,12.8-8,18.3-13.2c3.8-3.6,8.2-5.8,13.3-6.8
			c7.6-1.5,15.2-3.5,23.1-1c2,0.6,4.5,0.8,5-2.2c0.5-2.8-1.7-3.7-3.8-4.2c-4.3-1-8.6-1.9-13.1-1c-4.7,0.9-9.4,2-15.4,1.9
			c1.3-2.9,2.2-5,3.1-7c0.7-1.6,0.9-3.2,0-4.8c-4.9-8.2-10.5-15.7-19.9-19.4c-16.5-6.4-32.5-6.5-47.5,4.1c-3.2,2.3-5.8,5.5-8.8,8.2
			c-3.4,3.1-4.4,7-4.6,11.3c0,1.3,0.1,2.5,0.3,3.8c0.6,3.1-0.9,3.7-3.6,3.2c-2.1-0.4-4.2-0.6-6.3-0.8c-1.9-0.2-3.8-0.2-5.6,0.5
			c-1.4,0.5-2.9,1.3-2.6,3.1c0.2,1.5,1.7,1.7,2.9,1.9c4.6,0.7,9.2,1.4,13.7,2.1c3.4,0.5,7,1,9.4,3.4c6,6,13.4,10.1,19.2,16.3
			c6.9,7.3,6.9,16.3,0,23.5c-7.3,7.7-15.5,14.1-24.8,19.3c-16.7,9.3-33.9,10.4-51.8,4.3c-4.4-1.5-8.8-3-12.6-5.8
			c-8.3-5.9-12.4-16.1-9.9-26c3.5-13.8,11.3-24.7,22.9-33c2.4-1.8,5.3-2.5,8-3.8c1.6-0.7,3.2-1.6,2.5-3.7c-0.7-2-2.6-1.9-4.3-1.6
			c-1.2,0.2-2.5,0.5-3.6,1.1c-5.3,2.6-10.5,5.4-14.6,9.8c-7.5,8.1-13.4,17.3-16.5,28.1c-1.7,5.9-2.9,12.1-0.5,18
			c3.7,9,9.2,16.9,18.7,20.4c13.5,5,27.3,8.9,42,6c3.3-0.7,6.6-1.5,9.8-2.5c3.1-0.9,4.7-0.1,5.2,3.3c0.8,4.8,3,8.7,7.5,11.1
			c1.9,1.1,2.9,3,3.3,5.2c1,6.1,4.5,10.9,8.8,15c4.3,4.2,9.5,7.3,15.8,6.9c10.3-0.8,19.2-4.9,25.8-13c5.5-6.6,8.6-14.8,13.4-21.8
			c0.1-0.2,0.1-0.4,0.2-0.6c2-5,2-5,7.5-3.8c2.3,0.5,4.5,1,6.8,1.5c6.7,1.4,13.4,1.5,20-0.1c2.5-0.6,5-1,7.5-1.3
			c8.6-1,17-2.7,24.2-8.1c5.6-4.2,9.8-9.5,11.5-16.1C566.6,318.7,565.9,312.7,565.4,306.9z M428.6,271.2c-7.5-7.1-6.8-19.6,1.2-25.9
			c6-4.8,12.9-8.5,26.6-7.9c9.9-1.1,18.6,3,26.3,9.9c2.4,2.1,4.7,4.4,3.1,8.1c3.5,13.8-6.9,20.1-15,27.3c-3.4,3-7.9,4.8-11.9,7.1
			c-3.7,2-7,2.1-10.3-1C442,282.7,435,277.2,428.6,271.2z M425.3,352.4c-0.5,1.1-1.1,2.4-2.6,2.3c-1.4-0.1-2.1-1.2-2.7-2.3
			c-3.1-5.4-2.1-8.2,3.6-10.5c1.3-0.5,2.6-1.5,4.8-1C428.2,345.2,426.9,348.8,425.3,352.4z M435.7,337.1c0.1-0.6,0.2-1.4,0.6-1.8
			c5-4.4,9.2-9.7,15.6-12.4c1.8-0.8,3.3-0.1,4.4,1.4c2.9,4.1,5.5,8.5,9.5,11.7c1,0.8,1.3,2.2,1.2,3.5c-0.1,3.6,0.6,7.1,1.4,10.6
			c0.8,3.7,0.5,3.9-3.2,3.7c-3.8-0.2-7.5-0.3-11.3-0.4c-8.5-0.3-16.8,0.6-24.6,5.4C432.2,351.6,434.3,344.4,435.7,337.1z
			 M472.2,366.9c-6.3,11.2-21.6,18.5-32.7,12.1c-0.5-0.3-1.2-0.5-1.7-0.9c-3.4-2.7-6.6-6-6.4-10.3c0.3-4.3,4.9-5.1,8.4-6.6
			c4.5-1.9,9.2-0.7,13.3-1.2c5.8,0.2,11.3-0.1,16.6,1.8C473,362.9,473.7,364.2,472.2,366.9z M480.2,354.7c-1.8,1.4-3.6,1.2-4.7-0.9
			c-1.3-2.4-1.6-5.1-1.8-7.8c-0.1-3.9,0.6-4.3,4.4-2.7C483.9,345.7,484.9,351.1,480.2,354.7z"/>
		<path class="st13" d="M751.8,312.5c-2.5-10.6-3.3-20.9,5-29.7c2.4-2.5,3.5-5.9,3.7-9.2c0.7-9.3,3.1-17.6,7.4-26.2
			c8.1-16.3,10.4-34.3,9.8-52.3c-0.5-14.2-3.6-28-11.2-40.4c-4.4-7.2-7.6-15.2-12.7-21.8c-9.8-12.4-20.9-23.7-34.9-31.5
			c-9.1-5.1-18.5-9-29-10c-5.7-0.5-11.4-0.8-17-1.5c-5-0.7-5.7-1.6-5.7-6.5c0.1-7-0.2-13.9-1.3-20.8c-1.6-10-2.8-20-6-29.7
			c-2.5-7.5-7.3-12.2-15-14.8C638,15.8,631,15,624,13.7c-10.8-2-21.5-1.6-32.1-0.3c-23,2.8-44.7,10.3-65.4,20.3
			c-4.6,2.2-8.8,3-13.9,2.1c-17.6-3.1-35.4-4.8-53.4-5c-15.2-0.2-30.3-0.4-45.4,1.5c-8.3,1.1-16.8,0.9-25.1,2.8
			c-16.6,4-33.5,6.8-49.6,12.3c-4.3,1.4-7.7,1-11.1-1.9c-1.7-1.5-3.8-2.7-6-3.5c-19.4-7-38.9-13.7-59.5-16.8
			c-4.8-0.7-9.7-0.4-14.4-1.4c-7-1.5-12.2,2.2-17.7,5.1c-4,2.1-3,6.6-4.3,10.1c-0.4,1.2-0.7,2.4-1,3.6c-4.4,16.2-9.2,32.4-8.8,49.5
			c0.2,5.8-0.5,6.3-6.1,8c-7.8,2.4-15.7,4.6-23,8.6c-15.5,8.5-28.2,19-36.9,35c-10.5,19.4-15.5,39.9-17.2,61.5
			c-1.4,18.3,3.1,35.5,11.2,51.8c1.6,3.2,2.4,6.1,1.2,9.6c-1.1,3.2-1.4,6.5-0.4,9.9c2.9,9.8,0.5,18.6-4.6,27.1
			c-4,6.7-9.3,12.5-13,19.4c-3.5,6.5-5.1,13.2-2.3,20.6c2,5.4,5.9,8.6,10.7,11c2.8,1.4,3.2,3,1.4,5.4c-2.1,2.9-4.3,5.8-6.1,8.8
			c-4.1,6.8-4.1,13.5,0.6,20.1c3.7,5.1,8.7,8.6,14.3,11.2c3.8,1.8,6.6,4.3,8.4,8.1c2.9,6.5,5.8,13.1,9.2,19.4
			c4.5,8.4,10.5,15.7,16,23.4c9.8,13.8,20.9,26.4,33,38.2c21.2,20.7,45.5,36.7,72.6,48.5c2.4,1,5,1.9,6.9,3.7
			c-0.4,1.3-1.3,1.4-2.1,1.6c-10,2.9-19.5,6.6-29,10.9c-1.5,0.7-3.2,1.2-4.8,1.5c-10.7,1.7-15.3,6.9-14.4,17.5
			c0.3,3.8-1,6.5-3.3,9.1c-2.9,3.2-5.1,6.7-5.8,11c-1.2,7.8,1.2,12.6,8.9,14.1c5.4,1.1,6.7,4.2,7.3,8.6c2.2,15,4.3,30,6.6,45
			c1.2,7.9,1.8,15.9,4.6,23.5c0.9,2.4,1.5,5,3.7,6.5c3.1,2.1,3.5,4.8,3.1,8.2c-0.6,5.3-0.4,10.6,4.3,14.4c1.4,1.1,1.3,2.5,0.2,3.9
			c-3.8,4.8-3.4,9.7-0.1,14.6c1.5,2.2,1.5,4.3,0.1,6.5c-5.9,9.3-9.5,19.7-14.6,29.4c-3.6,7-6.5,14.1-5.1,22.4
			c0.4,2.4,0.3,4.5,2.4,5.9c3.8,2.7,3.6,6,2.4,10.1c-3.7,12.3-7.2,24.7-10.5,37.1c-1.3,5-2.9,9.5-6.2,13.6c-4.5,5.7-4,12.7,0.7,18
			c5.8,6.5,14.2,9,21.9,11.6c6.3,2.1,12.8,0.5,17.1-5.9c1.5-2.3,3.4-4.3,4.9-6.6c6.5-10.3,13-20.6,19.7-30.9c1.9-3,4.1-5.9,6.4-8.6
			c2.4-2.9,5.8-4.6,9.5-3.8c13.6,2.9,27.5,3.6,41.3,5.3c13.4,1.7,26.8,2.7,40.3,3.1c11.2,0.3,22.3-0.1,33.5-0.9
			c14.5-1,29-2.5,43.1-6.1c10-2.5,20-5.1,30-7.5c19.7-4.7,39.4-9.2,58.8-14.9c2.5-0.7,4-0.2,5.1,2.1c1.8,4,3.8,8,5.6,12.1
			c6.5,14.8,13,29.7,19.6,44.5c5.6,12.4,17.1,19,30.1,17c5.3-0.8,10.4-3.3,15.2-5.9c3.5-1.9,7.2-3.6,9.9-6.7
			c4.4-5,4.7-10.7,0.6-15.9c-1.8-2.2-2.8-4.7-3.6-7.3c-5.1-16.3-10.1-32.6-15.1-48.9c-1.6-5.3-1.8-10.4,0.1-16
			c1.4-3.8,1.7-8.5,0.8-12.4c-3.2-14.4-8-28.4-15.9-41c-1.9-3-3-5.2-0.9-8.5c2-3.3,1-6.5-1.3-9.3c-1.1-1.3-2.3-2.5-3.6-3.5
			c-2-1.5-2.8-3.1-1.3-5.4c3-4.5,3-9.5,2.2-14.6c-0.3-1.7-0.5-3.3,0.3-4.9c4.8-10.1,5.8-21.1,7.7-31.8c2.3-13.5,4.7-27,7.6-40.3
			c0.7-3,2-4.9,5.1-5.6c6.9-1.5,11.3-5.9,14.1-12.4c3-7,2.6-10-2.7-15.3c-1-1-2.2-2.1-3.4-2.7c-2.8-1.4-3.9-3.4-4.2-6.5
			c-0.3-3.8-2.5-6.6-6.1-8.2c-12.6-5.4-25.1-11-38.5-14.1c-1.6-0.4-3.4-0.2-4.7-2c0.6-1.5,1.6-1.9,2.5-2.4
			c6.8-4.4,14.4-7.1,21.6-10.5c21.6-10.2,42.2-22.3,60.8-37.2c18.1-14.5,33.9-31.5,47-50.8c6.4-9.5,12.1-19.2,13.8-30.8
			c0.6-4.2,2.8-6.8,6.7-8.4c5.3-2.2,9.9-5.6,14-9.5c7.6-7.1,10.9-18,4-27.9c-3-4.4-2.7-4.9,1.8-8.8c4.1-3.5,6-7.9,6.2-13.3
			c0.2-6.6-2.8-11.8-6.8-16.5C757.1,324.8,753.5,319.2,751.8,312.5z M244.2,600.9c-2.2,0.1-4.4-2.1-4.3-4.5c0.2-3.4,1.8-6.2,5.3-9.7
			c0.7,4.3,1.3,7.2,1.6,10.1C247,598.6,246.9,600.7,244.2,600.9z M637.1,584.8c0.2-1,0.7-2.1,2-2c1.2,0.1,1.8,1,2.3,1.9
			c3.5,6.1,0.4,13.5-7.2,16C633.7,594.8,635.9,589.9,637.1,584.8z M676.3,96.8c4.8,0.6,9.4,2.1,14.4,0.9c2.2-0.5,4.6,0.6,6.8,1.3
			c17.6,6.2,32.9,15.7,45,30.2c6,7.2,10.5,15.2,15.4,23.1c16.1,26.3,16.8,53.9,8.3,82.7c-4.7,15.7-13.8,27.7-27.9,36
			c-3.8,2.2-7.4,4.8-11.2,7c-9.7,5.7-20.3,7.9-31.3,9c-15.4,1.6-30.7,2.4-45.8-0.9c-19-4.2-36.4-11.9-50.3-26.1
			c-8-8.2-13-18.4-16.2-29c-3.6-11.8-6.6-24-6-36.6c0.5-19.8,4.2-39,14.1-56.3c10-17.3,24.5-29.8,43.4-36.9c2.4-0.9,4.8-1.7,7.3-1.8
			c1.4,0,3.1-0.1,4.3-0.7C656.2,93.8,666.3,95.5,676.3,96.8z M635.5,93.5c-0.1,1.5-1,1.7-1.7,1.9c-10.9,2.7-20.1,9.1-28.1,16.3
			c-9.5,8.4-18.3,18.2-23.3,30.3c-5.7,13.7-9.1,27.9-10.6,42.7c-1.7,16.3,1.3,32,5.5,47.4c3.1,11.2,7.8,22.1,16.1,30.5
			c10.2,10.3,21.7,19.4,35.9,23.9c5.2,1.7,10.4,3.4,15.6,5.2c10.6,3.7,21.7,3.4,32.5,3.4c9.6,0,19.3-1,28.8-2.9
			c12-2.4,22.9-7,32.9-14c3-2.1,6.2-4.1,10.3-6.8c-1,4.5-2.5,7.4-4.7,9.4c-5.5,4.8-9.1,11-13.9,16.4c-11,12.1-24.5,19.9-40.4,23
			c-12.4,2.4-25,3.8-37.7,3c-24.6-1.5-47.8-7.8-68.9-20.7c-10.9-6.7-19.6-16-26-27.1c-6.1-10.6-11.5-21.5-14.7-33.5
			c-1.6-6-3.5-12.1-5.3-18.1c-3.9-13.3-3.2-26.8-1.6-40.1c1.6-13.8,8.1-26.1,15-38c14.7-25.5,37.4-41.1,64.5-50.9
			C622.2,92.6,628.8,93,635.5,93.5z M619.2,79c-1.4-1-2.9-2-4.3-2.9c-0.5-0.3-0.9-0.6-1.3-0.9c-0.4-0.3-0.9-0.6-1.3-0.8
			c-0.8-0.5-1.5-0.9-2.3-1.4c-3.5-2.1-7-4.2-10.6-6.2c-0.5-0.3-1.1-0.6-1.6-0.9c-2.5-1.4-4.9-2.8-7.4-4.2c-1.2-0.7-2.3-1.3-3.5-2
			c-0.3-0.2-0.7-0.4-1-0.6c1.4-2.3,3-2.3,4.4-2.8c7.9-2.3,16-3.4,24.1-4.5c1.5-0.2,2.8-0.3,4-0.3c0.1,0,0.3,0,0.4,0
			c0.3,0,0.7,0,1,0.1c0,0,0,0,0.1,0s0.2,0,0.3,0c0.2,0,0.3,0.1,0.5,0.1s0.4,0.1,0.6,0.1s0.4,0.1,0.6,0.2c0.6,0.2,1.1,0.4,1.6,0.6
			c0.2,0.1,0.3,0.2,0.5,0.3s0.3,0.2,0.5,0.3c0.1,0.1,0.3,0.2,0.4,0.3c0.4,0.3,0.8,0.7,1.1,1.2c0.1,0.1,0.2,0.3,0.3,0.5
			c0.2,0.3,0.4,0.6,0.5,0.9c0.1,0.1,0.1,0.2,0.1,0.2c0.3,0.6,0.5,1.2,0.7,1.8c0.1,0.2,0.1,0.3,0.1,0.5c0.1,0.3,0.1,0.5,0.2,0.8
			c0,0,0,0,0,0.1c0,0.3,0.1,0.5,0.1,0.8c0,0.2,0.1,0.5,0.1,0.7c0.1,1.4,0.1,2.9,0,4.6c-0.3,5.4-2.4,10.6-5.1,16.1
			c-0.8-0.6-1.6-1.2-2.4-1.8C620.2,79.7,619.7,79.3,619.2,79z M227.2,56.9c0.9-5,2.9-9.6,4.8-14.3c4.3-11.1,13.2-12.7,23-12.2
			c8.2,0.4,16.3,1.8,24.2,4.4c11.6,3.8,23.7,6.1,34.9,10.9c1,0.4,2,0.6,3,1.1c2.7,1.2,6.3,2.2,6.8,5.1c0.6,3.2-3.6,3.4-5.6,5.1
			c-1.6,1.3-3.5,2.3-5.1,3.7c-1,0.8-1.6,2.1-0.8,3.4c0.8,1.4,2.1,1.3,3.3,0.9c3.8-1.3,8.1-1.8,11.3-3.7c5.1-3,10.8-4.5,15.8-7.8
			c5.8-3.9,12.9-5,19.7-6.4c16.7-3.3,33.5-6.8,50.4-8.7c28-3.2,55.8-3.4,83.6,2.4c10.5,2.2,21.3,2.9,31.7,5.6
			c0.8,0.2,1.7,0.2,2.5,0.2c1.7-0.1,3.6-0.2,4.3-2c0.8-2.3-0.8-3.4-2.7-4.3c-0.5-0.3-0.9-0.7-1.4-1.1c0.6-2,2.5-2.3,3.9-2.9
			c13.6-5.8,27.5-10.8,41.9-13.8c19.3-4,38.7-5.7,58.1,0c1.2,0.4,2.4,0.7,3.6,1.1c7.3,2.4,12,6.6,13.2,15
			c1.9,13.5,5.7,26.8,7.2,40.4c1.1,9.8,0.6,10.4-9.3,9.1c-5-0.6-10-1.2-15.1-1.2c-4.5,0-4.8-0.6-3.8-4.9c1.1-4.3,3-8.3,3.9-12.7
			c0.9-4.5,0.5-8.8-0.8-13.1c-2.1-7-8.1-11.3-15.3-10.5c-12.3,1.5-24.7,2.8-36.5,7.2c-4.2,1.6-8.1,2.1-12.2,0
			c-1.7-0.9-3.9-1.5-4.8,1c-0.8,2.3,1,3.5,2.8,4.3c6.5,2.9,13.3,5.2,19.5,8.8c9,5.1,18,10.1,26.4,16.2c1.3,1,2.9,1.8,3.8,4.7
			c-8.8,1.8-16.2,6.3-23.9,10.2c-22.4,11.5-39.6,28.2-51.4,50.6c-4.7,9-9.4,17.9-11.6,27.9c-1.1,5.2-2,5.3-6.2,2.4
			c-13.4-9.3-25.4-20-35.4-33c-6.7-8.7-13.3-17.4-19-26.7c-5.6-9-9.9-18.5-12.8-28.8c-0.6-2.1-0.4-5.2-3.5-5.1
			c-2.8,0.1-3.3,2.9-4,5.1c-0.5,1.6-0.7,3.3-1.1,4.9c-4.3,17.6-14.8,31.4-27,44.2c-13.5,14.1-30.2,24.1-46.3,34.8
			c-5.5,3.6-7.5,2.9-9.4-3.6c-4.4-15.3-12.7-28.4-22.4-40.7c-5-6.4-11.8-10.8-19.2-14c-6-2.6-12.1-4.9-18.3-7.1
			c-2.7-1-5.6-2.1-8.6-1.2c-2,0.5-3.7-0.3-5.5-1.1c-6.3-3-12.7-5.7-19.3-7.8c-3.8-1.2-4-2.1-0.9-5.1c8.2-8.1,18.2-13.5,28.8-17.9
			c1-0.4,2.1-0.4,3-0.9c4.5-2.3,5-6.3,1.1-9.5c-3.2-2.6-7.1-3.7-10.8-5c-9.7-3.5-19.5-6.8-30-6.6c-7.8,0.1-13.3,3.6-15.8,11
			c-2.3,6.6-3.5,13.3-2.5,20.5c1.5,11,0.8,11.5-10.1,11.6c-11.1,0-10.9,0-11-11.1C224.2,76,225.5,66.4,227.2,56.9z M332.5,157.8
			c-4.6-12-9.3-24-18.1-33.8c-0.7-0.8-1.4-1.8-0.7-2.8c0.8-1.4,2.2-1,3.4-0.7c9.4,3,17.5,7.9,23.8,15.8c19,24.1,25.7,51.7,23.6,81.8
			c-0.8,10.6-3.8,20.7-7.6,30.5c-2.4,6.1-5.3,11.9-8,17.8c-1.1,2.5-2.6,4.8-4.5,6.9c-22.3,24.5-49.6,39.2-82.5,43.5
			c-9,1.2-17.8,2.8-27,2.4c-18.5-0.8-36.5-3.4-53.2-11.8c-11-5.5-19.2-14.3-26.5-23.9c-2.5-3.3-3.9-7.3-3.6-11.7
			c2.5-0.2,3.4,1.4,4.5,2.6c15.3,17.1,34.9,24.9,57.3,27.4c25.6,2.9,48.8-3.2,70.5-16.5c14.6-8.9,27.4-20,36.5-34.3
			c9.6-15,14.8-32,18.1-49.5C341.2,186.3,338,171.9,332.5,157.8z M257.4,88.2c-4.5,1.7-5.4,1.4-6-3.5c-0.9-7.1,0.8-13.8,4.1-20.1
			c0.1-0.3,0.3-0.5,0.5-0.8l0,0c0.1-0.2,0.3-0.4,0.4-0.6l0,0l0.1-0.1c0-0.1,0.1-0.1,0.1-0.2c0.1-0.1,0.2-0.3,0.4-0.4l0,0
			c0.2-0.2,0.4-0.4,0.6-0.6c0.2-0.1,0.4-0.3,0.5-0.4c0.1-0.1,0.2-0.1,0.3-0.2c0.1,0,0.2-0.1,0.3-0.2c0.2-0.1,0.5-0.2,0.7-0.3
			c0.1-0.1,0.3-0.1,0.4-0.1c0.5-0.2,1-0.3,1.5-0.3c0.2,0,0.5,0,0.7,0c11.1-0.2,21.7,1.5,31.9,7.2c-0.6,1-0.7,1.5-1,1.7
			c-2.3,1.1-4.5,2.3-6.7,3.5c-2.9,1.6-5.8,3.3-8.7,5.1c-2.2,1.3-4.3,2.5-6.5,3.8C266.6,84,262.1,86.4,257.4,88.2z M140,198.3
			c0.9-5.4,1.7-10.8,2.7-16.2c3.3-17.8,11.7-33.2,21.5-48c2-3,4.8-5.3,7.6-7.6c19.3-15.5,41.5-22.6,66-23.2
			c9.9-0.2,19.8,0.1,29.6,1.4c7,0.9,13.4,3.4,19.3,7.3c3.9,2.5,7.8,5.1,11.7,7.5c9.8,6.1,16.9,14.4,21.6,24.9
			c5.1,11.3,10,22.7,12.1,35.1c0.6,3.6,0.7,7.1,0.7,11.3c0.3,7.7-1.9,15.7-3.8,23.6c-2.8,11.5-7.5,22.3-13.3,32.7
			c-2.7,4.8-6,9.2-10.1,12.9c-4.5,4.1-8.5,9.1-13.6,12.2c-6.8,4-12.4,9.8-19.9,12.7c-7.3,2.8-14.2,6.4-21.9,8.2
			c-16.4,3.9-32.9,3.6-49.4,0.3c-18.2-3.7-32.4-13.7-44.3-27.4c-2.8-3.3-5-7.3-6.9-11.3C141.5,236.8,136.9,218.2,140,198.3z
			 M271.3,678.6c-0.8,1.2-1.7,2.8-3.3,2.6c-2.1-0.3-2.1-2.5-2.4-4c-1.5-7.4-2.7-14.9-4.2-22.4c-5.1-26.9-7.6-54.2-11.3-81.3
			c-0.8-5.6-0.5-6.2,4.9-8.6c13.4-6,26.5-12.9,40.9-16.7c6-1.6,11.7-2,17.9,0c12.3,3.8,24.8,6.9,37.4,9.3c3.1,0.6,5.2,2.6,7.4,4.6
			c15.1,13.8,29.6,28.2,45.1,41.5c7.9,6.7,16.3,12.7,25.5,17.4c0.6,0.3,1,0.7,1.4,0.9c-0.6,2.8-2.6,3.9-4.2,5.1
			c-19.8,14.8-37.7,31.7-55.5,48.8c-1.7,1.6-3.5,3.2-4.7,5.1c-3.1,4.8-7.4,7.3-12.8,8.4c-14.6,2.8-28.1,8.7-42,13.5
			c-8,2.8-15.8,5.8-23.3,9.7c-2.7,1.4-4.7,0.8-7.5-0.8c-7.7-4.7-7.8-11.1-5.9-18.6c2.3-9,5.9-17.3,10.8-25.4
			c10-16.2,20.3-32,31.6-47.3c4.6-6.3,8.8-12.9,12.4-19.8c0.4-0.8,0.9-1.5,1.2-2.2c0.6-1.5,0.8-3-0.8-3.9c-1.5-0.9-2.9-0.4-4,0.8
			c-0.6,0.6-1.1,1.3-1.5,2c-7,14.3-17,26.6-26.1,39.5c-7.4,10.6-14,21.5-20.8,32.4C275.5,672.4,273.4,675.5,271.3,678.6z M443,613.5
			c-0.5,1.8-4.9,4.2-6.8,3.6c-2-0.7-3.9-1.6-5.7-2.6c-9.6-5.7-18.6-12.2-27.2-19.4c-12.2-10.4-22.9-22.3-35.7-32
			c-0.6-0.5-1.3-1.1-1.1-2.3c6.2,0,11.4,1.6,16.3,6c16.2,14.4,32.9,28.2,51.6,39.3c1.8,1.1,3.6,2.2,5.3,3.4
			C441.2,610.6,443.6,611,443,613.5z M484.4,592c15.8-10.6,31.8-20.6,49-28.6c9.7-4.5,10.7-5.1,23.9-5.8c-3.6,2.3-6,3.8-8.5,5.4
			c-2.5,1.5-5,3.1-7.6,4.5c-27,14.8-52.4,32.1-77.3,50.2c-19.3,14-37.6,29.1-53.9,46.5c-3.2,3.4-6.1,7-8.8,10.8
			c-2.2,3.1-5,4.9-8.7,5.6c-6.5,1.1-13,2.5-20.3,4c1.4-3.1,3.4-4.6,5.1-6.4c18.7-19.1,38.4-37.2,60-53
			C452.8,613.7,468.4,602.7,484.4,592z M288.3,856.1c-4.1,6.6-8,13.4-12.8,19.5c-1.6,2-3.4,3.8-7.2,3.5c-7.4-2.3-16.7-2.7-21.9-11.5
			c-1.4-2.5-2.4-4.9-0.4-6.9c5.6-5.6,6.2-13.2,8.1-20.2c0.2-0.8,0.5-1.6,0.6-2.5c1.6-8.5,1.5-9.9,11.1-5.6
			c8.8,3.9,15.5,10.7,21.8,17.8C289.2,852.1,289.6,854,288.3,856.1z M301.7,836c-6.3,9.8-6.6,10.2-15.1,2.2c-6.9-6.4-14-12-23-15
			c-2.8-0.9-4.1-3-3.3-5.9c1.1-4,2.3-8.1,3.5-12.1c0.7-2.3,2-2.9,4.3-1.8c4.5,2.3,9.2,4.2,13.6,6.5c4.7,2.5,10,3.3,15,4.5
			c1.8,0.4,3.4,0.9,2.6,2.9c-1.2,4.6-0.2,8.3,2.4,11.7C303.6,831.5,303.3,833.5,301.7,836z M302.6,799.2c-0.4,1.6-0.7,3.3-1,5
			c-0.4,2.3-1.9,3.1-5.3,2.8c-2.1-0.6-5.4-1.3-8.5-2.7c-7.1-3.1-14.3-6.3-21.2-9.8c-7.7-3.9-9.5-8.6-6.1-16.6
			c4.5-10.7,9.5-21.1,14.3-31.6c2.1-4.6,5.6-7.3,10.1-9.7c9.3-5,19-9,29.1-11.9c1-0.3,2-0.7,3-0.9c1.9-0.3,2.8,0.5,2.3,2.5
			c-3.1,12.7-5.8,25.5-9.5,37.9C306.5,775.6,305.4,787.5,302.6,799.2z M316.3,796.7c-0.6,6.9-1.6,13.8-2.5,20.6
			c-0.2,1.5-0.6,2.9-1,4.3c-0.6,2.3-1.8,3.9-4.4,3.2c-2.3-0.6-2.8-2.3-2.4-4.4c0.5-6.7,1.5-13.3,2.7-20c2.7-15.7,5.9-31.4,10.2-46.8
			c2.1-7.7,2.8-15.7,5.4-23.3c0.9-2.6,1.9-5.1,3.9-7.1c0.9-1,2.1-1.5,3.4-0.7c1.1,0.7,0.6,1.9,0.3,2.9c-1,3-2.3,5.9-3,9
			C323.6,754.9,318.3,775.5,316.3,796.7z M637.6,832.3c2,7.1,4.2,14.1,6.2,21.2c0.8,2.7,1.9,5.1,3.4,7.4c3.1,4.7,2.4,7.4-2.6,10.2
			c-6,3.3-12.3,5.6-19.9,4.6c-11.5,1.9-19-3.5-22.8-14.9c-0.7-2.2-2-4.2-2.9-6.3c-1.9-4.5-1.6-6.2,2.3-9.3c2.9-2.3,6.3-4.2,9.5-6.2
			c6.2-4,12.5-7.7,19.5-10.3C635.5,826.7,636,826.9,637.6,832.3z M629.8,820.9c-2.6,1.4-5.2,2.8-7.8,4.1
			c-8.5,3.9-16.1,9.1-23.9,14.2c-4.3,2.8-4.8,2.7-6.9-1.8c-3.7-8-7.4-16-11-24.1c-2.3-5.1-1.9-6.4,3.4-7.8c12-3.3,23.6-7.8,35-12.6
			c2.4-1,7.4,0.8,8.2,3.4c2.2,6.8,3.9,13.8,5.5,19.6C632.5,819,631.4,820.1,629.8,820.9z M617.7,739.6c4.5,9.1,7.8,18.7,10.6,28.3
			c2.4,8.1-0.1,13.8-8,17.3c-9,4-18,8.2-27.6,10.9c-28.9,8.3-57.8,16.7-87.3,22.9c-8.2,1.7-16.4,3.9-24.5,6.2
			c-12.2,3.4-24.9,4.2-37.3,6.2c-10,1.6-20.1,1.5-31.1,1.5c-18,0.6-36.5-1.7-55.2-3.5c-9.6-0.9-19.3-2-28.8-3.9
			c-8.1-1.6-8.8-2-8-10.4c1.7-16.5,3.1-33.1,6.8-49.4c1.9-8.4,3.8-16.8,5.8-25.2c1-4.3,2.7-8.4,4.3-12.5c2.8-7.2,8.3-11,15.4-12.5
			c16.7-3.6,33.4-6.7,50.4-8.6c18.6-2.1,37.3-2.5,56-3.1c23.5-0.7,46.7,0.9,69.8,4.2c21.3,3,41.8,9.4,62.3,15.8
			c6.8,2.2,13.6,4.5,19.6,8.5C614,734.1,616.2,736.4,617.7,739.6z M613,718.5c0.2,2.9-1.7,4.8-4,4.5c-1.9-0.3-3.6-1-5.4-1.7
			c-25.6-9.3-51.6-16.9-78.7-20.7c-23.6-3.3-47.4-3.5-71.2-3.3c-39.6,0.3-78.4,6-116.8,15.4c-6.3,1.5-12.7,3-19.1,4.4
			c-11,2.5-21.4,6.4-31.4,11.4c-2.6,1.3-5.1,2.2-7.7,0.4c-2.5-1.6-2.6-3.8-0.2-5.5c1.2-0.9,2.5-1.5,3.9-2.1
			c18.8-8,37.6-16,57.1-22.1c14.1-4.4,28.5-7.2,42.9-10.5c16.7-3.9,33.8-4.4,50.7-6.2c10.9-1.2,21.7-2.7,32.7-2.3
			c16,0.5,32,0.5,47.8,2.3c26.5,3,52.4,8.5,76.1,21.3c6.1,3.3,12.2,6.6,18.3,9.9C610.3,715.1,612.3,716.5,613,718.5z M591.4,554.3
			c12.4,2.7,24.3,7,35.5,13.1c6.3,3.4,6.5,3.7,4.9,11c-3.2,15.3-6.7,30.5-9.8,45.7c-2.6,12.8-4.9,25.7-7.3,38.5
			c-0.7,3.7-1.4,7.4-3.7,12.4c-7.1-11.8-16.2-20.2-22.7-30.5c-8.1-12.6-17-24.6-23.4-38.3c-0.9-2-2.3-3.5-4.3-4.4
			c-1.3-0.6-2.5-0.4-3.5,0.5c-1.1,0.9-1.5,2.1-1,3.4c0.6,1.4,1.2,2.7,2,3.9c9.7,15.5,19.5,31,28.3,47.1c3.5,6.5,7.6,12.7,12.1,18.5
			c3.6,4.7,5.2,10.5,9.1,15c1.8,2.1,1.6,5.4,0.7,7.9c-1.7,4.8-3.9,7.1-9.3,3.9c-21.3-12.6-44.5-19.8-68.9-23.8
			c-26.8-4.3-53.7-4.4-80.7-3.5c-11.6,0.4-23.1,1.9-34.6,2.9c-2.2,0.2-4.5,0.9-7.2-0.1c2-4.8,5.4-8.4,8.6-11.8
			c13-13.8,27.6-26,42.7-37.5c10.9-8.3,22.2-16.1,33.2-24.2c14.9-11.1,31.2-20,47.3-29.2c6.2-3.5,12.4-7.1,18.6-10.7
			c3.7-2.1,7.1-4.5,9.4-8.3c2.9-4.9,8-5.8,12.8-7.3c1-0.3,2.2-0.3,2.7,0.9C584.6,553.4,588.2,553.6,591.4,554.3z M757,355.7
			c-3.7,2.8-6,3.8-10.1,0.2c-1.3-1.1-2.8-1.9-4.3-2.7c-1.4-0.8-2.9-0.7-4,0.7c-1.1,1.4-0.7,2.9,0.5,4c1.5,1.4,3.3,2.7,5,3.9
			c3.8,2.7,7.5,5.5,10.2,9.4c4.9,7.1,4.3,13.7-1.6,20c-5.7,6.2-13.3,9.5-20.3,13.8c-8.6,5.3-18.1,9-27.1,13.6
			c-1.6,0.8-3.7,1-4.7,3.8c3.9,1.7,6.9-0.1,10-1.1c2.3-0.8,5-3.4,7-1.6c2.5,2.4,0.1,5.5-0.9,8.2c-3.7,9.6-9.6,17.6-16.8,24.9
			c-22.2,22.3-45.6,43.2-71.9,60.5c-16.4,10.8-33.5,20.2-51.4,28.2c-7.5,3.4-15.3,5.9-23.4,7.5c-3.6,0.7-7,1.6-10.1,3.3
			c-13.4,7.1-27,13.8-40,21.7c-15.6,9.5-30.8,19.9-45.9,30.3c-4.7,3.2-8.5,3.8-13.2,0.8c-12.8-8.2-25.6-16.2-37.4-25.9
			c-4.2-3.5-8.7-6.7-12.9-10.2c-1.4-1.1-3.2-2.1-3.4-4.3c0.4-0.3,0.7-0.7,1-0.6c6.9,1.3,13.9,0.4,20.8,1.5c2.1,0.4,4.2,0.7,6.3,0.3
			c1.6-0.3,2.8-1.2,2.9-2.9c0-1.8-1.3-2.6-2.9-2.8c-5.4-0.7-10.9-1.2-16.3-1.7c-20.1-2-40.1-4.6-59.8-9.4
			c-7.8-1.9-15.6-3.7-23.3-5.8c-21.5-5.8-41.4-15.2-60.5-26.6c-15.3-9.1-29.3-19.9-42-32.2c-7.6-7.4-14.5-15.6-20.9-24.3
			c-12.5-16.9-20.6-36.3-31.3-54.1c-2.8-4.6-6.2-7.8-11.1-9.8c-4.5-1.8-8.8-4.2-12.4-7.5c-6.8-6.1-7.5-11.3-2.8-18.9
			c4.5-7.2,10.3-13.3,15.8-19.6c1.6-1.8,4.8-3.8,2.3-6.2c-2.9-2.9-4.7,0.8-6.5,2.6c-6.1,6.2-8.1,6.3-14.3,0.1
			c-5.6-5.5-6.4-14.7-1.8-21.5c3.9-5.8,8.1-11.3,11.6-17.3c2.4-4,3.8-8.5,5.9-12.6c1.1-2.3,2.4-2.8,4.2-0.8c1,1.1,2.1,2.1,3.1,3.1
			c16.8,17.8,38,25.2,62,27.5c25.5,2.4,49.9-2,74-9.6c4.8-1.5,9.4-3.9,13.8-6.3c10.9-6,21.8-12,30.5-21.2s16.5-18.9,21.2-31
			c4.6-11.8,9.1-23.5,10.7-36.2c1-8,0.9-16,0.3-24c-0.3-3.8,0.6-6.5,3.5-8.8c6.6-5.5,13.1-11.2,18.9-17.6c4.1-4.5,9.4-7.8,14.5-11.1
			c11.5-7.6,20.5-17.4,28.9-28c7-8.8,13.3-18,16.2-29c0.1-0.3,0.6-0.6,1.2-1.2c2.5,5.1,4.8,10.2,7.6,15.1
			c14.3,25.2,31.8,47.6,55.1,65.1c2.7,2,5.3,4.2,8.6,5.2c3,0.9,3.9,2.9,3.7,5.8c-0.1,1.5,0,3-0.1,4.4c-1.4,20.4,2.6,39.8,10.7,58.4
			c1.5,3.5,2.1,7.6,4.3,10.4c8.8,10.7,13.9,24,24.6,33.5c8,7.1,16.9,12.7,26.5,17c18.4,8.2,37.8,13,58,13.9
			c18,0.7,35.7-1.5,52.9-7.2c7.9-2.6,14.4-7.9,21.2-12.4c3.8-2.5,7.9-4.6,10.8-8.5c2-2.7,5.5-1.4,6.1,2c0.4,2.3,0.6,4.6,1.1,6.9
			c1.6,7.7,3.8,15.1,9.2,21.1c2.1,2.3,4,4.9,5.6,7.6C763.4,345.1,762.2,351.8,757,355.7z"/>
		<path class="st13" d="M252.6,341.2c-2.5,0.5-5,0.9-7.5,1.1c-2.9,0.2-5.9,0.1-9.7,0.1c-9.8,0.9-20-2.5-30.3-4.3
			c-0.4-0.1-0.8-0.2-1.2-0.4c-2.3-0.9-4.7-2-3.9-4.8c0.7-2.5,3.2-2.3,5.4-1.8c3.3,0.7,6.6,1.4,9.8,2.3c12,3,24.1,3.3,36.3,1.7
			c2.2-0.3,4.5-0.5,5,2.3C257,340,254.7,340.8,252.6,341.2z"/>
		<path class="st13" d="M661.7,343.7c-3.7,0.5-7.5,0.8-11.6,1.3c-8.2-1.4-17-0.8-25.2-3.8c-2.1-0.8-4.3-1.8-6.2-3
			c-1.5-0.9-2.6-2.4-1.7-4.3c0.9-1.8,2.6-2,4.3-1.3c0.4,0.1,0.8,0.3,1.2,0.5c9.5,5.2,19.9,4.6,30.2,5c2.9,0.1,5.9,0,8.8,0.2
			c1.3,0.1,2.5,0.7,2.7,2.2C664.3,342.3,663.2,343.5,661.7,343.7z"/>
	</g>
</g>
<g id="圖層_2_1_">
	<path class="st14" d="M610.6,66.2l-104,50.3c-3.3,1.6-7.3,0.2-9-3.1l-15.4-31.8c-1.6-3.3-0.2-7.3,3.1-9l104-50.3
		c3.3-1.6,7.3-0.2,9,3.1l15.4,31.8C615.4,60.5,614,64.6,610.6,66.2z"/>
	<path class="st14" d="M293.4,68.2l104,50.3c3.3,1.6,7.3,0.2,9-3.1l15.4-31.8c1.6-3.3,0.2-7.3-3.1-9l-104-50.3
		c-3.3-1.6-7.3-0.2-9,3.1l-15.4,31.8C288.6,62.5,290,66.6,293.4,68.2z"/>
</g>
</svg>
