<?xml version="1.0" encoding="utf-8"?>
<!-- Generator: Adobe Illustrator 21.0.0, SVG Export Plug-In . SVG Version: 6.00 Build 0)  -->
<svg version="1.1" xmlns="http://www.w3.org/2000/svg" xmlns:xlink="http://www.w3.org/1999/xlink" x="0px" y="0px"
	 viewBox="0 0 750 750" style="enable-background:new 0 0 750 750;" xml:space="preserve">
<style type="text/css">
	.st0{fill:#294421;}
	.st1{fill:#4DC47D;}
	.st2{fill:#3DAD6B;}
	.st3{fill:#1F7A43;}
	.st4{fill:#2B9355;}
</style>
<g id="BACKGROUND">
</g>
<g id="OBJECTS">
	<path class="st0" d="M125.4,414.3c-16.8-71.4,277-288.1,344.3-258.3c64.7,28.6,97.9,391.4,40.3,428.5
		C456.2,619.3,140.1,476.6,125.4,414.3z"/>
	<g>
		<path class="st1" d="M263.9,248.4c-79,59.1-147.2,130.3-138.8,165.7c7.2,30.6,87.3,80.7,173.2,119.5
			C228.2,418.1,246.2,306.1,263.9,248.4z"/>
		<path class="st2" d="M445.7,585c-68.1-198.6-26-372-7.7-430.3c-43.6,8.4-112.2,47.3-174.1,93.7c-17.6,57.7-35.7,169.7,34.4,285.2
			C350.2,557.1,404.2,576.5,445.7,585z"/>
	</g>
	<g>
		<path class="st3" d="M411.8,287.2c-7.9,80.1-4.8,184.9,33.9,297.8c-43-134.8-19.6-266.2-11.3-303.7
			C427.3,283.5,419.8,285.4,411.8,287.2z"/>
		<path class="st4" d="M513.7,239.3c-17,15-42.3,30.7-79.4,42c-8.3,37.5-31.7,168.9,11.3,303.7c29.5,6.1,52.6,6.7,64-0.7
			C551.6,557.2,545.3,356.9,513.7,239.3z"/>
	</g>
</g>
</svg>
